<?xml version="1.0" standalone="no"?>
<!DOCTYPE svg PUBLIC "-//W3C//DTD SVG 1.1//EN" "http://www.w3.org/Graphics/SVG/1.1/DTD/svg11.dtd">
<svg xmlns="http://www.w3.org/2000/svg">
<metadata>Copyright (C) 2017 by original authors @ fontello.com</metadata>
<defs>
<font id="fontello" horiz-adv-x="1000" >
<font-face font-family="fontello" font-weight="400" font-stretch="normal" units-per-em="1000" ascent="850" descent="-150" />
<missing-glyph horiz-adv-x="1000" />
<glyph glyph-name="award" unicode="&#xe800;" d="M320-150c0 0-1 0-1 0 0 0-1 0-1 0 0 0 0 0 0 0 0 0 0 0 0 0 0 0 0 0 0 0 0 0-1 0-1 0 0 0 0 0 0 0-3 1-5 2-7 4 0 0 0 0 0 0 0 0 0 0 0 0 0 0 0 0 0 0l-196 202c0 0 0 0 0 0 0 0 0 0 0 0 0 0 0 0 0 0-2 2-3 4-4 6 0 0 0 0 0 0 0 0 0 0 0 0 0 0 0 0 0 0 0 1 0 2 0 2 0 0 0 0 0 0 0 0 0 0 0 1 0 0 0 0 0 0s0 0 0 0c0 0 0 0 0 0 0 0 0 1 0 1v770c0 8 6 14 14 14h752c8 0 15-6 15-14v-972c0-8-7-14-15-14h-556c0 0 0 0 0 0z m15 29h527v942h-724v-741h182c8 0 15-6 15-14v-187z m-177 173l148-152v152h-148z m623 89h-559c-8 0-14 6-14 14s6 14 14 14h559c8 0 14-6 14-14s-6-14-14-14z m0 73h-559c-8 0-14 7-14 15s6 14 14 14h559c8 0 14-6 14-14s-6-15-14-15z m-110 103c-4 0-7 1-10 3-3 3-5 7-5 11l0 24-99 15c-4 1-7 3-10 6-2 4-3 8-2 12l38 147c-23 22-38 52-41 86-6 74 49 139 123 145 74 6 139-49 145-123l0 0c4-42-12-80-40-107l39-185c1-4 0-8-2-11-2-3-6-5-10-6l-124-17c-1 0-2 0-2 0z m10 180l4-149 93 12-33 156c-17-10-37-16-58-18-2 0-4 0-6-1z m-104-101l76-12 2 8-3 107c-16 3-31 9-44 17l-31-120z m99 342c-3 0-6 0-8 0-59-5-102-56-97-115 4-58 55-101 114-97 58 5 101 56 97 115l0 0c-5 55-51 97-106 97z m-223-228h-231c-8 0-14 7-14 15s6 14 14 14h231c7 0 14-6 14-14s-7-15-14-15z m0 87h-231c-8 0-14 7-14 14s6 15 14 15h231c7 0 14-7 14-15s-7-14-14-14z m0 92h-231c-8 0-14 7-14 15s6 14 14 14h231c7 0 14-6 14-14s-7-15-14-15z" horiz-adv-x="1000" />

<glyph glyph-name="balcony" unicode="&#xe801;" d="M987-59h-974c-7 0-13 6-13 13v56c0 7 6 13 13 13h16v357h-16c-7 0-13 6-13 13s6 13 13 13h259v340c0 7 5 13 13 13h427c7 0 13-6 13-13v-340h262c7 0 13-6 13-13s-6-13-13-13h-15v-357h15c7 0 13-6 13-13v-56c0-7-6-13-13-13z m-961 26h948v30h-948v-30z m875 56h45v357h-45v-357z m-86 0h60v357h-60v-357z m-86 0h60v357h-60v-357z m-86 0h56v357h-56v-357z m-87 0h61v357h-61v-357z m-86 0h60v357h-60v-357z m-86 0h60v357h-60v-357z m-86 0h60v357h-60v-357z m-87 0h61v357h-61v-357z m-86 0h60v357h-60v-357z m-70 0h44v357h-44v-357z m614 383h30v327h-401v-327h30v283c0 7 5 13 13 13h133c7 0 13-6 13-13v-283h23v283c0 7 5 13 13 13h133c7 0 13-6 13-13v-283z m-133 0h107v270h-107v-270z m-182 0h107v270h-107v-270z" horiz-adv-x="1000" />

<glyph glyph-name="bathtub" unicode="&#xe802;" d="M751 22c-7 0-13 6-13 14v40h-476v-40c0-8-6-14-13-14s-14 6-14 14v41c-109 9-194 91-194 191v164h-27c-8 0-14 6-14 13v47c0 7 6 13 14 13h27v90c-1 5-1 38 21 62 13 14 31 21 54 21 23 0 42-7 56-21 23-24 23-59 23-60 0-8-6-14-14-14 0 0 0 0 0 0-8 0-13 7-13 14 0 1 0 25-16 41-8 9-20 13-36 13-15 0-27-4-35-13-15-16-13-42-13-42 0 0 0 0 0-1v-29c6 3 13 5 21 5 25 0 46-21 46-46 0-7-1-14-4-20h856c7 0 13-6 13-13v-47c0-7-6-13-13-13h-27v-164c0-100-86-182-195-191v-41c0-8-6-14-14-14z m-489 81h476v41c0 7 6 13 13 13s14-6 14-13v-40c94 9 168 79 168 164v164h-865v-164c0-85 73-155 167-164v40c0 7 6 13 14 13s13-6 13-13v-41z m-235 356h946v19h-946v-19z m62 85c-11 0-20-9-20-19 0-11 9-20 20-20 10 0 19 9 19 20 0 10-9 19-19 19z" horiz-adv-x="1000" />

<glyph glyph-name="big-house" unicode="&#xe803;" d="M907-105h-814c-8 0-14 6-14 13v404h-66c-4 0-8 2-11 6-2 4-3 8-1 13l134 306c1 3 4 5 7 7l353 160c3 2 7 2 11 0l352-160c3-2 6-4 7-7l134-306c2-5 1-9-1-13-3-4-7-6-11-6h-66v-404c0-7-6-13-14-13z m-801 26h788v404c0 8 6 14 13 14h60l-124 283-343 156-343-156-123-283h59c7 0 13-6 13-14v-404z m692 78h-135c-7 0-13 6-13 13v205c0 7 6 13 13 13h135c8 0 13-6 13-13v-205c0-7-5-13-13-13z m-121 27h108v77h-108v-77z m0 104h108v74h-108v-74z m-206-131h-271c-7 0-13 6-13 13v205c0 7 6 13 13 13h271c7 0 13-6 13-13v-205c0-7-6-13-13-13z m-122 27h109v77h-109v-77z m-136 0h109v77h-109v-77z m136 104h109v74h-109v-74z m-136 0h109v74h-109v-74z m544 187h-514c-8 0-14 6-14 14v144c0 0 0 1 0 1 3 96 121 170 271 170 148 0 266-73 270-167 0-2 1-3 1-4v-144c0-8-6-14-14-14z m-501 27h488v117h-488v-117z m324 144h162c-12 74-116 132-242 132-126 0-230-58-243-132h163v79c0 7 6 13 13 13h134c7 0 13-6 13-13v-79z m-134 0h108v66h-108v-66z" horiz-adv-x="1000" />

<glyph glyph-name="book-bag" unicode="&#xe804;" d="M923-68h-846c-42 0-77 34-77 77v526c0 42 35 77 77 77h218v89c0 37 30 67 67 67h276c37 0 67-30 67-67v-89h218c42 0 77-35 77-77v-526c0-43-35-77-77-77z m-893 491v-414c0-26 21-47 47-47h846c26 0 47 21 47 47v414l-401-143v-89c0-8-6-15-15-15h-108c-8 0-15 7-15 15v89l-401 143z m470-217h39v64l-34-12c-3-2-7-2-10 0l-34 12v-64h39z m-470 249l470-167 470 167v80c0 25-21 47-47 47h-846c-26 0-47-22-47-47v-80z m295 157h350v89c0 21-16 37-37 37h-276c-20 0-37-16-37-37v-89z" horiz-adv-x="1000" />

<glyph glyph-name="brick-wall" unicode="&#xe805;" d="M982-150h-964c-10 0-18 8-18 18v964c0 10 8 18 18 18h964c10 0 18-8 18-18v-964c0-10-8-18-18-18z m-360 36h342v125h-342v-125z m-378 0h343v125h-343v-125z m-208 0h173v125h-173v-125z m755 160h173v126h-173v-126z m-187 0h152v126h-343v-126h191z m-377 0h151v126h-342v-126h191z m546 161h191v125h-342v-125h151z m-377 0h191v125h-343v-125h152z m-360 0h173v125h-173v-125z m755 161h173v125h-173v-125z m-187 0h152v125h-343v-125h191z m-377 0h151v125h-342v-125h191z m546 161h191v125h-342v-125h151z m-377 0h191v125h-343v-125h152z m-360 0h173v125h-173v-125z m755 160h173v125h-173v-125z m-187 0h152v125h-343v-125h191z m-377 0h151v125h-342v-125h191z" horiz-adv-x="1000" />

<glyph glyph-name="broker" unicode="&#xe806;" d="M953-150h-906c-8 0-15 6-15 14v174c0 66 40 126 102 150l215 86c4 2 8 2 11 0 4-2 7-5 8-8l63-176 22 61-19 45c-2 5-1 10 2 14 2 4 7 6 12 6h104c5 0 10-2 12-6 3-4 4-9 2-14l-19-45 22-61 63 176c2 3 4 6 8 8 3 2 8 2 11 0l215-86c62-24 102-84 102-150v-174c0-8-7-14-15-14z m-892 29h878v159c0 55-33 103-84 124l0 0-201 80-72-200c-2-6-8-10-14-10 0 0 0 0 0 0-6 0-11 4-13 10l-37 105c-1 3-1 7 1 10l12 30h-62l13-30c1-3 1-7 0-10l-37-105c-2-6-7-10-13-10-6 0-12 4-14 10l-72 200-201-80c-51-21-84-69-84-124v-159z m763 26h-167c-8 0-15 7-15 15v103c0 8 7 14 15 14h167c8 0 14-6 14-14v-103c0-8-6-15-14-15z m-153 29h138v74h-138v-74z m-171 355c-23 0-45 4-67 12-16 7-30 15-40 25-29 26-59 84-70 106-19 1-56 12-73 74-8 31-6 56 6 74 6 10 15 16 21 20 0 29 3 112 56 173 64 76 163 77 167 77s104-1 168-77c52-61 55-144 55-173 7-4 15-10 21-20 12-18 14-43 6-74-16-62-54-73-73-74-11-22-41-80-70-106-10-10-24-18-40-25-21-8-44-12-67-12z m-168 172c6 0 11-3 14-8 0-1 36-77 67-106 7-7 18-14 31-19 36-14 76-14 112 0 13 5 24 12 31 19 31 29 67 105 68 106 2 6 9 9 16 8 3-1 36-5 51 52 6 23 5 41-2 52-6 9-14 10-15 11-7 1-12 8-12 15l0 0c1 1 3 32-5 71-38-4-149-11-204 13-37 17-63 37-79 51-5-16-15-37-29-52-24-26-54-40-69-46-1-22 0-37 0-37 0-7-5-14-12-15 0-1-9-2-15-12-7-11-8-29-2-51 16-59 51-52 52-52 1 0 2 0 2 0z m168 360c-1 0-90-1-145-66-24-29-37-63-43-93 13 6 29 17 43 32 21 22 29 63 29 63 1 6 6 10 11 11 6 2 11-1 15-5 0 0 27-35 86-61 46-21 145-15 184-12-7 22-18 45-35 65-55 65-144 66-145 66z" horiz-adv-x="1000" />

<glyph glyph-name="building" unicode="&#xe807;" d="M986-93h-972c-8 0-14 7-14 14v858c0 7 6 14 14 14h422c8 0 14-7 14-14v-283h536c8 0 14-6 14-14v-561c0-7-6-14-14-14z m-102 28h88v534h-522v-534h88v328c0 7 6 14 14 14h319c7 0 13-7 13-14v-328z m-318 0h291v26h-291v-26z m-538 0h394v830h-394v-830z m538 53h291v32h-291v-32z m0 60h291v31h-291v-31z m0 59h291v32h-291v-32z m0 59h291v32h-291v-32z m0 60h291v23h-291v-23z m-258-195h-166c-7 0-13 6-13 14v218c0 7 6 13 13 13h166c7 0 14-6 14-13v-218c0-8-7-14-14-14z m-69 28h55v190h-55v-190z m-83 0h55v190h-55v-190z m152 369h-166c-7 0-13 7-13 14v218c0 8 6 14 13 14h166c7 0 14-6 14-14v-218c0-7-7-14-14-14z m-69 28h55v190h-55v-190z m-83 0h55v190h-55v-190z" horiz-adv-x="1000" />

<glyph glyph-name="building-1" unicode="&#xe808;" d="M885-150c0 0 0 0 0 0l-372 1h-398c-7 0-14 6-14 14v639c0 8 7 14 14 14h199v318c0 8 6 14 14 14h557c8 0 14-6 14-14v-972c0-4-2-7-4-10-3-3-6-4-10-4z m-358 29l344-1v944h-529v-304h171c8 0 14-6 14-14v-625z m-397 0h369v611h-369v-611z m325 92h-112c-8 0-15 7-15 15v65c0 8 7 15 15 15h112c8 0 14-7 14-15v-65c0-8-6-15-14-15z m-98 29h84v37h-84v-37z m-71-29h-113c-7 0-14 7-14 15v65c0 8 7 15 14 15h113c8 0 14-7 14-15v-65c0-8-6-15-14-15z m-98 29h84v37h-84v-37z m600-21h-54c-8 0-14 6-14 14v59c0 8 6 14 14 14h54c8 0 14-6 14-14v-59c0-8-6-14-14-14z m-40 28h26v31h-26v-31z m-117-28h-54c-8 0-14 6-14 14v59c0 8 6 14 14 14h54c8 0 15-6 15-14v-59c0-8-7-14-15-14z m-40 28h26v31h-26v-31z m-136 93h-112c-8 0-15 6-15 14v66c0 8 7 14 15 14h112c8 0 14-6 14-14v-66c0-8-6-14-14-14z m-98 28h84v38h-84v-38z m-71-28h-113c-7 0-14 6-14 14v66c0 8 7 14 14 14h113c8 0 14-6 14-14v-66c0-8-6-14-14-14z m-98 28h84v38h-84v-38z m600-8h-54c-8 0-14 7-14 14v60c0 7 6 14 14 14h54c8 0 14-7 14-14v-60c0-7-6-14-14-14z m-40 29h26v30h-26v-30z m-117-29h-54c-8 0-14 7-14 14v60c0 7 6 14 14 14h54c8 0 15-7 15-14v-60c0-7-7-14-15-14z m-40 29h26v30h-26v-30z m-136 79h-112c-8 0-15 7-15 15v65c0 8 7 15 15 15h112c8 0 14-7 14-15v-65c0-8-6-15-14-15z m-98 29h84v37h-84v-37z m-71-29h-113c-7 0-14 7-14 15v65c0 8 7 15 14 15h113c8 0 14-7 14-15v-65c0-8-6-15-14-15z m-98 29h84v37h-84v-37z m600 5h-54c-8 0-14 6-14 14v59c0 8 6 14 14 14h54c8 0 14-6 14-14v-59c0-8-6-14-14-14z m-40 28h26v31h-26v-31z m-117-28h-54c-8 0-14 6-14 14v59c0 8 6 14 14 14h54c8 0 15-6 15-14v-59c0-8-7-14-15-14z m-40 28h26v31h-26v-31z m-136 67h-112c-8 0-15 6-15 14v66c0 8 7 14 15 14h112c8 0 14-6 14-14v-66c0-8-6-14-14-14z m-98 28h84v38h-84v-38z m-71-28h-113c-7 0-14 6-14 14v66c0 8 7 14 14 14h113c8 0 14-6 14-14v-66c0-8-6-14-14-14z m-98 28h84v38h-84v-38z m600 18h-54c-8 0-14 7-14 15v59c0 7 6 14 14 14h54c8 0 14-7 14-14v-59c0-8-6-15-14-15z m-40 29h26v30h-26v-30z m-117-29h-54c-8 0-14 7-14 15v59c0 7 6 14 14 14h54c8 0 15-7 15-14v-59c0-8-7-15-15-15z m-40 29h26v30h-26v-30z m197 113h-54c-8 0-14 6-14 14v59c0 8 6 14 14 14h54c8 0 14-6 14-14v-59c0-8-6-14-14-14z m-40 28h26v31h-26v-31z m-117-28h-54c-8 0-14 6-14 14v59c0 8 6 14 14 14h54c8 0 15-6 15-14v-59c0-8-7-14-15-14z m-40 28h26v31h-26v-31z m-116-28h-55c-7 0-14 6-14 14v59c0 8 7 14 14 14h55c8 0 14-6 14-14v-59c0-8-6-14-14-14z m-40 28h26v31h-26v-31z m353 113h-54c-8 0-14 7-14 15v59c0 8 6 14 14 14h54c8 0 14-6 14-14v-59c0-8-6-15-14-15z m-40 29h26v30h-26v-30z m-117-29h-54c-8 0-14 7-14 15v59c0 8 6 14 14 14h54c8 0 15-6 15-14v-59c0-8-7-15-15-15z m-40 29h26v30h-26v-30z m-116-29h-55c-7 0-14 7-14 15v59c0 8 7 14 14 14h55c8 0 14-6 14-14v-59c0-8-6-15-14-15z m-40 29h26v30h-26v-30z" horiz-adv-x="1000" />

<glyph glyph-name="building-crane" unicode="&#xe809;" d="M194-127h-50c-1 0-2 0-2 0h-103c-4 0-8 3-10 6s-3 9 0 13l102 177v567h-119c-5 0-10 3-11 8s0 11 4 14l126 98v59c0 6 6 12 13 12h50c7 0 12-6 12-12v-55l270-41c0 0 0 0 0 0l378-58c1-1 2-1 4-2 1 0 2-1 3-2 0 0 0 0 0 0 1-2 3-4 3-6 0-1 0-2 0-3v-213l132-133c4-4 5-9 3-14-2-4-6-7-11-7h-273c-5 0-9 3-11 7-2 5-1 10 2 14l134 133v201h-285c0 0 0 0 0 0h-349v-566l156-176c3-4 4-9 2-14-2-4-6-7-11-7h-157c-1 0-2 0-2 0z m12 25h119l-119 135v-135z m-50 0h25v168c0 0 0 0 0 0v570h-25v-570c0 0 0 0 0-1v-167z m-95 0h70v122l-70-122z m684 407h213l-106 107-107-107z m-186 356h133l-169 26 36-26z m-125 0h83l-43 30-40-30z m-132 0h77l-37 47-40-47z m-96 0h49l-49 56v-56z m-50 0h25v77h-25v-77z m-108 0h83v64l-83-64z m323 49l33-41 40 30-73 11z m-146 23l53-62 41 47-94 15z m-69 29h25v40h-25v-40z" horiz-adv-x="1000" />

<glyph glyph-name="bungalow" unicode="&#xe80a;" d="M853-150c-7 0-13 6-13 13v105h-210v-105c0-7-6-13-13-13s-12 6-12 13v105h-35v-105c0-7-6-13-13-13s-12 6-12 13v17h-95v-17c0-7-6-13-13-13s-12 6-12 13v105h-30v-105c0-7-6-13-13-13s-13 6-13 13v105h-210v-105c0-7-5-13-12-13s-13 6-13 13v585h-60c-5 0-10 3-12 8-2 5 0 11 4 14l426 377c4 4 12 4 16 0l426-377c4-3 6-9 4-14-2-5-7-8-12-8h-60v-585c0-7-6-13-13-13z m-403 55h95v26h-95v-26z m0 51h95v12h-95v-12z m367 37h23v455h-23v-455z m-68 0h42v455h-42v-455z m-68 0h42v455h-42v-455z m-51 0h26v455h-43v-105h4c7 0 13-6 13-13v-337z m-235 0h210v324h-210v-324z m-53 0h27v337c0 7 6 13 13 13h3v105h-43v-455z m-68 0h43v455h-43v-455z m-67 0h42v455h-42v-455z m-48 0h22v455h-22v-455z m386 350h43v105h-43v-105z m-67 0h42v105h-42v-105z m-68 0h42v105h-42v-105z m444 131h39l-393 346-392-346h37c1 0 1 0 2 0h706c0 0 1 0 1 0z" horiz-adv-x="1000" />

<glyph glyph-name="buying-a-house" unicode="&#xe80b;" d="M820-150c-32 0-58 26-58 58s26 59 58 59 58-26 58-59-26-58-58-58z m0 88c-17 0-30-13-30-30 0-16 13-30 30-30 17 0 30 14 30 30 0 17-13 30-30 30z m-451-88c-32 0-59 26-59 58s27 59 59 59 58-26 58-59-26-58-58-58z m0 88c-17 0-30-13-30-30 0-16 13-30 30-30 16 0 30 14 30 30 0 17-14 30-30 30z m487 51h-526c-7 0-12 5-14 12l-31 149-143 578h-102c-8 0-14 6-14 14s6 14 14 14h113c7 0 13-4 14-10l51-207h185v93h-41c-6 0-11 4-13 10s0 12 4 15l230 190c1 0 2 1 4 2 2 1 4 1 6 1h0 0c2 0 4 0 6-1 1-1 2-2 3-2l230-190c5-3 6-10 4-15s-7-10-13-10h-40v-93h177c4 0 8-2 11-5 3-4 4-8 3-12l-13-69c0-1 0-1 0-1l-55-301c-1-7-7-12-14-12h-576l26-121h514c8 0 14-7 14-14s-6-15-14-15z m-546 178h570l50 274h-632c-7 0-14 6-14 14s7 14 14 14h637l8 41h-718l85-343z m365 372h79v107c0 8 7 15 15 15h14l-190 156-191-156h15c8 0 14-7 14-15v-107h85v74c0 8 6 14 14 14h131c8 0 14-6 14-14v-74z m-130 0h102v60h-102v-60z" horiz-adv-x="1000" />

<glyph glyph-name="calendar-on-day-17" unicode="&#xe80c;" d="M804-150h-608c-47 0-85 38-85 85v718c0 47 38 85 85 85h43v69c0 24 20 43 43 43h5c24 0 43-19 43-43v-69h340v69c0 24 20 43 43 43h5c24 0 43-19 43-43v-69h43c47 0 85-38 85-85v-718c0-47-38-85-85-85z m-665 685v-600c0-32 26-58 57-58h608c31 0 57 26 57 58v600h-722z m0 27h722v91c0 31-26 57-57 57h-43v-38c0-23-19-43-43-43h-5c-23 0-43 20-43 43v1c0 0 0 1 0 2v35h-340v-38c0-23-19-43-43-43h-5c-23 0-43 20-43 43v1c0 0 0 1 0 2v35h-43c-31 0-57-26-57-57v-91z m577 95c9 0 17 8 17 18v49c0 0 0 1 0 1v82c0 9-7 16-15 16h-5c-8 0-15-7-15-16v-134c0-9 8-16 18-16z m-432 0c10 0 18 8 18 18v49c0 0 0 1 0 1v82c0 9-7 16-15 16h-5c-8 0-15-7-15-16v-134c0-9 8-16 17-16z m234-686c-2 0-4 0-6 1-7 4-10 12-6 19l212 403h-200c-8 0-14 6-14 14s6 13 14 13h223c5 0 9-2 12-6 2-4 2-10 0-14l-223-423c-2-5-7-7-12-7z m-152 0c-8 0-14 6-14 14v392l-83-75c-6-5-15-5-20 1-5 6-4 14 1 19l107 96c4 3 10 4 15 2 5-2 8-7 8-12v-423c0-8-6-14-14-14z" horiz-adv-x="1000" />

<glyph glyph-name="car-and-garage" unicode="&#xe80d;" d="M802-134h-43c-18 0-32 15-32 32v60h-454v-60c0-17-14-32-32-32h-43c-18 0-32 15-32 32v60h-37c-8 0-14 7-14 15v105c0 8 6 14 14 14h16v140c0 43 34 77 77 77h14l26 158c0 0 0 0 0 0 0 34 28 62 61 62h354c34 0 61-28 61-62 0 0 0 0 0 0l26-158h14c43 0 77-34 77-77v-140h16c8 0 15-6 15-14v-105c0-8-7-15-15-15h-37v-60c0-17-14-32-32-32z m-47 92v-60c0-2 2-3 4-3h43c2 0 3 1 3 3v60h-50z m-560 0v-60c0-2 1-3 3-3h43c2 0 4 1 4 3v60h-50z m625 29h37v77h-714v-77h677z m-159 105h166v140c0 27-22 48-49 48h-556c-27 0-48-21-48-48v-140h165v148c0 8 7 14 15 14s14-6 14-14v-148h30v148c0 8 6 14 14 14s15-6 15-14v-148h30v148c0 8 6 14 14 14s14-6 14-14v-148h30v148c0 8 6 14 14 14s15-6 15-14v-148h30v148c0 8 6 14 14 14s14-6 14-14v-148h30v148c0 8 7 14 14 14s15-6 15-14v-148z m-396 217h470l-24 144h-422l-24-144z m29 173h412c-5 11-16 18-29 18h-354c-13 0-24-7-29-18z m458-326c-27 0-49 22-49 49s22 49 49 49 49-22 49-49-22-49-49-49z m0 70c-11 0-21-9-21-21s10-21 21-21 21 10 21 21-10 21-21 21z m-504-70c-27 0-49 22-49 49s22 49 49 49 49-22 49-49-22-49-49-49z m0 70c-11 0-21-9-21-21s10-21 21-21 21 10 21 21-10 21-21 21z m738 297c-3 0-5 0-7 1l-479 279-478-279c-7-4-16-1-20 6-4 6-2 15 5 19l486 283c0 0 1 0 1 1 2 0 4 1 6 1 0 0 0 0 0 0 2 0 4-1 6-1 0-1 1-1 1-1l486-283c7-4 9-13 5-19-3-5-7-7-12-7z" horiz-adv-x="1000" />

<glyph glyph-name="carpenter-hacksaw" unicode="&#xe80e;" d="M236-150c-24 0-47 9-65 27l-144 144c-36 36-36 94 0 130l143 143c2 3 6 4 10 4 4-1 7-2 10-6l12-16 525 525c47 47 117 61 178 37l85-37c4-2 7-6 8-11l2-38c0-7-5-13-11-14l-24-3 2-23c0-7-5-13-12-14l-23-3 2-26c0-7-5-13-12-14l-26-3 2-26c0-7-5-13-12-14l-23-3 1-23c1-7-4-13-11-14l-24-3 2-26c1-6-4-13-11-14l-26-3 1-26c1-7-4-13-11-14l-24-3 2-23c1-7-4-13-11-14l-24-3 2-25c0-7-5-14-12-14l-26-4 2-26c0-7-5-13-12-14l-23-3 2-23c0-7-5-13-12-14l-23-3 1-25c1-7-4-13-11-14l-26-4 1-26c1-7-4-13-11-14l-24-3 2-23c1-7-4-13-11-14l-24-3 2-25c0-7-5-13-11-14l-27-4 2-26c0-7-5-13-12-14l-23-3 2-23c0-7-5-13-12-14l-23-3 1-25c1-7-4-13-11-14l-17-3 16-21c4-6 4-13-1-18l-107-107c-18-18-42-27-65-27z m-58 415l-133-133c-25-25-25-66 0-92l145-144c25-26 67-26 92 0l99 99-27 35c0 0 0 0 0 0l-176 235z m181-197l15-20 20 2-2 25c0 7 5 14 12 14l23 4-1 23c-1 7 4 13 11 14l24 3-2 26c0 1 0 2 1 4 0 0 0 0 0 0 0 2 1 4 2 5 0 0 0 0 0 0 1 2 3 3 5 4 0 0 0 0 0 0 1 0 2 1 4 1l26 3-2 25c-1 7 4 13 11 14l24 4-2 23c0 7 5 13 12 14l23 3-1 26c0 1 0 2 0 4 0 0 0 0 0 0 0 2 1 3 3 5 0 0 0 0 0 0 1 1 2 3 4 4 0 0 0 0 0 0h0c1 0 3 0 4 1l26 3-2 25c0 7 5 13 12 14l23 3-1 24c-1 7 4 13 11 14l24 3-2 26c0 1 0 2 0 4 0 0 0 0 0 0 1 2 2 3 3 5 0 0 0 0 0 0 1 1 3 3 5 3 0 0 0 0 0 0 1 1 2 1 4 2l26 3-2 25c-1 7 4 13 11 14l24 3-2 24c0 6 5 13 12 14l23 3-2 26c0 1 1 2 1 4 0 0 0 0 0 0 0 1 1 3 2 5 0 0 0 0 0 0 2 1 3 3 5 3 0 0 0 0 0 0l0 0c1 1 3 1 4 1l26 4-2 25c0 7 5 13 12 14l23 3-1 23c-1 7 4 14 11 14l24 4-2 25c0 2 0 3 0 5 1 1 2 3 3 5 0 0 0 0 0 0 0 0 0 0 0 0 1 1 3 2 4 3 0 0 0 0 0 0l0 0c2 1 3 1 4 1l26 4-1 25c-1 7 4 13 11 14l24 3-2 23c-1 7 4 13 11 14l24 4-1 17-77 34c-51 20-110 8-149-31l-528-528 141-187z m-118-154c-11 0-22 4-31 13l-133 133c-9 9-13 20-13 31 0 12 4 23 13 31l10 11c8 8 19 12 31 12s23-4 31-12l133-134h0c17-17 17-45 0-62l-10-10c-9-9-20-13-31-13z m-123 205c-5 0-9-2-12-5l-11-10c-3-4-5-8-5-13 0-4 2-9 5-12l134-134c7-6 18-6 24 0l11 11c6 7 6 18 0 24l-134 134c-3 3-7 5-12 5z" horiz-adv-x="1000" />

<glyph glyph-name="chinese-temple" unicode="&#xe80f;" d="M928-116h-856c-7 0-13 6-13 13 0 35 29 64 64 64h10v257c-18 3-43 9-68 23-38 21-63 70-64 72-2 5-1 11 2 14 4 4 9 6 14 4 0 0 25-8 57-8 36 0 65 10 86 29 42 36 60 84 66 107-13 2-39 7-63 20-30 17-50 56-50 57-3 5-2 11 1 15 4 3 9 5 14 3 0 0 19-6 43-6 27 0 49 8 65 22 29 25 47 58 56 77-10 2-30 5-50 16-24 13-39 43-39 45-3 4-2 10 2 14 3 4 8 5 13 4 0 0 14-5 32-5 20 0 35 5 47 16 33 29 47 70 47 70 2 5 7 9 13 9h286c6 0 11-4 13-9 0 0 14-42 47-70 12-11 27-16 47-16 18 0 32 5 32 5 5 1 10 0 14-4s4-10 1-14c0-2-15-32-39-45-19-11-40-14-50-16 9-19 27-52 56-77 16-15 38-22 65-22 24 0 43 6 43 6 5 2 10 0 14-4 3-3 4-9 2-14-1-1-20-40-51-57-24-13-50-18-63-20 6-23 24-71 66-107 22-19 51-29 86-29 32 0 57 8 57 8 5 2 10 0 14-4 3-4 4-9 2-14-1-2-26-51-64-72-25-14-50-20-68-23v-257h10c35 0 64-29 64-64 0-7-6-13-13-13z m-840 26h825c-6 14-20 25-36 25h-754c-16 0-30-11-35-25z m724 51h29v254h-29v-254z m-147 0h121v254h-121v-254z m-61 0h35v254h-35v-254z m-48 0h22v254h-156v-254h22v127c0 7 6 13 13 13h86c7 0 13-6 13-13v-127z m-86 0h60v114h-60v-114z m-109 0h35v254h-35v-254z m-147 0h122v254h-122v-254z m-55 0h29v254h-29v-254z m640 279h42c4 1 45 4 81 24 16 8 29 23 38 36-10-2-21-3-34-3-42 0-77 12-103 35-51 45-70 103-76 126h-494c-6-23-25-81-76-126-26-23-61-35-103-35-13 0-24 1-34 3 9-13 22-28 38-36 36-20 77-23 81-24h640z m-41 244h5c4 1 34 3 62 18 9 5 17 13 24 22-6-1-13-2-20-2-33 0-61 10-82 28-39 34-60 78-67 97h-360c-7-19-28-63-67-97-21-18-49-28-82-28-7 0-14 1-20 2 7-9 15-17 25-22 27-15 58-17 61-18h521z m-69 189h11c3 0 25 2 45 13 5 2 9 6 13 10-3-1-5-1-8-1-26 0-48 8-64 22-29 25-45 58-51 73h-269c-7-15-23-48-52-73-16-14-38-22-64-22-3 0-5 0-8 1 4-4 8-8 13-10 20-11 42-13 45-13h389z" horiz-adv-x="1000" />

<glyph glyph-name="closed-door" unicode="&#xe810;" d="M746-150h-492c-7 0-13 6-13 13v974c0 7 6 13 13 13h492c7 0 13-6 13-13v-974c0-7-6-13-13-13z m-479 26h466v948h-466v-948z m70 372c-13 0-23 10-23 23s10 24 23 24c9 0 16-4 20-11h56c8 0 13-5 13-13s-5-12-13-12h-56c-4-7-11-11-20-11z m326 99h-131c-7 0-13 6-13 13v165c0 7 6 13 13 13h131c7 0 13-6 13-13v-165c0-7-6-13-13-13z m-119 26h106v139h-106v-139z m-76-26h-131c-7 0-13 6-13 13v165c0 7 6 13 13 13h131c8 0 13-6 13-13v-165c0-7-5-13-13-13z m-118 26h106v139h-106v-139z m313 196h-131c-7 0-13 6-13 13v165c0 3 1 7 4 9 3 3 7 4 11 3l131-20c7-1 11-7 11-13v-144c0-7-6-13-13-13z m-119 26h106v120l-106 17v-137z m-76-26h-131c-7 0-13 6-13 13v144c0 6 5 12 11 13l131 20c4 1 8 0 11-3 3-2 4-6 4-9v-165c0-7-5-13-13-13z m-118 26h106v137l-106-17v-120z" horiz-adv-x="1000" />

<glyph glyph-name="combination-lock" unicode="&#xe811;" d="M500-150c-166 0-301 135-301 301 0 97 47 184 119 239v278c0 100 82 182 182 182s182-82 182-182v-278c72-55 119-142 119-239 0-166-135-301-301-301z m-1 574c-150 0-273-123-273-273 0-151 123-274 274-274s274 123 274 274c0 150-123 273-273 273 0 0 0 0 0 0 0 0 0 0 0 0-1 0-1 0-1 0 0 0 0 0 0 0 0 0 0 0 0 0 0 0 0 0 0 0 0 0 0 0 0 0 0 0-1 0-1 0 0 0 0 0 0 0z m1 399c-85 0-155-69-155-155v-260c47 28 99 43 154 43 0 0 0 0 0 0 0 0 0 0 1 0 0 0 0 0 0 0 0 0 0 0 0 0 0 0 0 0 0 0 0 0 0 0 0 0 0 0 1 0 1 0 0 0 0 0 0 0 0 0 0 0 0 0 55 0 108-15 154-43v260c0 86-69 155-155 155z m87-842c-41 0-75 33-75 74 0 41 34 74 75 74s74-33 74-74c0-41-33-74-74-74z m-14 119c-19-6-34-24-34-45 0-26 22-47 48-47s47 21 47 47c0 21-14 39-34 45v-4c0-8-6-14-13-14s-14 6-14 14v4z m-160-119c-41 0-74 33-74 74 0 41 33 74 74 74s75-33 75-74c0-41-34-74-75-74z m-6 27c2 0 4 0 6 0 26 0 48 21 48 47s-22 47-48 47-47-21-47-47c0-15 7-27 17-36l4 8c4 7 12 9 18 5 7-3 9-11 6-18l-4-6z m180 146c-41 0-75 34-75 74 0 41 34 75 75 75s74-34 74-75c0-40-33-74-74-74z m0 122c-26 0-48-21-48-48s22-47 48-47c20 0 37 13 44 30l-9 1c-8 1-13 7-13 15s8 12 15 12l9-1c-4 21-23 38-46 38z m-174-122c-41 0-74 34-74 74 0 23 10 43 26 57 0 0 0 0 1 0 0 0 0 0 0 0 13 11 29 18 47 18 41 0 75-34 75-75 0-40-34-74-75-74z m-39 100c-5-7-8-16-8-26 0-26 21-47 47-47s48 21 48 47-22 48-48 48c-6 0-13-2-19-4l4-5c5-6 4-15-2-19-6-5-14-4-19 2l-3 4z" horiz-adv-x="1000" />

<glyph glyph-name="compasses-tool" unicode="&#xe812;" d="M779-150c-6 0-10 3-12 8l-118 327h-136v-46c0-7-6-13-13-13s-13 6-13 13v46h-135l-119-327c-2-6-9-10-16-7-7 2-10 10-8 16l115 318h-42c-7 0-12 5-12 13s5 12 12 12h52l103 285c-16 16-26 38-26 63 0 45 33 82 76 88v28h-15c-7 0-13 5-13 13v150c0 7 6 13 13 13h56c7 0 13-6 13-13v-150c0-8-6-13-13-13h-15v-28c43-6 76-43 76-88 0-25-10-47-25-63l103-285h51c7 0 13-5 13-12s-6-13-13-13h-42l115-318c2-6-1-14-8-16-1-1-3-1-4-1z m-266 360h126l-97 269c-13-7-27-11-42-11s-29 4-42 11l-97-269h126v46c0 7 6 13 13 13s13-6 13-13v-46z m-13 411c-35 0-63-28-63-63 0-35 28-64 63-64s64 29 64 64c0 35-29 63-64 63z m0 78h15v125h-30v-125h15z" horiz-adv-x="1000" />

<glyph glyph-name="concrete-mixer" unicode="&#xe813;" d="M664 27c-42 0-76 31-83 71h-318c-7-40-41-71-83-71s-77 31-83 71h-84c-7 0-13 6-13 13v241c0 2 0 3 1 4l50 169c2 5 7 9 13 9h229c7 0 13-6 13-13v-99l46-204h57v42c-5 1-9 2-14 3-5 1-9 5-10 10l-56 241c-2 5 0 10 4 13 65 55 160 99 268 125 133 31 263 28 347-9 4-2 7-5 7-9l45-188c1-4 0-8-3-12-24-28-56-54-95-78 0-1 0-2 0-2v-136h36c7 0 13-6 13-14v-93c0-7-6-13-13-13h-20c-6-40-41-71-83-71s-76 31-83 71h-5c-6-40-41-71-83-71z m-57 82c1-30 26-55 57-55 32 0 57 26 57 57 0 32-25 57-57 57-31 0-57-25-57-57 0 0 0-1 0-2z m-484 0c1-31 26-55 57-55 32 0 57 26 57 57 0 32-25 57-57 57-31 0-57-25-57-57 0-1 0-1 0-2z m655 1c1-31 26-56 57-56 32 0 58 26 58 57 0 24-14 44-34 53-7 3-15 4-23 4-32 0-58-25-58-57 0 0 0-1 0-1z m141 15h6v66h-63c3-1 5-2 8-3 25-11 44-35 49-63z m-172 0h5c5 31 27 56 57 66h-12c0 0 0 0 0 0h-106c29-10 51-35 56-66z m-484 0h318c5 31 27 56 56 66h-295c0 0-1 0-1 0h-48c-8 0-14 6-14 13v216c0 0 0 1 0 1v86h-205l-47-157v-225h70c6 40 41 70 83 70 0 0 0 0 0 0 42 0 77-30 83-70z m558 93h55v88l-55-88z m-228 0h197l70 114c-50-25-108-46-170-60-32-8-65-14-97-17v-37z m-157 0h130v34c-46-3-90-2-130 3v-37z m-130 0h19l-19 82v-82z m119 66c74-13 167-8 259 14 125 29 232 84 288 148l-41 175c-79 32-200 34-324 4-99-23-189-64-250-113l52-225c5-1 10-2 15-2 0-1 1-1 1-1z m-203 56h-150c-4 0-9 2-11 6-3 3-3 8-2 12l38 119c1 6 6 10 12 10h113c8 0 14-6 14-14v-119c0-8-6-14-14-14z m-132 27h119v93h-90l-29-93z m317 128c-5 0-9 1-11 5-5 6-3 14 2 19 3 2 72 53 204 85 8 2 15-2 17-9 1-8-3-15-10-17-127-31-194-80-194-81-3-2-6-2-8-2z" horiz-adv-x="1000" />

<glyph glyph-name="construction-helmet" unicode="&#xe814;" d="M437-150h-48c-17 0-30 13-30 30v49l-10 248c0 1-1 1-1 2l-77 134h-157c-7 0-12 5-12 12v42h-87c-4 0-9 2-11 6-2 4-2 8 1 12l30 51c2 228 189 414 418 414 155 0 295-84 368-220h61c7 0 12-6 12-12v-188l96-40c5-2 8-8 7-13s-6-10-12-10h-165v-42c0-7-6-12-13-12h-252l-77-134c-1-1-1-1-1-1l-10-249v-49c0-17-13-30-30-30z m-54 67v-37c0-3 2-6 6-6h48c4 0 6 3 6 6v37h-18v-16c0-6-5-12-12-12s-12 6-12 12v16h-18z m30 24h31l8 232h-78l8-232h31z m-47 256h94l78 134c2 4 6 6 10 6h247v30h-298l-46-79c-2-3-6-6-10-6h-56c-4 0-8 3-11 6l-45 79h-203v-30h152c4 0 8-2 10-6l78-134z m26 110h42l35 60h-112l35-60z m415 84h118l-48 20c-4 2-7 6-7 11v184h-56c-5 0-9 2-11 6-68 132-202 214-350 214-217 0-394-177-394-394 0-2 0-4-2-6l-21-35h771z m-265 29c-7 0-13 5-13 12v96h-195v-96c0-7-5-12-12-12s-12 5-12 12v108c0 7 6 12 12 12h220c6 0 12-5 12-12v-108c0-7-6-12-12-12z m-368 91c-1 0-2 0-3 0-6 2-10 9-9 15 1 2 14 52 56 103 39 47 112 103 235 103 123 0 195-56 234-103 42-51 54-101 55-103 1-7-3-13-9-15-7-1-13 3-15 9l0 0c-2 8-48 187-265 187-217 0-267-185-267-187-2-5-7-9-12-9z" horiz-adv-x="1000" />

<glyph glyph-name="copy-documents" unicode="&#xe815;" d="M686-150h-571c-8 0-14 6-14 14v770c0 8 6 14 14 14h51v52c0 8 6 14 13 14h55v54c0 8 6 14 13 14h55v54c0 8 6 14 14 14h570c7 0 13-6 13-14v-788c0-8-6-14-13-14h-55v-54c0-8-6-14-14-14h-54v-55c0-7-6-13-14-13h-49v-34c0-8-6-14-14-14z m-558 28h544v742h-544v-742z m572 47h36v761h-543v-38h493c8 0 14-6 14-14v-709z m63 68h41v761h-543v-40h488c8 0 14-6 14-14v-707z m68 69h41v760h-543v-40h488c8 0 14-6 14-14v-706z m-232-51h-398c-7 0-13 7-13 14s6 14 13 14h398c8 0 14-6 14-14s-6-14-14-14z m0 92h-398c-7 0-13 6-13 13s6 14 13 14h398c8 0 14-6 14-14s-6-13-14-13z m0 235h-398c-7 0-13 6-13 14s6 14 13 14h398c8 0 14-6 14-14s-6-14-14-14z m0 92h-398c-7 0-13 6-13 13s6 14 13 14h398c8 0 14-6 14-14s-6-13-14-13z m0 91h-398c-7 0-13 6-13 14s6 14 13 14h398c8 0 14-7 14-14s-6-14-14-14z" horiz-adv-x="1000" />

<glyph glyph-name="country-house" unicode="&#xe816;" d="M886-150h-772c-8 0-16 7-16 16v490h-80c-7 0-12 4-15 10-2 6-1 13 4 17l482 463c6 6 16 6 22 0l154-148v87c0 9 7 16 16 16h122c9 0 17-7 17-16v-235l173-167c5-4 6-11 4-17-2-6-8-10-15-10h-80v-490c0-9-7-16-16-16z m-756 32h740v474h-740v-474z m-72 506h884l-442 424-442-424z m639 279l90-86v188h-90v-102z m-33-691h-328c-9 0-16 8-16 16v249c0 8 7 16 16 16h328c9 0 16-8 16-16v-249c0-8-7-16-16-16z m-148 33h132v94h-132v-94z m-164 0h132v94h-132v-94z m164 126h132v89h-132v-89z m-164 0h132v89h-132v-89z m295 340h-274c-9 0-16 7-16 16 0 85 68 153 153 153s153-68 153-153c0-9-7-16-16-16z m-257 32h240c-8 59-59 105-120 105-61 0-112-46-120-105z" horiz-adv-x="1000" />

<glyph glyph-name="court-gavel" unicode="&#xe817;" d="M989-15h-413c-7 0-12 5-12 11v53c0 6 5 12 12 12h413c6 0 11-6 11-12v-53c0-6-5-11-11-11z m-402 23h390v29h-390v-29z m-554 173c-5 0-9 3-11 8l-21 68c-2 6 1 12 7 14l348 111c3 1 6 0 8-1 3-1 5-4 6-7l2-7 174 56-4 13c-1 3-1 6 1 9 1 3 4 5 6 6l31 9-6 18c-1 3 0 6 1 9s4 5 7 6l18 6-9 29-2 0c-2-1-5-2-8-2l0 0c-13 0-25 8-28 21l-12 34c-9 31 8 64 38 73l183 59c6 1 12 2 18 2 25 0 47-16 55-40l11-35c5-15-4-32-19-37l-1 0 9-30 18 6c3 1 6 1 9-1 3-1 5-3 6-6l44-139c1-2 0-6-1-8s-4-5-7-6l-18-6 9-29 2 0c3 1 6 2 9 2 12 0 24-9 28-21l11-35c4-15 3-30-4-44-7-14-19-24-34-29l-183-58c-6-2-12-3-18-3 0 0 0 0 0 0-25 0-47 17-55 41l-11 35c-2 7-2 15 2 22s10 12 17 15l2 0-10 29-18-5c-6-2-13 1-15 7l-5 18-31-10c-6-2-12 2-14 8l-5 13-174-55 3-7c2-6-2-13-8-15l-347-110c-2-1-3-1-4-1z m-7 72l15-46 325 104-14 45-326-103z m759 71l-119-37c-1-1-3-2-4-4s0-3 0-4l11-35c5-15 18-25 33-25 0 0 0 0 0 0 4 0 8 1 11 2l183 58c9 3 16 9 20 18s5 17 3 26l-11 35c-1 3-5 5-8 4l-119-38z m-112 21l10-29 190 61-9 29-191-61z m-294 0l3-9 174 55-3 10-174-56z m242 64l16-51 249 79-37 117-249-80 5-18c0 0 0 0 0 0l16-47z m-54 23l19-58 20 6-19 58-20-6z m46 103l9-29 191 60-9 30-191-61z m167 157c-4 0-8 0-11-1l-183-59c-18-5-28-25-23-44l12-34c1-4 4-5 7-4l238 75c3 1 5 5 4 8l-11 35c-5 14-18 24-33 24z" horiz-adv-x="1000" />

<glyph glyph-name="direction-sign" unicode="&#xe818;" d="M556-100h-83c-7 0-13 6-13 13v458h-208c-3 0-7 2-9 4l-64 66c-5 5-5 13 0 19l64 65c3 4 8 5 13 4h204v37h-343c-3 0-6 1-9 3l-104 97c-2 3-4 6-4 10s2 7 4 10l104 97c4 3 9 4 13 2h339v2c0 7 6 13 13 13h83c7 0 13-6 13-13v-81h343c4 0 8-2 10-5l75-97c4-5 4-12 0-17l-75-96c-3-5-9-7-14-5h-339v-573c0-7-6-13-13-13z m-70 26h57v848h-57v-848z m-228 472h202v105h-202l-52-53 52-52z m311 114h337l64 84-65 83h-336v-167z m-447 80l338 0v167h-338l-89-83 89-84z" horiz-adv-x="1000" />

<glyph glyph-name="door-hang" unicode="&#xe819;" d="M717-150h-434c-8 0-15 6-15 14v750c0 126 97 229 220 236 116 6 217-74 239-186 1-2 1-3 1-5 0-8-6-14-14-14 0 0 0 0 0 0h-92c-6 0-11 3-13 9-18 47-63 77-113 75-60-2-108-50-112-109-1-32 10-63 32-86 22-23 52-36 84-36 0 0 0 0 1 0 0 0 1 0 1 0 127-1 230-104 230-231v-403c0-8-7-14-15-14z m-420 29h406v388c0 111-91 202-202 202 0 0-1 0-1 0-40 0-78 16-105 45-28 29-42 67-40 108 4 74 65 134 140 136 59 3 113-32 137-84h63c-25 89-110 152-206 147-107-6-192-97-192-207v-735z" horiz-adv-x="1000" />

<glyph glyph-name="drill" unicode="&#xe81a;" d="M117-1c-42 0-87 15-101 43-16 30-16 63-16 203l0 32c0 119 39 211 63 267 7 17 15 35 15 40 0 14-4 26-8 33-3 8-5 16-5 24 0 22 13 42 34 50l16 6c6 3 13 4 20 4h528c7 0 13-5 13-12v-2h56c6 0 11-4 12-10h83c41 0 75-31 81-71h80c7 0 12-5 12-12s-5-12-12-12h-80c-6-40-40-70-81-70h-83c-1-6-6-11-12-11h-59l-5-15c-8-28-26-52-50-68l-55-36c-17-12-38-18-60-18h-220c0-12 0-30 0-51 1-20 6-37 10-48 3-7 3-14-1-20-3-6-9-11-15-12l-34-8v-4c0-6-4-11-10-12l-26-5c0-20 1-65 3-102 2-46-1-86-58-99-11-3-23-4-35-4z m-17 573c-2-9-7-21-14-38-23-53-61-143-61-257l0-32c-1-132-1-167 12-192 12-23 67-36 109-27 37 9 42 25 39 75-2 49-2 112-2 113 0 6 4 11 10 12l25 5v145c0 7 6 12 13 12h272c4 0 8 1 11 1-6 0-11 6-11 12 0 7 5 13 12 13h36c4 0 7-2 9-5l44 30c20 13 34 32 40 54l7 22v162h-516c-4 0-8-1-11-2l-16-7c-11-4-19-15-19-27 0-5 1-9 3-13 4-7 8-18 10-32h327c6 0 12-5 12-12s-6-12-12-12h-329z m143-208v-114l27 7c-5 13-11 32-11 55-1 21-1 40 0 52h-16z m433 162h44v137h-44v-137z m68 10h83c32 0 58 26 58 58s-26 58-58 58h-83v-116z m-193-105h-36c-7 0-12 5-12 12s5 12 12 12h36c7 0 13-5 13-12s-6-12-13-12z m0 42h-36c-7 0-12 5-12 12s5 12 12 12h36c7 0 13-5 13-12s-6-12-13-12z m0 42h-36c-7 0-12 5-12 12s5 12 12 12h36c7 0 13-5 13-12s-6-12-13-12z m0 42h-36c-7 0-12 5-12 12s5 12 12 12h36c7 0 13-5 13-12s-6-12-13-12z m0 41h-36c-7 0-12 6-12 13s5 12 12 12h36c7 0 13-6 13-12s-6-13-13-13z m0 42h-36c-7 0-12 6-12 13s5 12 12 12h36c7 0 13-6 13-12s-6-13-13-13z" horiz-adv-x="1000" />

<glyph glyph-name="eco-house" unicode="&#xe81b;" d="M887-150h-774c-8 0-14 6-14 15v492h-82c-6 0-12 4-14 9-2 6-1 12 3 16l484 464c6 5 14 5 20 0l484-464c4-4 5-10 3-16-2-5-7-9-13-9h-83v-492c0-9-6-15-14-15z m-759 29h744v493c0 8 7 14 15 14h60l-447 429-447-429h60c8 0 15-6 15-14v-493z m307 75c-30 0-55 6-69 10-9 3-19 7-29 12-77 39-117 127-95 211 0 2 1 5 2 8 31 102 85 139 133 161 48 21 80 22 110 23 32 1 60 2 105 33l0 0c45 31 83 106 84 107 2 5 7 8 13 8 0 0 0 0 0 0 5 0 10-3 13-8 4-8 106-209-28-418-78-121-173-147-239-147z m-136 89c14-17 31-31 51-41 9-4 17-8 24-10 39-11 172-36 275 125 99 153 60 303 38 363-17-28-45-69-78-92l0 0c-53-35-88-37-122-38-27-1-56-2-98-21-44-20-89-52-117-143-1-2-1-4-2-7-10-37-5-76 12-109 10 1 28 5 51 12l36 147c2 8 10 12 18 10 8-2 13-9 11-17l-32-129c34 13 74 33 114 62v119c0 8 7 14 15 14s15-6 15-14v-96c104 87 137 189 137 190 3 7 11 11 19 9 7-2 12-11 9-18-1-4-21-64-77-133l48 13c7 2 15-2 18-10 2-8-3-16-10-18l-94-26c-12-13-26-25-41-37-25-20-49-36-73-49l72-14c8-2 13-9 12-17-2-8-9-13-17-12l-109 22c-44-20-82-30-105-35z" horiz-adv-x="1000" />

<glyph glyph-name="electricity-light-bulb" unicode="&#xe81c;" d="M500-150c-34 0-62 24-68 57h-31c-7 0-12 5-12 12v97l-103 103c-3 2-4 5-4 9 0 0 0 0 0 0v138c0 7 6 12 13 12h64v58l-40-11c-8-2-16 0-23 5-6 5-10 12-10 21v61c0 12 8 22 19 25l376 103c8 3 16 1 23-4 6-5 10-12 10-21v-61c0-12-8-22-19-26l-54-14v-136h64c7 0 13-5 13-12v-138c0 0 0 0 0 0 0-4-1-7-4-9l-102-103v-97c0-7-6-12-13-12h-31c-6-33-34-57-68-57z m-42 57c5-19 22-32 42-32s37 13 42 32h-84z m99 25h29v77h-172v-77h143z m-151 102h188l81 81h-350l81-81z m-99 106h386v113h-386v-113z m252 138h57v129l-57-16v-113z m-93 0h68v106l-68-18v-88z m-82 0h57v81l-57-16v-65z m304 238c0 0 0 0 0 0l-376-103c0 0-1 0-1-1v-61c0-1 0-1 1-1 0 0 0 0 1 0l53 14c1 1 2 1 3 1l81 23c1 0 2 0 3 0l88 24c1 1 2 1 2 1l82 23c1 0 2 0 3 0l60 17c0 0 1 0 1 1v61c0 0 0 1-1 1 0 0 0 0 0 0z m-396-33c-6 0-12 2-16 6-7 5-10 12-10 20v62c0 12 7 22 19 25l417 113c8 2 16 0 22-5 7-5 11-12 11-21v-61c0-12-8-23-20-26l-417-112c-2 0-4-1-6-1z m417 201c-1 0-1 0-1 0l-417-112c0 0 0-1 0-1v-62c0 0 0 0 0 0 0-1 1-1 1-1l417 113c0 0 0 0 0 1v61c0 1 0 1 0 1 0 0 0 0 0 0z m-339-15c-6 0-12 2-16 6-7 5-10 12-10 20v62c0 12 8 23 19 26l261 66c8 2 16 1 22-4 7-5 10-13 10-21v-62c0-12-8-22-19-25h0l-261-67c-2 0-4-1-6-1z m260 156c0 0 0 0 0 0l-260-67c-1 0-1 0-1-1v-62c0 0 0 0 0 0 1-1 1 0 1 0l261 66c0 0 0 1 0 1v62c0 0 0 0 0 1 0 0-1 0-1 0z" horiz-adv-x="1000" />

<glyph glyph-name="factory" unicode="&#xe81d;" d="M986-141h-972c-8 0-14 6-14 14v208c0 7 6 13 14 13h130v121c0 7 6 13 14 13h272l11 526c0 7 6 13 14 13h73c8 0 14-6 14-13l11-526h40l11 600c0 7 6 13 14 13h73c8 0 14-6 14-13l11-600h66c8 0 14-6 14-13v-166h190c8 0 14-6 14-14v-162c0-8-6-14-14-14z m-190 27h176v136h-176v-136z m-624 0h596v149c0 1 0 1 0 2v40h-118c-7 0-14 6-14 14v46c0 7 7 14 14 14h118v50h-596v-50h173c8 0 14-7 14-14v-46c0-8-6-14-14-14h-173v-191z m-144 0h116v181h-116v-181z m636 219h103v18h-103v-18z m-492 0h159v18h-159v-18z m449 123h67l-10 586h-47l-10-586z m-163 0h67l-10 512h-47l-10-512z m134-151h-188c-8 0-14 6-14 14v46c0 7 6 14 14 14h188c7 0 13-7 13-14v-46c0-8-6-14-13-14z m-174 28h160v18h-160v-18z" horiz-adv-x="1000" />

<glyph glyph-name="favorite-house" unicode="&#xe81e;" d="M887-150h-774c-8 0-14 6-14 15v492h-83c-5 0-11 4-13 9-2 6-1 12 3 16l484 464c6 5 14 5 20 0l483-463c3-2 5-7 5-11 0-8-6-15-14-15 0 0 0 0 0 0h-83v-492c0-9-6-15-14-15z m-759 29h744v493c0 8 7 14 15 14h60l-447 429-447-429h60c8 0 15-6 15-14v-493z m372 132c-1 0-1 0-2 0-2 0-57 9-150 79-96 70-101 149-95 209 6 62 54 125 133 125 56 0 96-31 114-49 18 18 58 49 114 49 79 0 127-63 133-125 6-60 1-139-95-209-93-70-148-79-150-79-1 0-1 0-2 0z m-114 383c-65 0-99-50-104-97-6-59 0-122 83-184 77-57 124-70 135-73 11 3 58 16 135 73 83 62 89 125 83 184-5 47-39 97-104 97-63 0-102-49-102-49-3-4-7-6-12-6 0 0 0 0 0 0-5 0-9 2-12 6 0 0-39 49-102 49z" horiz-adv-x="1000" />

<glyph glyph-name="fire-place" unicode="&#xe81f;" d="M939-102h-127c-7 0-13 6-13 13v129h-48v-129c0-7-6-13-13-13s-13 6-13 13v129h-63c-2-2-4-4-6-6v-123c0-7-6-13-13-13s-13 6-13 13v102c-23-15-48-24-70-30v-72c0-7-5-13-12-13s-13 6-13 13v67c-22-4-37-4-41-4-3 0-14 0-29 1v-64c0-7-6-13-13-13s-12 6-12 13v67c-19 3-39 9-58 19-4 2-8 4-12 7v-93c0-7-6-13-13-13s-13 6-13 13v112c-5 5-10 10-15 17h-54v-129c0-7-6-13-13-13s-13 6-13 13v129h-48v-129c0-7-6-13-13-13h-127c-7 0-13 6-13 13v583c0 20-16 36-35 36-7 0-13 5-13 12v148c0 8 6 13 13 13h274c23 58 111 99 213 99 102 0 190-41 213-99h274c7 0 13-5 13-13v-148c0-7-6-12-13-12-19 0-35-16-35-36v-583c0-7-6-13-13-13z m-114 26h102v570c0 30 20 54 48 60v124h-271c-5 0-10 4-12 9-14 51-97 89-192 89s-177-38-192-89c-2-5-7-9-12-9h-270v-124c27-6 48-30 48-60v-570h101v116h-29c-7 0-12 6-12 13s5 13 12 13h29v355c0 74 61 134 135 134h380c74 0 135-60 135-134v-355h29c7 0 12-6 12-13s-5-13-12-13h-29v-116z m-360 77c17-2 28-1 28-1 1 0 1 0 1 0l0 0c1 0 17 0 41 4v36h-70v-39z m-95 34c9-7 17-12 24-15 14-8 31-13 46-16v36h-70v-5z m190 5v-30c21 6 44 15 64 30h-64z m191 26h48v355c0 60-49 109-109 109h-380c-60 0-109-49-109-109v-355h48v58c0 7 6 13 13 13s13-6 13-13v-58h38c-7 16-14 36-18 61-15 89 27 172 29 176 3 5 9 9 15 7 6-2 10-6 9-12 1-2 3-11 15-29 11-17 25-26 36-31-6 13-11 30-11 50 0 45 48 99 50 101 3 5 9 6 14 4 5-2 8-8 8-13 0 0-2-39 18-48 12-5 24-5 32 0 9 5 14 15 15 28 3 32-17 70-17 70-3 5-2 11 2 15 4 4 10 5 15 3 3-2 59-32 91-100 12-27 18-65 20-97 5 15 9 30 10 38 1 5 5 8 10 9 6 1 11-1 13-5 3-5 74-113 18-217-1-4-3-7-6-10h44v58c0 7 6 13 13 13s13-6 13-13v-58z m-191 0h70v58c0 7 6 13 13 13s13-6 13-13v-51c3 5 6 10 9 15 33 61 13 127-2 163-7-22-17-50-29-67-3-4-9-6-14-4-6 2-9 7-9 12 0 1 4 97-18 145-14 28-31 49-47 63 3-13 6-27 4-42-1-21-11-38-26-48-16-9-36-10-56-1-18 7-26 23-30 39-12-19-25-42-25-60 0-35 21-60 21-61 4-3 4-9 2-13-2-5-6-8-11-8-2 0-50-1-83 49-2 3-4 7-6 10-11-30-25-82-16-134 5-28 13-50 22-65h2v58c0 7 6 13 13 13s13-6 13-13v-58h70v58c0 7 5 13 12 13s13-6 13-13v-58h70v58c0 7 6 13 13 13s12-6 12-13v-58z m-60 530c-85 0-149 31-149 73 0 42 64 73 149 73 85 0 149-31 149-73 0-42-64-73-149-73z m0 121c-70 0-123-26-123-48 0-22 53-48 123-48 70 0 123 26 123 48 0 22-53 48-123 48z" horiz-adv-x="1000" />

<glyph glyph-name="folded-newspaper" unicode="&#xe820;" d="M919-83c-3 0-6 0-9 0-1 0-3 0-4 0h-809c-53 0-97 43-97 97v756c0 8 6 13 13 13h839c7 0 13-5 13-13v-108c0 0 0 0 0 0h109c14 0 26-12 26-26v-639c0-44-36-80-81-80z m55 719l-109 0 0-639c0-30 24-54 54-54 30 0 55 24 55 54v639z m-948 121v-743c0-39 32-71 71-71h763c-14 14-21 34-21 54v760h-813z m597-711h-98c-8 0-14 6-14 13s6 13 14 13h98c7 0 13-6 13-13s-6-13-13-13z m175 1h-115c-7 0-13 6-13 13v133c0 7 6 13 13 13h115c7 0 13-6 13-13v-133c0-7-6-13-13-13z m-102 26h88v107h-88v-107z m-233-26h-161c-7 0-13 6-13 13s6 13 13 13h161c7 0 13-6 13-13s-6-13-13-13z m-225 0h-153c-7 0-13 6-13 13v269c0 7 6 13 13 13h153c7 0 13-6 13-13v-269c0-7-6-13-13-13z m-139 26h125v243h-125v-243z m495 40h-69c-8 0-14 6-14 13s6 13 14 13h69c7 0 13-6 13-13s-6-13-13-13z m-179 1h-113c-7 0-13 6-13 13s6 13 13 13h113c7 0 13-6 13-13s-6-13-13-13z m208 66h-98c-8 0-14 6-14 13s6 14 14 14h98c7 0 13-6 13-14s-6-13-13-13z m-160 1h-161c-7 0-13 6-13 13s6 14 13 14h161c7 0 13-6 13-14s-6-13-13-13z m289 67h-69c-7 0-13 5-13 13s6 13 13 13h69c7 0 13-6 13-13s-6-13-13-13z m-158 0h-69c-8 0-14 5-14 13s6 13 14 13h69c7 0 13-6 13-13s-6-13-13-13z m-179 0h-113c-7 0-13 6-13 14s6 13 13 13h113c7 0 13-6 13-13s-6-14-13-14z m372 67h-104c-7 0-13 6-13 13s6 13 13 13h104c8 0 13-6 13-13s-5-13-13-13z m-158 0h-104c-8 0-14 6-14 13s6 13 14 13h104c7 0 13-6 13-13s-6-13-13-13z m-169 1h-158c-7 0-13 6-13 13s6 13 13 13h158c7 0 13-6 13-13s-6-13-13-13z m289 93h-220c-8 0-14 6-14 13s6 13 14 13h220c7 0 13-5 13-13s-6-13-13-13z m-278 0h-386c-7 0-13 6-13 13v269c0 8 6 14 13 14h386c7 0 13-6 13-14v-269c0-7-6-13-13-13z m-372 26h358v243h-358v-243z m677 41h-247c-8 0-14 6-14 14s6 13 14 13h247c8 0 14-6 14-13s-6-14-14-14z m-27 68h-220c-8 0-14 6-14 13s6 13 14 13h220c7 0 13-6 13-13s-6-13-13-13z m-33 67h-187c-8 0-14 6-14 13s6 13 14 13h187c7 0 13-6 13-13s-6-13-13-13z m60 67h-247c-8 0-14 6-14 13s6 14 14 14h247c8 0 14-6 14-14s-6-13-14-13z" horiz-adv-x="1000" />

<glyph glyph-name="gardening-shovel" unicode="&#xe821;" d="M183-150c-49 0-95 19-130 53-34 35-53 81-53 130 0 48 19 94 53 129l174 173c5 5 14 5 19 0l92-92 466 466c-22 45-14 100 23 137 5 5 14 5 19 0l150-150c3-2 4-6 4-9s-1-8-4-10c-23-23-53-35-85-35-18 0-36 4-52 12l-466-466 92-92c5-5 5-14 0-19l-173-174c-35-34-81-53-129-53z m53 455l-163-163c-29-29-45-68-45-109 0-42 16-81 45-110 29-29 68-45 110-45 41 0 80 16 109 45l163 163-83 83-123-99c-4-3-8-5-13-5 0 0 0 0 0 0-8 0-15 5-19 12-3 7-2 16 3 22l99 123-83 83z m103-102l-56-70 70 56-14 14z m18 20l16-16 462 462-16 16-462-462z m489 473c18-17 41-27 65-27 20 0 39 7 55 18l-129 129c-26-36-23-87 9-120l0 0z" horiz-adv-x="1000" />

<glyph glyph-name="garden-shears" unicode="&#xe822;" d="M477-150c-1 0-2 0-3 0l-54 17c-4 1-6 3-8 6-1 3-2 7 0 10l147 416-20 22c-2 3-3 6-3 10 1 3 2 6 5 8l16 13c9 8 13 19 10 30l-6 27-29 7c-11 2-22-2-29-10l-13-17c-2-2-6-4-9-4-3-1-7 0-9 3l-23 19-416-148c-3-1-6-1-9 1-3 2-6 4-7 7l-16 54c-2 7 1 14 8 16l429 138 0 0c0 0 0 0 0 0 0 0 0 0 0 0 0 0 0 0 0 0 1 1 2 1 2 1l87 14c7 1 15 3 21 7l75 40c47 80 108 182 138 221 52 69 100 90 102 91 5 2 10 1 14-3 3-4 4-10 2-14l-118-221 220 117c5 2 11 2 15-2 4-3 5-9 3-14-1-2-22-50-91-102-39-29-140-91-220-138l-39-74c-4-7-6-14-8-21l-14-87c0-1 0-3-1-4l-137-427c-2-6-7-9-12-9z m-38 37l30-9 130 405-18 4-142-400z m-411 430l9-30 400 143-4 17-405-130z m552-4l25-6 12 74c1 10 5 20 10 29l39 74c0 1 1 2 1 3l53 99c0 1 1 1 1 2l112 211c-15-12-33-31-52-56-47-61-178-289-197-323l8-32c4-20-3-42-19-55l-6-5 13-15z m-117 115l15-13 5 6c13 16 35 24 55 19l25-6c6 10 19 33 35 62l-38-21c-9-5-19-8-29-10l-74-12 6-25z m277 143l-30-57c72 43 151 91 183 116 25 19 43 37 56 52l-209-111z" horiz-adv-x="1000" />

<glyph glyph-name="hammer-tool" unicode="&#xe823;" d="M96-105c-13 0-25 5-34 14l-48 47c-9 10-14 22-14 35 0 13 5 25 14 34l577 577-123 124c-15 14-15 38 0 53l15 15c8 8 18 12 29 11l188-9c9-1 18-5 25-11l264-265c7-7 11-16 11-26 0-10-4-19-11-26l-105-106c-7-7-17-11-26-11s-20 4-27 11l-124 124-576-577c-10-9-22-14-35-14z m515 688l-577-577c-4-4-6-9-6-15 0-6 2-11 6-15l47-48c8-8 22-8 30 0l577 577-77 78z m-101 195c-3 0-5-1-7-3l-16-16c-4-4-4-10 0-14l364-363c3-4 10-4 13 0l106 105c2 2 3 4 3 7 0 3-1 5-3 7l-265 264c-1 2-4 3-6 3l-189 10c0 0 0 0 0 0z" horiz-adv-x="1000" />

<glyph glyph-name="hangar-entrance" unicode="&#xe824;" d="M988 94h-976c-7 0-12 5-12 12 0 276 224 500 500 500s500-224 500-500c0-7-5-12-12-12z m-23 24h11c-7 257-218 464-476 464s-469-207-476-464h12c6 251 212 453 464 453s458-202 465-453z m-382 0h357c-6 237-201 429-440 429s-434-192-440-429h357v238c0 6 6 12 12 12h142c6 0 12-6 12-12v-238z m-142 0h118v226h-118v-226z m330 178h-131c-6 0-12 5-12 12v48c0 6 6 12 12 12h131c6 0 12-6 12-12v-48c0-7-6-12-12-12z m-119 24h107v24h-107v-24z m-292-24h-131c-6 0-12 5-12 12v48c0 6 6 12 12 12h131c6 0 12-6 12-12v-48c0-7-6-12-12-12z m-118 24h106v24h-106v-24z" horiz-adv-x="1000" />

<glyph glyph-name="heater" unicode="&#xe825;" d="M786-129c-54 0-98 42-100 95h-29c-3-53-46-95-100-95s-97 42-100 95h-29c-2-53-46-95-99-95s-98 42-100 95h-29c-3-53-47-95-100-95-55 0-100 44-100 99v760c0 55 45 99 100 99s100-44 100-99v-17h29v17c0 55 44 99 100 99s99-44 99-99v-17h29v17c0 55 45 99 100 99s100-44 100-99v-17h29v17c0 55 45 99 100 99s100-44 100-99v-17h43c1 0 1 0 2 0 38-1 69-32 69-71 0-38-31-70-69-71-1 0-1 0-2 0h-43v-463h43c1 0 1 0 2 0 38-1 69-33 69-71s-31-70-69-71c-1 0-1 0-2 0h-44c-2-53-46-95-99-95z m-71 110v-11c0-38 32-70 71-70s70 32 70 70v760c0 38-32 70-70 70s-71-32-71-70v-749z m-228 0v-11c0-38 31-70 70-70s70 32 70 70v760c0 38-31 70-70 70s-70-32-70-70v-749z m-229 0v-11c0-38 32-70 71-70s70 32 70 70v760c0 38-32 70-70 70s-71-32-71-70v-749z m-158 819c-39 0-70-32-70-70v-760c0-38 31-70 70-70s70 32 70 70v760c0 38-31 70-70 70z m786-805h42c0 0 1 0 1 0 23 0 41 19 41 42s-18 41-41 41c0 0-1 0-1 0h-42v-83z m-229 0h29v83h-29v-83z m-229 0h29v83h-29v-83z m-228 0h29v83h-29v-83z m457 113h29v464h-29v-464z m-229 0h29v464h-29v-464z m-228 0h29v464h-29v-464z m686 493h42c0 0 1 0 1 0 23 0 41 19 41 41s-18 42-41 42c0 0-1 0-1 0h-42v-83z m-229 0h29v83h-29v-83z m-229 0h29v83h-29v-83z m-228 0h29v83h-29v-83z" horiz-adv-x="1000" />

<glyph glyph-name="high-voltage-bolt" unicode="&#xe826;" d="M872-100h-743c-47 0-88 24-112 64-23 40-23 88 0 128l372 644c23 40 65 64 111 64 46 0 88-24 111-64l372-644c23-40 23-88 0-128-24-40-65-64-111-64z m-372 874c-37 0-70-19-89-51l-371-643c-19-32-19-71 0-103s51-51 89-51h743c37 0 70 19 88 51 19 32 19 71 0 103l-371 643c-19 32-52 51-89 51z m352-824h-703c-33 0-63 17-79 45-16 29-16 63 0 91l352 609c16 28 45 45 78 45s62-17 79-45l351-609c16-28 16-62 0-91-16-28-46-45-78-45z m-352 765c-23 0-44-13-56-33l-352-609c-11-20-11-44 0-65 12-20 33-32 57-32h703c23 0 44 12 56 32 12 21 12 45 0 65l-352 609c-11 20-32 33-56 33z m-108-693c-2 0-4 0-6 1-6 3-9 10-7 16l76 223h-102c-4 0-8 3-10 6-3 4-3 9-1 13l119 250c2 5 7 8 12 8h85c5 0 9-3 11-6 3-4 3-9 1-13l-73-160h109c5 0 9-3 12-7 2-4 1-9-1-13l-215-313c-2-3-6-5-10-5z m-18 266h99c4 0 8-2 10-5 2-4 3-8 2-12l-52-153 149 216h-105c-4 0-8 2-10 6-3 4-3 8-1 12l73 161h-58l-107-225z" horiz-adv-x="1000" />

<glyph glyph-name="holding-key" unicode="&#xe827;" d="M528-83c-12 0-24 2-35 7l-221 98c-29 13-62 11-88-6l-63-39c-6-4-14-2-18 4-4 6-2 14 4 18l63 40c34 21 76 24 112 8l222-98c18-8 39-7 56 4l402 256c11 7 15 21 8 32l-14 26c-3 5-9 9-15 11-6 1-12 1-18-3l-27-16c-11-7-27-3-34 8l-17 24c-7 11-22 14-32 7l-40-26c-11-7-27-4-34 7l-14 20c-8 10-22 13-33 6l-98-67h41c43 0 77-35 77-77s-34-78-77-78h-151c-15 0-31 4-44 11l-86 42c-7 4-10 11-6 18 3 7 11 9 17 6l86-42c10-5 22-8 33-8h151c28 0 51 23 51 51 0 27-23 50-51 50h-84c0 0 0 0 0 0l-84 1c-2 0-5 1-7 2l-137 79c-48 28-106 30-155 7l-149-71c-7-3-15 0-18 6-3 7 0 15 7 18l149 71c57 27 124 24 179-8l135-77 76-1 130 89c23 15 54 9 70-13l13-19 38 25c23 15 53 9 69-14l16-23 26 15c12 7 26 9 39 6 13-4 24-12 31-24l15-26c13-24 5-53-17-68l-402-255c-15-9-31-14-47-14z m145 529c-67 0-126 38-154 99h-39c-4 0-7 1-10 4l-9 9-10-9c-2-3-5-4-9-4h-35c-3 0-7 1-9 4l-6 5-5-5c-3-3-6-4-10-4h-37c-4 0-7 1-10 4l-24 24-25-24c-2-3-6-4-9-4h-11c-4 0-7 1-9 4l-7 6-7-6c-2-3-6-4-9-4h-54c-4 0-8 2-11 5l-13 16c-2 2-3 5-3 8v71c0 4 2 8 5 10l31 26c2 2 5 3 9 3h326c28 60 87 99 154 99 93 0 169-76 169-169 0-93-76-168-169-168z m-188 125h43c6 0 11-3 13-8 21-55 73-91 132-91 78 0 142 64 142 142s-64 142-142 142c-59 0-111-35-132-90-2-5-7-9-13-9h-331l-10-8h336c8 0 14-6 14-13s-6-14-14-14h-349v-43l7-8h42l12 13c3 2 6 3 10 3l0 0c3 0 7-1 9-3l12-12 30 30c3 2 6 4 10 4l0 0c3 0 7-2 9-4l30-31h27l11 11c2 3 6 4 9 4l0 0c4 0 7-1 10-4l11-11h23l15 15c6 6 14 6 19 0l15-15z m264 0c-24 0-43 20-43 43 0 24 19 43 43 43s43-19 43-43c0-23-20-43-43-43z m0 60c-9 0-17-8-17-17 0-9 8-16 17-16 9 0 16 7 16 16 0 9-7 17-16 17z" horiz-adv-x="1000" />

<glyph glyph-name="home-building" unicode="&#xe828;" d="M608-150h-214c0 0-1 0-1 0h-343c-8 0-15 7-15 15v899c0 8 7 15 15 15h20v56c0 8 7 15 15 15h830c9 0 15-7 15-15v-56h20c9 0 15-7 15-15v-899c0-8-6-15-15-15h-341c0 0 0 0-1 0z m16 31h311v867h-870v-867h314v284c0 8 6 15 15 15h214c9 0 16-7 16-15v-284z m-215 0h184v268h-184v-268z m-309 898h800v40h-800v-40z m789-800h-214c-9 0-15 7-15 15v172c0 8 6 15 15 15h214c9 0 16-7 16-15v-172c0-8-7-15-16-15z m-199 31h184v79h-184v-79z m0 109h184v31h-184v-31z m-363-140h-214c-9 0-15 7-15 15v172c0 8 6 15 15 15h214c9 0 16-7 16-15v-172c0-8-7-15-16-15z m-199 31h184v79h-184v-79z m0 109h184v31h-184v-31z m761 128h-214c-9 0-15 7-15 16v170c0 9 6 16 15 16h214c9 0 16-7 16-16v-170c0-9-7-16-16-16z m-199 31h184v80h-184v-80z m0 111h184v29h-184v-29z m-82-142h-214c-9 0-15 7-15 16v170c0 9 6 16 15 16h214c9 0 16-7 16-16v-170c0-9-7-16-16-16z m-199 31h184v80h-184v-80z m0 111h184v29h-184v-29z m-82-142h-214c-9 0-15 7-15 16v170c0 9 6 16 15 16h214c9 0 16-7 16-16v-170c0-9-7-16-16-16z m-199 31h184v80h-184v-80z m0 111h184v29h-184v-29z m761 126h-214c-9 0-15 7-15 16v170c0 9 6 16 15 16h214c9 0 16-7 16-16v-170c0-9-7-16-16-16z m-199 31h184v81h-184v-81z m0 111h184v29h-184v-29z m-82-142h-214c-9 0-15 7-15 16v170c0 9 6 16 15 16h214c9 0 16-7 16-16v-170c0-9-7-16-16-16z m-199 31h184v81h-184v-81z m0 111h184v29h-184v-29z m-82-142h-214c-9 0-15 7-15 16v170c0 9 6 16 15 16h214c9 0 16-7 16-16v-170c0-9-7-16-16-16z m-199 31h184v81h-184v-81z m0 111h184v29h-184v-29z" horiz-adv-x="1000" />

<glyph glyph-name="home-key" unicode="&#xe829;" d="M887-150h-774c-8 0-14 6-14 14v493h-83c-6 0-11 4-13 9s-1 12 3 16l484 464c6 5 14 5 20 0l483-463c3-2 5-7 5-11 0-8-6-15-14-15 0 0 0 0 0 0h-83v-493c0-8-6-14-14-14z m-759 29h744v493c0 8 7 14 15 14h61l-448 430-448-430h61c8 0 15-6 15-14v-493z m177 49c0 0 0 0-1 0l-21 2c-3 0-6 1-8 4l-49 49c-3 3-5 7-4 11l3 40c1 3 2 6 5 9l226 226c-23 61-9 129 38 176 31 31 73 48 118 48 44 0 86-17 118-48 65-65 65-171 0-236-32-32-74-49-118-49-20 0-39 3-58 10l-27-27c-3-2-6-4-10-4h-12v-12c0-3-1-7-4-10l-24-24c-3-3-7-4-10-4h-7v-6c0-4-1-8-4-11l-26-26c-3-2-6-4-10-4h-33v-33c0-3-1-7-4-10l-8-7c-2-3-6-5-10-5h-8v-7c0-4-1-8-4-11l-37-37c-3-3-7-4-11-4z m-14 30l9-1 29 29v16c0 8 6 14 14 14h15v41c0 8 7 14 15 14h41l17 18v14c0 8 7 15 15 15h15l15 15v20c0 8 7 15 15 15h20l29 29c5 5 11 6 16 3 18-7 37-11 56-11 37 0 71 14 97 40 54 54 54 141 0 195-26 26-60 40-97 40-37 0-72-14-98-40-40-40-51-100-28-153 2-5 1-12-3-16l-229-229-3-28 40-40z m362 350c-14 0-26 5-35 15-10 9-15 21-15 35s5 25 15 35c9 9 21 14 35 14 13 0 25-5 35-14s14-22 14-35-5-26-14-35-22-15-35-15z m0 70c-6 0-11-2-15-6-8-8-8-21 0-29 8-8 22-8 29 0 8 8 8 21 0 29-4 4-9 6-14 6z" horiz-adv-x="1000" />

<glyph glyph-name="home-phone" unicode="&#xe82a;" d="M181-150h-2c-82 0-149 66-149 148v704c0 82 67 148 149 148h2c61 0 112-36 136-88h506c81 0 147-65 147-146v-523c0-86-70-155-156-155h-497c-24-52-75-88-136-88z m-2 969c-65 0-118-52-118-117v-704c0-65 53-117 118-117h2c65 0 118 52 118 117v704c0 65-53 117-118 117h-2z m151-851h484c69 0 125 56 125 125v523c0 64-52 116-116 116h-493v-764z m430 126c-28 0-50 23-50 51s22 50 50 50 51-22 51-50-23-51-51-51z m0 70c-11 0-19-8-19-19s8-20 19-20 20 9 20 20-9 19-20 19z m-126-70c-27 0-50 23-50 51s23 50 50 50 51-22 51-50-23-51-51-51z m0 70c-10 0-19-8-19-19s9-20 19-20 20 9 20 20-9 19-20 19z m-126-70c-27 0-50 23-50 51s23 50 50 50 51-22 51-50-23-51-51-51z m0 70c-10 0-19-8-19-19s9-20 19-20 20 9 20 20-9 19-20 19z m252 56c-28 0-50 22-50 50s22 50 50 50 51-22 51-50-23-50-51-50z m0 70c-11 0-19-9-19-20s8-20 19-20 20 9 20 20-9 20-20 20z m-126-70c-27 0-50 22-50 50s23 50 50 50 51-22 51-50-23-50-51-50z m0 70c-10 0-19-9-19-20s9-20 19-20 20 9 20 20-9 20-20 20z m-126-70c-27 0-50 22-50 50s23 50 50 50 51-22 51-50-23-50-51-50z m0 70c-10 0-19-9-19-20s9-20 19-20 20 9 20 20-9 20-20 20z m252 55c-28 0-50 22-50 50s22 50 50 50 51-22 51-50-23-50-51-50z m0 70c-11 0-19-9-19-20s8-20 19-20 20 9 20 20-9 20-20 20z m-126-70c-27 0-50 22-50 50s23 50 50 50 51-22 51-50-23-50-51-50z m0 70c-10 0-19-9-19-20s9-20 19-20 20 9 20 20-9 20-20 20z m-126-70c-27 0-50 22-50 50s23 50 50 50 51-22 51-50-23-50-51-50z m0 70c-10 0-19-9-19-20s9-20 19-20 20 9 20 20-9 20-20 20z m361 130h-469c-9 0-15 6-15 15v98c0 9 6 16 15 16h415c38 0 69-31 69-70v-44c0-9-7-15-15-15z m-454 30h438v29c0 22-17 39-38 39h-400v-68z" horiz-adv-x="1000" />

<glyph glyph-name="hotel-elevator" unicode="&#xe82b;" d="M955-150h-910c-8 0-14 6-14 14v972c0 8 6 14 14 14h910c8 0 14-6 14-14v-972c0-8-6-14-14-14z m-155 27h142v946h-883v-946h141v817c0 8 6 14 14 14h573c7 0 13-6 13-14v-817z m-286 0h259v804h-259v-804z m-287 0h259v804h-259v-804z m-54 298h-83c-7 0-13 6-13 13v143c0 8 6 14 13 14h83c8 0 14-6 14-14v-143c0-7-6-13-14-13z m-69 27h55v116h-55v-116z m28 15c-8 0-14 6-14 14v1c0 8 6 14 14 14s13-6 13-14v-1c0-8-6-14-13-14z m0 59c-8 0-14 6-14 14v1c0 7 6 13 14 13s13-6 13-13v-1c0-8-6-14-13-14z m658 477h-1c-8 0-14 6-14 13s6 14 14 14h1c7 0 13-6 13-14s-6-13-13-13z m-76 0h-1c-7 0-13 6-13 13s6 14 13 14h1c8 0 14-6 14-14s-6-13-14-13z m-71 0h-1c-8 0-14 6-14 13s6 14 14 14h1c7 0 13-6 13-14s-6-13-13-13z m-72 0h-1c-7 0-13 6-13 13s6 14 13 14h1c8 0 14-6 14-14s-6-13-14-13z m-71 0h-1c-7 0-14 6-14 13s7 14 14 14h1c8 0 14-6 14-14s-6-13-14-13z m-71 0h-1c-8 0-14 6-14 13s6 14 14 14h1c7 0 13-6 13-14s-6-13-13-13z m-71 0h-2c-7 0-13 6-13 13s6 14 13 14h2c7 0 13-6 13-14s-6-13-13-13z m-72 0h-1c-8 0-14 6-14 13s6 14 14 14h1c8 0 14-6 14-14s-6-13-14-13z m-71 0h-1c-8 0-14 6-14 13s6 14 14 14h1c8 0 14-6 14-14s-6-13-14-13z" horiz-adv-x="1000" />

<glyph glyph-name="hotel-entrance" unicode="&#xe82c;" d="M504-150c-139 0-196 30-219 55-16 18-17 35-17 39v76h-238c-7 0-12 5-12 12s5 12 12 12h250c7 0 12-5 12-12v-89c0 0 0 0 0-1 0 0 0-10 12-22 17-17 65-46 200-46 134 0 182 29 199 46 12 12 12 22 12 23 0 0 0 0 0 0v89c0 7 5 12 12 12h243c7 0 12-5 12-12s-5-12-12-12h-231v-76c0-4 0-21-17-39-23-25-80-55-218-55z m-4 54c-14 0-132 1-132 43 0 12 10 21 24 27-4 3-9 5-14 6-35 9-57 1-58 0-6-2-13 1-15 8-2 6 1 13 7 15 1 0 29 11 71 0 17-4 29-11 38-20 10 2 19 4 29 5-3 12-8 24-14 32-19 21-38 22-39 22-6 1-11 6-11 13 1 7 6 12 13 11 1 0 29-2 55-30 10-12 17-30 20-46 5 0 10 0 14 0v80c0 7 5 12 12 12s12-5 12-12v-80c4 0 8 0 14 0 3 16 9 34 20 46 25 28 54 30 55 30 6 1 12-5 12-11 1-7-4-12-11-13-1 0-20-1-38-22-7-8-11-20-14-32 9-2 19-3 29-5 9 8 21 16 38 20 42 11 70 0 71 0 6-2 10-9 7-16-2-6-9-9-15-7 0 1-23 9-58 0-5-1-10-3-15-6 15-6 25-15 25-27 0-42-119-43-132-43z m-108 43c8-7 47-19 108-19 60 0 99 12 107 19-3 3-10 6-21 9-5-7-7-13-8-13-2-6-9-9-15-7-6 2-9 9-7 16 0 0 2 4 5 10-5 1-10 1-15 2-1-7-1-13-1-17 0-6-5-12-12-12s-12 6-12 12c0 2 0 9 1 19-3 0-7 0-10 0v-19c0-6-6-12-12-12s-12 6-12 12v19c-4 0-7 0-10 0 1-10 1-17 1-19 0-6-6-12-12-12 0 0 0 0 0 0-7 0-12 6-12 12 0 4-1 10-1 17-6-1-11-1-15-2 3-6 5-10 5-10 3-7-1-14-7-16-6-2-13 1-15 7-1 0-3 6-9 13-10-3-18-6-21-9z m527 141h-838c-7 0-12 5-12 12v439c0 2 1 4 1 5 2 3 40 74 117 74h77v99c0 7 6 12 12 12h448c6 0 12-5 12-12v-99h77c77 0 115-71 117-74 1-1 1-3 1-5v-439c0-7-5-12-12-12z m-183 24h171v424c-7 11-39 58-94 58h-77v-482z m-448 0h424v75h-424v-75z m-195 0h171v482h-77c-55 0-87-47-94-58v-424z m582 99h37v29h-37v-29z m-66 0h42v29h-42v-29z m-66 0h42v29h-42v-29z m-66 0h42v29h-42v-29z m-66 0h42v29h-42v-29z m-66 0h42v29h-42v-29z m-57 0h33v29h-33v-29z m0 53h424v59h-424v-59z m387 83h37v28h-37v-28z m-66 0h42v28h-42v-28z m-66 0h42v28h-42v-28z m-66 0h42v28h-42v-28z m-66 0h42v28h-42v-28z m-66 0h42v28h-42v-28z m-57 0h33v28h-33v-28z m375 52h49v59h-424v-59h375z m12 84h37v28h-37v-28z m-66 0h42v28h-42v-28z m-66 0h42v28h-42v-28z m-66 0h42v28h-42v-28z m-66 0h42v28h-42v-28z m-66 0h42v28h-42v-28z m-57 0h33v28h-33v-28z m375 52h49v59h-424v-59h375z m12 83h37v29h-37v-29z m-66 0h42v29h-42v-29z m-66 0h42v29h-42v-29z m-66 0h42v29h-42v-29z m-66 0h42v29h-42v-29z m-66 0h42v29h-42v-29z m-57 0h33v29h-33v-29z m0 53h424v34h-424v-34z m402 74h-46c-7 0-12 6-12 12v81c0 7 5 12 12 12s12-5 12-12v-69h34c6 0 12-5 12-12s-6-12-12-12z m-75 0h-46c-7 0-12 6-12 12v81l0 0c0 0 0 0 0 0 0 7 5 12 12 12h46c6 0 12-5 12-12s-6-12-12-12h-34v-17h19c6 0 12-6 12-12s-6-12-12-12h-19v-16h34c6 0 12-5 12-12s-6-12-12-12z m-103 0c-7 0-12 6-12 12v69h-17c-7 0-12 5-12 12s5 12 12 12h58c6 0 12-5 12-12s-6-12-12-12h-17v-69c0-6-6-12-12-12z m-144 0c-7 0-12 6-12 12v29h-34v-29c0-6-5-12-12-12s-12 6-12 12v81c0 7 6 12 12 12s12-5 12-12v-28h34v28c0 7 5 12 12 12s12-5 12-12v-81c0-6-5-12-12-12z m64 4c-27 0-49 22-49 49s22 49 49 49 49-22 49-49-22-49-49-49z m0 74c-14 0-25-12-25-25s11-25 25-25 25 11 25 25-11 25-25 25z" horiz-adv-x="1000" />

<glyph glyph-name="hotel-road-sign" unicode="&#xe82d;" d="M523-150h-111c-8 0-15 7-15 16v499h-307c-8 0-15 7-15 15v394c0 8 7 15 15 15h307v45c0 9 7 16 15 16h111c9 0 16-7 16-16v-45h263c5 0 11-3 13-8l108-196c3-5 3-11 0-15l-108-197c-2-5-8-8-13-8h-263v-499c0-9-7-16-16-16z m-95 31h80v484h-80v-484z m-322 515h686l100 181-100 181h-686v-362z m322 393h80v30h-80v-30z m332-288h-69c-9 0-16 7-16 16v121c0 8 7 15 16 15s16-7 16-15v-106h53c8 0 15-7 15-15s-7-16-15-16z m-113 0h-69c-8 0-15 7-15 16v121c0 8 7 15 15 15h69c9 0 16-7 16-15s-7-16-16-16h-53v-31h30c9 0 16-7 16-16s-7-15-16-15h-30v-28h53c9 0 16-7 16-15s-7-16-16-16z m-154 0c-9 0-16 7-16 16v105h-28c-8 0-15 7-15 16s7 15 15 15h87c9 0 16-7 16-15s-7-16-16-16h-28v-105c0-9-7-16-15-16z m-216 0c-9 0-16 7-16 16v44h-55v-44c0-9-7-16-16-16s-16 7-16 16v60c0 0 0 0 0 0s0 0 0 0v61c0 8 7 15 16 15s16-7 16-15v-45h55v45c0 8 7 15 16 15s15-7 15-15v-121c0-9-7-16-15-16z m96 5c-39 0-71 32-71 71 0 39 32 71 71 71s71-32 71-71c0-39-32-71-71-71z m0 111c-22 0-40-18-40-40 0-22 18-40 40-40 22 0 40 18 40 40 0 22-18 40-40 40z" horiz-adv-x="1000" />

<glyph glyph-name="hourglass-with-arrow" unicode="&#xe82e;" d="M827-150h-654c-7 0-13 6-13 13v50c0 8 6 14 13 14h38c-1 12-2 25-2 37 0 166 101 310 237 340v92c-136 30-237 174-237 340 0 12 1 25 2 37h-38c-7 0-13 6-13 14v50c0 7 6 13 13 13h654c7 0 13-6 13-13v-50c0-8-6-14-13-14h-38c1-12 2-25 2-37 0-166-101-310-237-340v-92c136-30 237-174 237-340 0-12-1-25-2-37h38c7 0 13-6 13-14v-50c0-7-6-13-13-13z m-640 27h626v23h-626v-23z m51 50h525c1 12 1 25 1 37 0 51-10 99-28 143-2-1-4-2-6-2h-460c-2 0-4 1-6 2-18-44-28-92-28-143 0-12 0-25 2-37z m38 205h449c-41 78-108 134-187 148-6 1-11 7-11 13v113l-17-17c-5-5-13-5-18 0l-19 19c0 0 0-1 0-1v-114c0-6-5-12-11-13-79-14-146-70-186-148z m141 364c3 0 7-1 9-4l75-75 110 110-75 75c-3 3-5 7-4 11l-115-2-2-115c0 0 1 0 2 0z m-179 277c-2-12-2-25-2-37 0-157 96-292 224-316l-43 44-7-7c-4-4-9-5-14-3-5 3-9 7-8 13l3 157c0 7 6 13 13 13l157 3c5 1 10-3 13-8s1-10-3-14l-7-7 75-75c5-5 5-13 0-19l-97-96c127 25 222 159 222 315 0 12 0 25-1 37h-525z m-51 27h626v23h-626v-23z" horiz-adv-x="1000" />

<glyph glyph-name="house-exchange" unicode="&#xe82f;" d="M503-125c-189 0-360 112-436 285-3 7 1 15 7 18 7 3 15 0 18-7 72-164 233-269 411-269 248 0 449 201 449 448v1c0 8 6 14 13 14s14-6 14-14v-1c0-262-213-475-476-475z m-462 461c-7 0-13 6-13 14v0c0 262 213 475 475 475 189 0 360-111 436-285 3-6 0-14-7-17-7-3-15 0-18 7-71 163-232 268-411 268-247 0-448-201-448-448v0c0-8-6-14-14-14z m-27-198c-4 0-7 1-9 3-4 3-6 9-4 14l29 102c1 4 4 7 8 9s8 1 11-1l94-50c5-2 8-7 8-12-1-5-4-10-9-12l-123-52c-2-1-4-1-5-1z m37 96l-17-60 72 31-55 29z m910 210c-2 0-4 1-6 2l-96 46c-4 2-7 7-7 12 0 5 3 10 7 12l122 57c5 2 10 2 14-2s6-8 5-13l-26-104c-1-3-4-7-7-8-2-1-4-2-6-2z m-65 60l56-27 15 60-71-33z m-162-426h-468c-8 0-14 6-14 14v294h-45c-5 0-10 3-12 8-2 5-1 11 3 15l293 281c5 5 13 5 18 0l293-281c4-4 5-10 3-15-2-5-7-8-12-8h-45v-294c0-8-6-14-14-14z m-455 27h442v294c0 7 6 14 13 14h25l-259 248-259-248h25c7 0 13-7 13-14v-294z m303 84h-164c-8 0-14 6-14 13v170c0 8 6 14 14 14h164c8 0 14-6 14-14v-170c0-7-6-13-14-13z m-151 27h138v143h-138v-143z" horiz-adv-x="1000" />

<glyph glyph-name="house-plan-board" unicode="&#xe830;" d="M717-150c-6 0-12 4-13 10l-15 77h-176v-74c0-7-6-13-13-13s-13 6-13 13v74h-176l-15-77c-2-7-8-11-15-10-7 2-11 8-10 15l17 87c0 0 1 0 1 0l35 175h-78c-7 0-13 6-13 13v47h-100c-7 0-13 6-13 13v478c0 7 6 13 13 13h260v38c0 7 5 12 12 12h82v96c0 7 6 13 13 13s13-6 13-13v-96h83c7 0 13-5 13-12v-38h258c7 0 13-6 13-13v-478c0-7-6-13-13-13h-100v-47c0-7-6-13-13-13h-78l36-175c0 0 0 0 0 0l17-87c2-7-3-13-10-15-1 0-1 0-2 0z m-204 112h171l-34 165h-137v-165z m-197 0h171v165h-137l-34-165z m345 190h80v35h-482v-35h80c0 0 0 0 0 0h322c0 0 0 0 0 0z m93 60h100v453h-708v-453h608z m-336 479h166v25h-166v-25z m111-436h-195c-7 0-12 6-12 13v346c0 7 5 12 12 12h341c7 0 13-5 13-12v-207c0-7-6-13-13-13h-133v-126c0-7-6-13-13-13z m-182 26h170v114h-170v-114z m279 139h37v78h-37v-78z m-94 0h68v181h-143v-181h72c1 0 2 0 3 0z m-185 0h85v112h-85v-112z m279 103h37v78h-37v-78z m-279 34h85v44h-85v-44z" horiz-adv-x="1000" />

<glyph glyph-name="house-plans" unicode="&#xe831;" d="M986-91h-972c-8 0-14 7-14 15v852c0 8 6 15 14 15h872c8 0 14-7 14-15v-425h86c8 0 14-6 14-14v-413c0-8-6-15-14-15z m-724 29h709v385h-297c-8 0-14 6-14 14v28h-36c-8 0-14 6-14 14s6 14 14 14h36v93c0 8 6 15 14 15s15-7 15-15v-135h83v411h-83v-105c0-8-7-15-15-15s-14 7-14 15v44h-226c-8 0-14 6-14 14v47h-53v-67c0-8-6-14-14-14s-15 6-15 14v67h-15v-37c0-8-7-15-15-15h-4c3-6 4-12 4-19v-37c0-27-21-48-48-48-26 0-48 21-48 48v37c0 7 2 13 4 19h-4c-8 0-15 7-15 15v37h-52v-191c0-7-6-14-14-14h-19v-81h226v67c0 8 7 14 15 14s14-6 14-14v-150h36c8 0 14-6 14-14s-6-14-14-14h-36v-71c0-8-6-14-14-14s-15 6-15 14v154h-205v-413h114c8 0 15-6 15-14v-83z m-233 0h204v68h-114c-8 0-15 7-15 15v250h-75v-333z m0 361h75v149h-75v-149z m822 52h21v411h-21v-411z m-50 0h21v411h-21v-411z m-772 130h54v76h-54v-76z m69 105h18v176h-87v-176h69z m162 124c-10 0-19-8-19-19v-37c0-11 9-19 19-19s19 8 19 19v37c0 11-8 19-19 19z m188 20h212v32h-212v-32z m-188 9h34v23h-68v-23h34z m315-758h-116c-8 0-14 6-14 14v264c0 8 6 14 14 14h116c7 0 14-6 14-14v-264c0-8-7-14-14-14z m-101 29h86v14h-51c-8 0-14 6-14 14v178c0 7 6 14 14 14h51v14h-86v-234z m50 43h36v148h-36v-148z m362-64c-8 0-14 7-14 15v247c0 8 6 14 14 14s14-6 14-14v-45c8 0 14-6 14-14v-129c0-8-6-14-14-14v-45c0-8-6-15-14-15z m-138 18c-46 0-82 49-82 112s36 112 82 112 81-49 81-112-36-112-81-112z m0 195c-29 0-53-38-53-83s24-83 53-83 52 38 52 83-24 83-52 83z" horiz-adv-x="1000" />

<glyph glyph-name="house-plan-scale" unicode="&#xe832;" d="M948-139c-4 0-9 1-12 5-6 6-6 16 0 23l7 7h-751l7-7c7-7 7-17 0-23-6-7-17-7-23 0l-35 35c-3 3-5 7-5 11 0 0 0 1 0 1 0 5 3 10 7 13l34 34c6 6 17 6 23 0 6-7 6-17 0-24l-7-7h751l-7 7c-6 7-6 17 0 24 6 6 17 6 23 0l35-35c4-4 5-8 5-12 0 0 0 0 0 0 0-6-3-11-7-14l-34-33c-3-4-7-5-11-5z m-896 114c-6 0-11 3-14 7l-33 34c-7 6-7 17 0 23 6 7 17 7 23 0l7-7v751l-7-7c-6-6-17-6-23 0-7 7-7 17 0 23l35 35c3 4 7 5 12 5 6 0 11-3 14-7l33-33c6-7 6-17 0-24-7-6-17-6-23 0l-8 8v-752l8 7c6 7 16 7 23 0 6-6 6-17 0-23l-35-35c-3-3-8-5-12-5 0 0 0 0 0 0z m932 47h-796c-9 0-16 7-16 16v785c0 9 7 16 16 16h476c9 0 16-7 16-16v-320h304c9 0 16-7 16-16v-449c0-9-7-16-16-16z m-305 33h288v415h-288v-415z m-315 0h282v220h-282v-220z m-159 0h126v220h-126v-220z m143 253h298v179c0 2 1 3 1 5v172h-442v-356h143z m94 388h205v110h-205v-110z m-237 0h204v110h-204v-110z" horiz-adv-x="1000" />

<glyph glyph-name="house-price" unicode="&#xe833;" d="M886-150h-772c-8 0-16 7-16 16v490h-80c-7 0-12 4-15 10-2 6-1 13 4 17l482 463c6 6 16 6 22 0l482-463c5-4 6-11 4-17-2-6-8-10-15-10h-80v-490c0-9-7-16-16-16z m-756 32h740v490c0 9 7 16 16 16h56l-442 424-442-424h56c9 0 16-7 16-16v-490z m208 121c-4 0-7 2-10 4-7 5-8 15-3 22l300 391c5 7 15 8 22 3 7-6 9-16 3-23l-300-390c-3-4-7-7-12-7z m278 7c-57 0-103 46-103 103s46 103 103 103 103-47 103-103-46-103-103-103z m0 173c-39 0-71-31-71-70s32-71 71-71 71 32 71 71-32 70-71 70z m-241 44c-57 0-103 46-103 103s46 102 103 102 103-46 103-102-46-103-103-103z m0 173c-39 0-71-32-71-70s32-71 71-71 71 32 71 71-32 70-71 70z" horiz-adv-x="1000" />

<glyph glyph-name="house-search" unicode="&#xe834;" d="M64-139c0 0 0 0 0 0-4 0-7 2-9 4l-51 53c-5 5-5 13 0 19l276 267c-116 158-101 382 44 522 76 74 177 114 284 113 106-2 205-45 280-121s114-178 112-284c-2-107-45-206-121-280-77-74-177-114-284-113-91 2-177 34-247 91l-275-267c-2-2-5-4-9-4z m-32 66l32-33 264 255-32 33-264-255z m569 885c-93 0-186-35-259-105-147-143-150-379-8-526 70-71 162-111 262-113 99-1 193 36 264 105 72 69 112 162 113 261 2 100-35 194-105 265-72 75-170 113-267 113z m144-566h-288c-7 0-13 6-13 13v176h-23c-5 0-10 3-12 8-2 5-1 11 3 15l180 172c5 5 13 5 19 0l180-172c4-4 5-10 3-15-2-5-7-8-13-8h-22v-176c0-7-6-13-14-13z m-274 27h261v175c0 7 6 13 13 13h3l-147 141-146-141h2c8 0 14-6 14-13v-175z m-168 237c-2 0-3 0-4 0-7 3-11 10-9 17 58 186 210 212 216 213 7 2 14-3 15-11 1-7-4-14-11-15l0 0c-6-1-142-25-195-195-1-6-7-9-12-9z" horiz-adv-x="1000" />

<glyph glyph-name="house-ventilation" unicode="&#xe835;" d="M887-150h-774c-8 0-14 6-14 15v492h-83c-5 0-11 4-13 9-2 6-1 12 3 16l484 464c6 5 14 5 20 0l483-463c3-2 5-7 5-11 0-8-6-15-14-15 0 0 0 0 0 0h-83v-492c0-9-6-15-14-15z m-759 29h744v493c0 8 7 14 15 14h60l-447 429-447-429h60c8 0 15-6 15-14v-493z m374 59c-159 0-287 129-287 287 0 158 128 287 285 288l2 0c158 0 287-129 287-288s-129-287-287-287z m-158 83c44-33 98-54 158-54s114 21 158 55c-14 3-29 10-44 22-20 16-40 39-53 61-16 29-18 52-6 67 5 7 16 15 36 15 30 0 72-17 103-41 16-13 28-27 34-41 19 36 30 77 30 120 0 124-87 227-204 253 6-12 10-27 10-48 0-51-24-125-65-125s-65 74-65 125c0 20 4 36 9 47-115-26-201-129-201-252 0-43 11-84 30-120 6 14 17 28 34 41 31 24 73 41 102 41 21 0 31-8 36-15 12-15 10-38-6-67-12-22-32-45-53-61-15-12-29-19-43-23z m249 136c-6 0-11-1-13-3-2-3-2-15 9-35 10-19 27-38 45-52 15-12 29-18 40-18h0c10 0 17 4 24 13 7 8 9 16 7 25-2 11-12 24-27 36-25 19-62 34-85 34z m-183 0c-23 0-59-15-84-34-16-12-25-25-27-36-2-9 0-17 6-25 7-9 15-13 24-13 12 0 25 6 40 18 18 14 35 33 46 52 11 20 11 32 8 35-1 2-6 3-13 3z m91 326l-1 0c-23 0-35-18-35-53 0-49 23-96 36-96s35 47 35 96c0 35-11 53-35 53l0 0z m0-314c-33 0-61 27-61 61s28 61 61 61c34 0 61-28 61-61s-27-61-61-61z m0 92c-17 0-31-14-31-31s14-32 31-32c18 0 32 14 32 32s-14 31-32 31z" horiz-adv-x="1000" />

<glyph glyph-name="incision-plan" unicode="&#xe836;" d="M887-150h-774c-8 0-14 6-14 15v492h-82c-6 0-12 4-14 9-2 6-1 12 3 16l484 464c6 5 14 5 20 0l484-464c4-4 5-10 3-16-2-5-7-9-13-9h-83v-492c0-9-6-15-14-15z m-213 29h198v219h-198v-219z m-374 0h345v219h-345v-219z m-82 0h53v17h-53v-17z m-90 0h61v219h-61v-219z m90 46h53v24h-53v-24z m0 54h53v24h-53v-24z m0 53h53v25h-53v-25z m0 54h53v12h-53v-12z m442 41h212v230h-257v-230h45z m-127 0h53v18h-53v-18z m-144 0h115v230h-115v-230z m-104 0h74v230h-231v-230h157z m248 47h53v27h-53v-27z m0 56h53v27h-53v-27z m0 56h53v28h-53v-28z m0 57h53v14h-53v-14z m354 43h60l-156 151v-151h96z m-287 0h162v178c0 0 0 0 0 0l-142 136h-240l-149-142v-172h369z m-487 0h89v144l-149-144h60z m297 343h180l-90 86-90-86z" horiz-adv-x="1000" />

<glyph glyph-name="industrial-plant" unicode="&#xe837;" d="M987-95h-974c-7 0-13 6-13 13v294c0 5 3 9 7 11l244 122c4 2 8 1 12-1s6-6 6-11v-101l225 113c4 2 9 1 13-1 3-2 6-6 6-11v-101l62 31v310c0 7 6 13 13 13h46c7 0 12-6 12-13v-274l60 30 10 454c1 7 6 12 13 12h110c7 0 12-5 12-12l12-498 119 60c4 2 8 1 12-1 4-2 6-6 6-11v-415c0-7-6-13-13-13z m-962 25h950v383l-226-113c-1 0-3-1-5-1-3 0-5 1-7 2-4 2-6 6-6 11v101l-92-46c0 0 0 0 0 0l-45-23c0 0 0 0 0 0l-88-44c-4-1-9-1-13 1-3 2-6 6-6 11v101l-225-113c-4-1-9-1-12 1-4 2-6 6-6 11v101l-219-109v-274z m719 416c2 0 4-1 6-2 4-2 6-6 6-11v-101l82 41-11 497h-86l-10-429 7 4c2 1 4 1 6 1 0 0 0 0 0 0z m-143 215v-285l20 10v275h-20z m-65-568h-48c-7 0-12 5-12 12v72c0 7 5 12 12 12h48c7 0 13-5 13-12v-72c0-7-6-12-13-12z m-35 25h23v46h-23v-46z m-67-25h-48c-7 0-12 5-12 12v72c0 7 5 12 12 12h48c7 0 13-5 13-12v-72c0-7-6-12-13-12z m-35 25h23v46h-23v-46z m-67-25h-48c-6 0-12 5-12 12v72c0 7 6 12 12 12h48c7 0 13-5 13-12v-72c0-7-6-12-13-12z m-35 25h23v46h-23v-46z m-66-25h-48c-7 0-13 5-13 12v72c0 7 6 12 13 12h48c7 0 12-5 12-12v-72c0-7-5-12-12-12z m-36 25h23v46h-23v-46z m-66-25h-48c-7 0-13 5-13 12v72c0 7 6 12 13 12h48c7 0 12-5 12-12v-72c0-7-5-12-12-12z m-36 25h23v46h-23v-46z" horiz-adv-x="1000" />

<glyph glyph-name="internet-store" unicode="&#xe838;" d="M976-150h-960c-9 0-15 7-15 15v87c0 8 6 15 15 15h17v527c-19 11-32 31-32 54v287c0 8 6 15 15 15h968c9 0 15-7 15-15v-287c0-26-16-49-40-57v-524h17c9 0 16-7 16-15v-87c0-8-7-15-16-15z m-945 30h930v56h-930v-56z m383 87h515v521c-9 2-17 5-24 10-10-7-22-11-34-11s-24 4-34 11c-10-7-21-11-33-11s-24 4-34 11c-10-7-22-11-34-11s-24 4-34 11c-10-7-21-11-33-11s-24 4-34 11c-10-7-22-11-34-11s-24 4-33 11c-10-7-22-11-34-11s-24 4-34 11c-10-7-22-11-34-11s-23 4-33 11c-10-7-22-11-34-11s-24 4-34 11c-10-7-21-11-34-11s-23 4-33 11c-10-7-22-11-34-11s-24 4-34 11c-10-7-21-11-33-11s-24 4-34 11c-10-7-22-11-34-11s-24 4-34 11c-9-7-20-10-31-11v-520h66v450c0 9 7 15 15 15h253c9 0 16-6 16-15v-450z m-253 0h222v435h-222v-435z m761 556c6-4 13-6 20-5 0 0 1 0 1 0 15 2 26 15 26 30v272h-47v-297z m-68 0c5-3 11-5 17-5 8 0 15 3 20 8v294h-37v-297z m-67 0c5-3 10-5 17-5 7 0 14 3 20 8v294h-37v-297z m-68 0c5-3 11-5 17-5 8 0 15 2 20 7v295h-37v-297z m-68 0c6-3 11-5 18-5 7 0 14 2 20 7v295h-38v-297z m-67 0c5-3 11-5 17-5 8 0 14 2 20 7v295h-37v-297z m-68 0c5-3 11-5 18-5 7 0 14 2 19 7v295h-37v-297z m-67 0c10-7 26-7 37 2v295h-37v-297z m-68 1c11-8 27-8 37 1v295h-37v-296z m-68 0c11-8 27-8 38 1v295h-38v-296z m-67 0c11-8 26-8 37 0v296h-37v-296z m-68 0c11-8 27-8 37 0v296h-37v-296z m-67 0c10-8 26-8 37 0v296h-37v-296z m-49-6c0 0 0 0 0 0 6 0 13 2 18 6v296h-49v-272c0-13 9-25 21-29 1 0 1 0 1 0 3-1 5-1 8-1 0 0 0 0 0 0 0 0 0 0 1 0 0 0 0 0 0 0 0 0 0 0 0 0z m797-407h-361c-8 0-15 7-15 15s7 15 15 15h17v276c0 9 7 15 15 15h297c9 0 15-6 15-15v-276h17c8 0 15-7 15-15s-7-15-15-15z m-314 30h267v261h-267v-261z" horiz-adv-x="1000" />

<glyph glyph-name="laundry-machine" unicode="&#xe839;" d="M879-150h-758c-33 0-59 26-59 59v882c0 33 26 59 59 59h758c33 0 59-26 59-59v-882c0-33-26-59-59-59z m-786 793v-734c0-16 12-28 28-28h758c16 0 28 12 28 28v734h-814z m0 31h814v117c0 16-12 28-28 28h-758c-16 0-28-12-28-28v-117z m407-666c-148 0-268 120-268 267s120 268 268 268 268-120 268-268-120-267-268-267z m0 504c-130 0-237-106-237-237s107-236 237-236c120 0 219 89 235 204h-43c-15-94-96-163-192-163-107 0-195 88-195 195 0 108 88 195 195 195 92 0 170-63 190-151h43c-21 110-117 193-233 193z m0-73c-90 0-164-73-164-164 0-90 74-164 164-164 79 0 146 56 161 132h-75c0 0 0 0-1 0h-1c-8 0-15 7-15 15v46c0 8 7 15 15 15h74c-19 71-83 120-158 120z m179-165h54v14h-132v-14h78c0 0 0 0 0 0z m-509 425c-25 0-46 21-46 46s21 46 46 46 46-21 46-46-21-46-46-46z m0 61c-8 0-15-7-15-15 0-8 7-15 15-15 8 0 15 7 15 15 0 8-7 15-15 15z m282-53h-56c-9 0-15 7-15 16s6 15 15 15h56c8 0 15-7 15-15s-7-16-15-16z m-123 0h-56c-8 0-15 7-15 16s7 15 15 15h56c9 0 15-7 15-15s-6-16-15-16z m123 47h-56c-9 0-15 7-15 16s6 15 15 15h56c8 0 15-7 15-15s-7-16-15-16z m-123 0h-56c-8 0-15 7-15 16s7 15 15 15h56c9 0 15-7 15-15s-6-16-15-16z" horiz-adv-x="1000" />

<glyph glyph-name="lawn-mowner" unicode="&#xe83a;" d="M912-69c-49 0-88 39-88 88 0 1 0 2 0 3h-411c-12-52-60-91-116-91-66 0-120 53-120 120 0 48 28 90 70 109l-40 152c0 0 0 0 0 0l-115 432h-79c-7 0-13 6-13 13s6 12 13 12h88c6 0 11-3 13-9l115-434 167-36 1 38-20 1c-6 1-11 6-11 13l0 71c0 0 0 1 0 1 2 29 27 51 56 49 1 0 1 0 1 0l300-46c29-3 50-28 49-56l0-45c0-4-2-7-4-10-3-2-6-3-10-3l-13 1 0-90 123-27c39-8 67-43 67-83 37-10 65-44 65-85 0-49-40-88-88-88z m-62 101c-1-5-1-9-1-13 0-35 28-63 63-63s63 28 63 63c0 31-23 57-53 62-1 0-1 0-1 0-4 1-7 1-9 1 0 0 0 0 0 0 0 0 0 0 0 0-30 0-55-21-62-50 0 0 0 0 0 0z m-586 108c-36-13-62-48-62-89 0-53 43-95 95-95 47 0 86 34 93 80 0 0 0 0 0 1 1 3 1 5 1 7 0 2 1 5 1 7 0 44-31 81-72 92-17 4-36 3-54-3 0 0-1 0-2 0z m153-92h411c12 34 44 58 82 59-2 27-21 50-48 55l0 0-626 137 35-131c18 4 38 4 55-1 52-13 91-60 91-116 0-1 0-2 0-3z m4 236l299-65-1 86-297 21-1-42z m-30 70l355-25 0 32c0 0 0 1 0 1 1 7-1 14-6 20s-12 9-19 9c0 0-1 0-1 0l-300 47c-15 0-27-11-29-25l0-59z m415-389h-382c-7 0-13 5-13 12s6 13 13 13h382c7 0 13-6 13-13s-6-12-13-12z m106 8c-26 0-46 20-46 46 0 25 20 46 46 46 25 0 46-21 46-46 0-25-21-46-46-46z m0 66c-12 0-21-9-21-20 0-11 9-21 21-21 11 0 20 10 20 21 0 11-9 20-20 20z m-615-44c-30 0-55 25-55 56s25 55 55 55 55-25 55-55-24-56-55-56z m0 86c-16 0-30-14-30-30s14-30 30-30 30 13 30 30-13 30-30 30z" horiz-adv-x="1000" />

<glyph glyph-name="letter-note" unicode="&#xe83b;" d="M923 10h-846c-42 0-77 35-77 77v526c0 42 35 77 77 77h846c43 0 77-35 77-77v-526c0-42-34-77-77-77z m-881 46c9-10 21-16 35-16h846c14 0 26 6 35 15l-377 277-72-52c-5-4-13-4-18 0l-72 52-377-276z m564 295l364-267c0 1 0 2 0 3v526c0 1 0 2 0 4l-364-266z m-576 264c0-1 0-1 0-2v-526c0-1 0-2 0-3l364 267-364 264z m11 29l459-334 458 335c-9 9-21 15-35 15h-846c-14 0-27-6-36-16z" horiz-adv-x="1000" />

<glyph glyph-name="light-bulb-and-filament" unicode="&#xe83c;" d="M569-150h-138c-7 0-12 4-14 10l-14 54h-21c-7 0-13 6-13 14v153c-2 10-17 90-50 152-17 31-38 66-56 97-15 24-27 45-34 58-2 3-3 7-5 10l-1 1c0 1 0 1 0 2-22 43-33 90-33 139 0 171 139 310 310 310s310-139 310-310c0-49-11-96-33-139 0-1 0-1 0-1l-1-2c-1-3-3-7-5-10-7-13-19-34-34-58-18-31-39-66-56-97-33-62-48-142-50-152v-153c0-8-6-14-13-14h-21l-14-54c-2-6-7-10-14-10z m-128 27h118l10 37h-138l10-37z m146 64h17v127h-208v-127h191z m-31 155h50c6 26 21 94 51 150 17 32 38 67 57 98 14 24 26 45 33 57 2 4 3 7 5 10l0 1c0 0 1 0 1 0 20 40 30 83 30 128 0 156-127 283-283 283s-283-127-283-283c0-45 10-88 31-128 0 0 0 0 0 0l0-1c2-3 3-6 5-10 7-12 19-33 33-57 19-31 40-66 57-98 30-56 46-124 51-150h50v223l-102 294c-1 4-1 8 1 12s6 6 10 6l92 13c0 0 1 0 2 0 0 0 0 0 0 0h106c0 0 0 0 0 0 1 0 2 0 2 0l92-13c4 0 8-3 10-6s2-8 1-12l-102-294v-223z m-85 0h58v225c0 1 0 1 0 1v12c0 10-9 18-19 18h-20c-10 0-19-8-19-18v-12c0 0 0 0 0-1v-225z m62 278c4-3 7-5 10-8l84 241-62 8-32-239c0-1 0-2 0-2z m-159 233l83-241c3 3 6 5 10 8 0 0 0 1 0 2l-32 239-61-8z m120-227h12l31 237h-74l31-237z" horiz-adv-x="1000" />

<glyph glyph-name="light-bulb-lamp" unicode="&#xe83d;" d="M500-150c-7 0-12 6-12 12v233c0 7 5 13 12 13s13-6 13-13v-233c0-6-6-12-13-12z m291 100c-4 0-7 1-10 4l-147 176c-5 6-4 13 1 18 5 4 13 4 18-2l148-176c4-5 3-13-2-17-2-2-5-3-8-3z m-582 0c-3 0-6 1-8 3-5 4-6 12-1 17l147 176c5 6 13 6 18 2 5-5 6-12 1-18l-147-176c-3-3-6-4-10-4z m291 215c-43 0-83 22-105 58h-209c-7 0-12 6-12 13 0 157 139 287 314 293v309c0 6 5 12 12 12s13-6 13-12v-309c174-6 313-136 313-293 0-7-5-13-12-13h-208c-23-36-63-58-106-58z m-74 58c18-21 45-33 74-33s56 12 74 33h-148z m172 25h203c-7 142-139 256-301 256s-294-114-301-256h399z m-310 112c-3 0-5 1-8 3-5 4-6 12-2 17 28 39 90 73 92 75 6 3 14 1 17-5 3-6 1-14-5-17 0 0-59-33-84-67-3-4-6-6-10-6z" horiz-adv-x="1000" />

<glyph glyph-name="loud-speaker" unicode="&#xe83e;" d="M939-54c-6 0-11 4-13 9 0 2-30 79-207 183-152 89-311 96-356 96-3 0-5 0-7 0-6-20-25-35-47-35h-31l31-185c2-9-1-18-6-25-6-7-14-10-23-10h-68c-15 0-27 10-29 25l-34 195h-43c-27 0-49 22-49 50v12h-20c-20 0-37 17-37 38v103c0 20 17 37 37 37h20v13c0 27 22 49 49 49h203c22 0 41-15 47-35 2 0 4 0 7 0 45 0 204 7 356 96 178 105 207 182 207 183 2 6 8 9 15 8 6-1 11-6 11-13v-274c27-5 48-30 48-59v-114c0-29-21-53-48-59v-274c0-7-5-12-11-13-1-1-2-1-2-1z m-763 253l33-191c0-2 1-3 3-3h68c1 0 2 1 2 1 1 1 1 2 1 3l-32 190h-75z m187 62c60 0 216-10 369-100 110-64 166-119 193-154v687c-27-36-83-90-193-155-153-90-309-99-369-99-2 0-3 0-5 0v-180c2 0 3 1 5 1z m-101-35h47c12 0 22 10 22 23v203c0 12-10 22-22 22h-203c-13 0-23-10-23-22v-203c0-13 10-23 23-23h156z m690 213v-177c13 5 21 17 21 31v114c0 14-8 27-21 32z m-915-27c-6 0-10-5-10-10v-103c0-6 4-11 10-11h20v124h-20z" horiz-adv-x="1000" />

<glyph glyph-name="mailbox-and-envelope" unicode="&#xe83f;" d="M292-150h-74c-7 0-13 6-13 13v589h-94c-7 0-12 6-12 13v251c0 7 5 13 12 13h94v53c0 7 6 13 13 13h74c7 0 13-6 13-13v-53h256v108c0 5 3 10 8 12 5 2 10 1 14-3l62-61c3-4 4-10 2-14-1-5-6-8-11-8l-49-1v-33h71c7 0 13-6 13-13v-43h149c0 0 1 0 1 0 0 0 0 0 0 0 2 0 3 0 5-1 1-1 3-2 4-3 1-1 1-1 1-2 0 0 0 0 0 0 0 0 0 0 0 0 1-1 1-1 1-2 0 0 0 0 0 0 0 0 0 0 0 0 0 0 0 0 0 0 0 0 0 0 0 0 0 0 0 0 0 0l0 0c1-1 1-2 1-3 0 0 0 0 0 0 0 0 0 0 0 0v0c0 0 0-1 0-2v-182h56c7 0 13-6 13-13s-6-13-13-13h-69c0 0 0 0 0 0h-515v-589c0-7-6-13-13-13z m-61 26h48v576h-48v-576z m440 602h109l-84 60-25-21v-39z m-547 0h521v44c0 1 0 1 0 1v180h-58v-168c0-7-6-13-13-13s-13 6-13 13v168h-437v-225z m592 77l92-65v143l-92-78z m-45 93v-98l15 14c1 0 1 0 1 0l98 84h-114z m-440 81h48v40h-48v-40z m356 77v-18l18 0-18 18z" horiz-adv-x="1000" />

<glyph glyph-name="map-locator" unicode="&#xe840;" d="M987-40h-974c-5 0-10 4-12 9-2 5-1 10 3 14l216 216c2 3 6 4 9 4h122c-52 89-90 205-90 293 0 152 89 244 239 244 150 0 239-92 239-244 0-81-28-185-74-273-6-10-11-19-16-28h130c3 0 7-1 9-4l208-208c4-4 5-9 3-14-2-5-7-9-12-9z m-941 27h908l-181 181h-141c-43-61-89-96-132-96-44 0-91 43-132 105h-133l-189-190z m341 209c39-61 81-97 113-97 43 0 96 51 141 137 44 84 71 183 71 260 0 138-77 217-212 217s-212-79-212-217c0-75 29-174 75-260 8-14 15-26 23-38 0 0 1-1 1-2z m113 157c-79 0-143 65-143 144s64 143 143 143c79 0 144-64 144-143s-65-144-144-144z m0 260c-64 0-117-52-117-116s53-117 117-117 117 52 117 117-53 116-117 116z" horiz-adv-x="1000" />

<glyph glyph-name="map-point" unicode="&#xe841;" d="M500-150c-43 0-79 26-92 67l-21 68c-31 97-83 187-155 267-59 67-91 152-91 241 1 96 38 186 105 253 68 67 158 104 254 104 198 0 359-161 359-359 0-91-34-178-96-244-67-72-118-161-150-262l-21-68c-13-41-49-67-92-67z m0 970c-183 0-328-144-329-327 0-82 29-160 84-221 75-84 129-177 161-278l21-68c11-34 40-46 63-46 23 0 52 12 63 46l22 68c33 106 86 198 156 273 57 61 88 141 88 224 0 181-148 329-329 329z m0-523c-109 0-198 89-198 198 0 110 89 199 198 199 109 0 198-89 198-199 0-109-89-198-198-198z m0 367c-93 0-168-76-168-169 0-92 75-168 168-168 93 0 168 76 168 168 0 93-75 169-168 169z" horiz-adv-x="1000" />

<glyph glyph-name="medicine-chest" unicode="&#xe842;" d="M943-150h-886c-7 0-13 6-13 14v972c0 8 6 14 13 14h886c7 0 13-6 13-14v-972c0-8-6-14-13-14z m-872 27h858v946h-858v-946z m806 43h-753c-8 0-14 6-14 14v832c0 8 6 14 14 14h753c7 0 13-6 13-14v-832c0-8-6-14-13-14z m-740 27h726v806h-726v-102h46c8 0 14-6 14-14v-114c0-7-6-14-14-14h-46v-318h46c8 0 14-6 14-14v-114c0-8-6-14-14-14h-46v-102z m0 130h33v86h-33v-86z m0 460h33v87h-33v-87z m421-405h-116c-8 0-14 6-14 14v132h-132c-8 0-14 6-14 14v116c0 8 6 14 14 14h132v132c0 8 6 14 14 14h116c8 0 14-6 14-14v-132h132c8 0 14-6 14-14v-116c0-8-6-14-14-14h-132v-132c0-8-6-14-14-14z m-103 27h90v133c0 7 6 13 13 13h133v90h-133c-7 0-13 6-13 13v133h-90v-133c0-7-6-13-13-13h-133v-90h133c7 0 13-6 13-13v-133z m351 149c-24 0-43 19-43 43 0 24 19 43 43 43 24 0 43-19 43-43 0-24-19-43-43-43z m0 59c-9 0-16-7-16-16 0-9 7-16 16-16s16 7 16 16c0 9-7 16-16 16z" horiz-adv-x="1000" />

<glyph glyph-name="meter-tape" unicode="&#xe843;" d="M569-114h-468c-56 0-101 45-101 100v440c0 177 144 321 321 321h42v53c0 8 7 14 15 14h205c8 0 14-6 14-14v-53h164c55 0 100-45 100-101v-11h110v61c0 8 6 15 14 15s15-7 15-15v-76c0-8-7-14-15-14h-124v-428c0-161-131-292-292-292z m-248 832c-161 0-292-131-292-292v-440c0-39 32-71 72-71h468c145 0 263 118 263 263v468c0 40-32 72-71 72h-440z m71 29h176v38h-176v-38z m39-737c-169 0-306 138-306 306s137 306 306 306 306-137 306-306-138-306-306-306z m0 583c-153 0-277-124-277-277s124-276 277-276 276 124 276 276-124 277-276 277z m74-429h-20c-42 0-76 35-76 76v153c0 42 34 76 76 76h20c42 0 77-34 77-76v-153c0-41-35-76-77-76z m-20 276c-26 0-47-21-47-47v-153c0-25 21-46 47-46h20c26 0 47 21 47 46v153c0 26-21 47-47 47h-20z m-151-276c-8 0-15 7-15 15v234l-24-24c-5-5-15-5-20 0-6 6-6 15 0 21l48 49c5 4 11 5 16 3 6-2 9-8 9-14v-269c0-8-6-15-14-15z" horiz-adv-x="1000" />

<glyph glyph-name="money-bills" unicode="&#xe844;" d="M778 131c0 0 0 0 0 0h-765c-7 0-13 5-13 13v219c0 1 0 1 0 1 0 3 1 5 3 7 0 1 1 2 1 2 0 0 0 0 0 0 1 0 1 1 1 1l243 193c2 1 5 2 8 2h731c1 1 1 0 2 0l0 0c0 0 0 0 0 0h0c1 0 3 0 4-1 0 0 0 0 0 0 0 0 0 0 0 0 1-1 2-1 3-2 1-1 2-2 3-4 0-1 1-2 1-3 0 0 0 0 0 0 0 0 0 0 0 0 0-1 0-2 0-3v-59c0 0 0 0 0 0v-55c0 0 0 0 0 0v-55c0 0 0 0 0 0v-51c0-3-1-7-4-9l-209-193c0 0 0 0 0 0h0c0 0 0 0 0 0 0 0 0 0 0 0-3-2-5-3-8-3-1 0-1 0-1 0z m-246 26h233v27h-233v-27z m-253 0h228v194h-228v-194z m-253 0h227v27h-227v-27z m765 31v-15l183 169v15l-183-169z m-259 22h233v32h-233v-32z m-506 0h227v32h-227v-32z m765 34v-21l183 170v20l-183-169z m-259 24h233v29h-233v-29z m-506 0h227v29h-227v-29z m765 30v-19l183 169v19l-183-169z m-259 25h233v28h-233v-28z m-506 0h227v28h-227v-28z m765 35v-24l183 169v24l-183-169z m-238 18h220l181 168h-221l-25-24c8-5 17-12 20-23 4-15-2-30-19-46-42-40-105-44-124-45l-32-30z m-251 0h212l57 52c0 0 0 1 0 1l124 115h-192l-50-42c0-1-1-1-1-1l-150-125z m-252 0h211l47 39c-8 5-15 11-17 21-6 23 19 43 28 49 50 39 104 40 121 40l23 19h-202l-211-168z m355 120c-20-4-46-13-71-32-16-12-19-20-18-22 0-3 7-7 14-9l75 63z m282 5l-71-66c24 5 53 14 75 34 9 9 13 17 12 21-1 4-9 9-16 11z" horiz-adv-x="1000" />

<glyph glyph-name="move-truck" unicode="&#xe845;" d="M811 10c-45 0-81 33-87 76h-419c-6-43-42-76-87-76s-81 33-87 76h-118c-7 0-13 6-13 13v578c0 8 6 13 13 13h615c7 0 12-5 12-13v-241h125c5 0 10-2 12-7l56-112 158-50c5-2 9-7 9-12v-156c0-7-6-13-13-13h-89c-6-43-42-76-87-76z m0 150c-34 0-63-28-63-62s29-63 63-63c34 0 62 28 63 62-1 0-1 1-1 2 0 23-13 44-34 55-8 4-18 6-28 6z m-655-52c0-3-1-7-1-10 0-34 29-63 63-63 34 0 62 28 63 62-1 1-1 1-1 2 0 34-28 62-62 62-31 0-57-23-62-53z m742 4h77v133l-155 49c-3 1-6 3-7 6l-56 111h-117v-299h84c7 42 43 74 87 74 14 0 28-3 40-10 25-13 43-37 47-64z m-593 0h310v553h-589v-553h105c6 39 39 70 79 74 3 0 5 0 8 0 0 0 0 0 0 0 0 0 0 0 0 0 0 0 0 0 0 0 44 0 80-32 87-74z m131 137h-231c-7 0-13 5-13 12v151h-23c-5 0-9 3-11 8-2 5-1 10 3 14l150 143c5 4 13 4 18 0l151-143c4-4 5-9 3-14-2-5-7-8-12-8h-22v-151c0-7-6-12-13-12z m-219 25h206v138h-206v-138z m219 163h3l-119 113-119-113h235z" horiz-adv-x="1000" />

<glyph glyph-name="music-headphones" unicode="&#xe846;" d="M902-72h-46c-7 0-12 5-13 11h-22c-22 0-39 17-39 37v262c0 20 17 37 39 37h22c1 6 6 11 13 11h49c28 0 50-22 50-49v-47h19v55c0 276-213 501-474 501s-474-225-474-501v-55h19v47c0 27 22 49 50 49h49c7 0 12-5 13-11h22c22 0 40-17 40-37v-262c0-20-18-37-40-37h-22c-1-6-6-11-13-11h-46c-29 0-53 23-53 52v44h-32c-7 0-13 6-13 13v208c0 291 224 527 500 527s500-236 500-527v-208c0-7-6-13-13-13h-32v-44c0-29-24-52-53-52z m-31 26h31c15 0 27 12 27 26v257c0 13-11 23-24 23h-34v-306z m-776 306c-13 0-24-10-24-23v-257c0-14 12-26 27-26h33v306h-36z m726-11c-7 0-14-5-14-11v-262c0-6 7-11 14-11h24v284h-24z m-664-284h22c8 0 14 5 14 11v262c0 6-6 11-14 11h-22v-284z m798 85h19v114h-19v-114z m-929 0h19v114h-19v-114z" horiz-adv-x="1000" />

<glyph glyph-name="my-house" unicode="&#xe847;" d="M528-149c-12 0-24 3-35 8l-221 98c-29 12-62 10-88-7l-63-39c-6-4-14-2-18 4-4 7-2 15 4 19l63 39c34 21 76 24 113 8l221-98c18-8 39-6 56 5l402 255c11 7 15 21 8 32l-14 26c-3 6-9 10-15 11-6 2-12 1-18-2l-27-16c-11-7-27-4-34 7l-17 25c-7 10-22 13-32 6l-40-25c-11-8-27-5-34 6l-14 20c-8 11-22 13-33 6l-98-67h41c43 0 77-34 77-77 0-43-34-77-77-77h-151c-15 0-31 3-44 10l-86 43c-7 3-10 11-6 18 3 6 11 9 17 6l86-43c11-5 22-8 33-8h151c28 0 51 23 51 51s-23 51-51 51h-84c0 0 0 0 0 0l-84 1c-2 0-5 0-7 1l-137 80c-48 27-106 30-155 6l-149-70c-7-4-15-1-18 6-3 7 0 15 7 18l149 70c20 10 43 16 65 18v205h-68c-6 0-11 3-13 8-2 5-1 11 3 15l341 341c5 5 14 5 19 0l346-341c4-4 5-10 3-15-2-5-7-8-12-8h-79v-247c0-1 0-2 0-3l36 24c23 15 53 9 69-14l16-24 26 16c12 7 26 9 39 5 13-3 24-12 31-24l15-26c13-23 5-53-17-67l-402-256c-15-9-31-14-47-14z m-57 322l76-1 130 89c18 13 42 11 59-1v234c0 8 5 14 13 14h59l-314 308-308-308h49c8 0 14-6 14-14v-217c30-2 60-10 87-26l135-78z" horiz-adv-x="1000" />

<glyph glyph-name="nightstand" unicode="&#xe848;" d="M944-65c-8 0-15 6-15 14v71h-858v-71c0-8-7-14-15-14s-14 6-14 14v724h-28c-7 0-14 6-14 14v64c0 8 7 14 14 14h972c8 0 14-6 14-14v-64c0-8-6-14-14-14h-28v-724c0-8-6-14-14-14z m-873 114h858v624h-858v-624z m-42 652h942v35h-942v-35z m821-562h-701c-8 0-14 6-14 14v169c0 8 6 15 14 15h701c8 0 14-7 14-15v-169c0-8-6-14-14-14z m-687 29h673v140h-673v-140z m337 25c-25 0-45 20-45 45 0 24 20 44 45 44s44-20 44-44c0-25-20-45-44-45z m0 60c-9 0-16-7-16-15 0-9 7-16 16-16s15 7 15 16c0 8-7 15-15 15z m350 143h-701c-8 0-14 6-14 14v169c0 8 6 15 14 15h701c8 0 14-7 14-15v-169c0-8-6-14-14-14z m-687 29h673v140h-673v-140z m337 25c-25 0-45 20-45 45s20 44 45 44 44-20 44-44-20-45-44-45z m0 61c-9 0-16-8-16-16s7-16 16-16 15 7 15 16-7 16-15 16z" horiz-adv-x="1000" />

<glyph glyph-name="nippers" unicode="&#xe849;" d="M194-136c-8 0-16 3-22 8l-1 1c-14 12-15 33-3 47l409 475c26 30 33 51 33 68-14-1-33-8-61-29l-494-385c-15-12-36-9-47 5l-1 1c-11 15-9 36 6 47l508 403c4 3 34 28 75 39-1 2-1 4-1 6-13 51-33 136 46 227 92 108 243 35 244 35 4-2 6-5 7-9 1-4 0-8-3-11l-90-105c-4-4-11-5-16-3-2 2-48 26-83-13-33-39-32-76-16-133 65-23 105-28 147 5 18 14 24 31 25 45 0 2 0 3 0 4 0 18-7 32-7 33-3 5-1 12 3 15l110 86c3 2 7 3 10 2s7-4 9-7c0-1 7-16 12-40 1-2 1-4 1-5 11-53 15-140-59-198l0 0c-95-74-180-49-230-35-4 1-8 3-12 4-11-46-43-80-46-84l-427-488c-7-7-16-11-26-11z m441 613c3-34-9-63-39-98l-409-475c-3-4-3-9 1-13l-8-9 8 9c4-3 10-3 13 1l427 488c1 0 1 0 1 0 0 1 35 37 42 83 0 6-1 40-9 62 0 0 0 0 0 0 0 0 0 0 0 0 0 0 0 0 0 0s0 0 0 0l0 0c0 0 0 0 0 0-19 66-22 114 20 162 18 21 39 29 59 31l74 90c-46 9-109 7-156-47-70-81-53-153-40-205 1-7 3-13 4-19 8-34 11-58 11-60 0 0 0 0 0 0 0 0 0 0 0 0 0 0 0 0 0 0 0 0 0 0 1 0z m-34 43c-36-10-63-34-64-34 0 0 0 0 0 0l-509-403c-4-3-4-9-1-13l-10-8 10 8c3-4 9-5 13-2l494 386c27 20 50 31 74 34-2 8-4 19-7 32z m94-48c6-1 11-3 17-5 52-15 122-36 207 31 57 44 61 109 54 155l-93-70c-2-20-11-42-34-60-47-37-91-35-155-14 3-14 4-28 4-37z m180 154c1-3 3-8 4-13l89 68c-2 5-3 10-5 14l-88-69z m-104 89c5-1 11-3 15-4l73 85c-5 1-10 3-17 5l-71-86z" horiz-adv-x="1000" />

<glyph glyph-name="notebook" unicode="&#xe84a;" d="M958 61h-916c-23 0-42 19-42 42v26c0 7 6 12 12 12h66v454c0 25 20 44 44 44h756c24 0 44-19 44-44v-454h66c7 0 12-5 12-12v-26c0-23-19-42-42-42z m-934 56v-14c0-10 8-18 18-18h916c10 0 18 8 18 18v14h-952z m846 24h27v454c0 11-9 20-19 20h-756c-10 0-19-9-19-20v-454h27v22c0 6 6 12 13 12h129c7 0 13-6 13-12v-22h430v22c0 6 6 12 13 12h130c6 0 12-6 12-12v-22z m-130 0h105v9h-105v-9z m-585 0h105v9h-105v-9z m703 51h-715c-7 0-13 6-13 12v376c0 6 6 12 13 12h715c6 0 12-6 12-12v-376c0-6-6-12-12-12z m-703 25h690v350h-690v-350z" horiz-adv-x="1000" />

<glyph glyph-name="office-chair" unicode="&#xe84b;" d="M713-150c-21 0-38 17-38 38 0 5 0 9 2 14h-144c2-5 3-9 3-14 0-21-17-38-38-38s-39 17-39 38c0 5 1 9 3 14h-147c2-5 3-9 3-14 0-21-18-38-39-38-21 0-38 17-38 38 0 6 2 12 4 17-2 2-4 5-4 9v17c0 25 21 46 47 46h151v174c0 7 5 12 12 12h7v74h-218c-25 0-45 21-45 46v116h-18c-7 0-12 6-12 12s5 13 12 13h60c7 0 12-6 12-13s-5-12-12-12h-18v-116c0-12 10-21 21-21h9c-3 6-5 13-5 20 0 25 20 45 45 45h169v46c-113 14-186 87-186 191 0 62 24 133 65 189 46 63 103 97 162 97s117-34 162-97c41-56 66-127 66-189 0-105-75-178-190-192v-45h169c25 0 45-20 45-45 0-7-2-14-5-20h14c11 0 21 9 21 21v116h-18c-6 0-12 6-12 12s6 13 12 13h60c7 0 12-6 12-13s-5-12-12-12h-18v-116c0-25-20-46-45-46h-192l40-25h50c7 0 12-5 12-12s-5-12-12-12h-53c-2 0-5 0-7 2l-61 37v-64h7c7 0 12-5 12-12v-174h149c25 0 46-21 46-46v-17c0-4-2-7-4-9 2-5 4-11 4-17 0-21-17-38-38-38z m0 52c-8 0-14-6-14-14 0-7 6-13 14-13 7 0 13 6 13 13 0 8-6 14-13 14z m-215 0c-8 0-14-6-14-14 0-7 6-13 14-13 7 0 13 6 13 13 0 8-6 14-13 14z m-219 0c-7 0-13-6-13-14 0-7 6-13 13-13 8 0 14 6 14 13 0 8-6 14-14 14z m434 24h13v5c0 12-10 21-21 21h-197v-26h205z m-434 0h205v26h-196c-12 0-22-9-22-21v-5h13z m217 51h36v161h-69v-161h33z m-13 186h29v74h-29v-74z m165 99h58c11 0 20 9 20 20 0 11-9 20-20 20h-417c-11 0-20-9-20-20 0-11 9-20 20-20h236c0 0 0 0 0 0h123z m-165 65h29v43h-29v-43z m16 498c-50 0-101-31-142-87-37-51-60-118-60-174 0-103 79-169 202-169s203 66 203 169c0 56-23 123-61 174-40 56-91 87-142 87z" horiz-adv-x="1000" />

<glyph glyph-name="office-clip" unicode="&#xe84c;" d="M211-150c-45 0-88 20-127 59-40 40-59 83-58 130 1 79 62 137 65 140l621 621c4 4 48 49 108 50 38 1 75-16 108-49 104-104 1-214 0-215l-473-473c-31-30-107-69-172-4-64 64-24 141 7 173l313 313c6 6 15 6 21 0s6-15 0-21l-313-313c-3-3-67-72-7-131 60-61 128 2 130 4l472 473c4 3 84 90 1 173-27 27-55 40-84 40-1 0-2 0-2 0-50-1-87-40-87-40l-622-623c-1-1-56-52-57-119 0-38 16-74 50-108 34-34 72-51 110-50 66 2 116 56 116 57 0 0 1 0 1 0l464 465c6 6 16 6 21 0s6-15 0-21l-464-465c-5-5-61-64-138-66-1 0-2 0-4 0z" horiz-adv-x="1000" />

<glyph glyph-name="office-folders" unicode="&#xe84d;" d="M735-29c-6 0-11 5-12 10l-136 609v-606c0-7-6-13-13-13h-258c-7 0-13 6-13 13v692c0 7 6 13 13 13h258c7 0 13-6 13-13v-3l247 55c3 1 7 0 10-1 2-2 4-5 5-8l151-676c0-3 0-6-2-9-2-3-5-5-8-6l-252-56c-1 0-2-1-3-1z m-406 26h233v666h-233v-666z m271 653l145-651 227 51-145 650-227-50z m-329-679h-258c-7 0-13 6-13 13v692c0 7 6 13 13 13h258c7 0 13-6 13-13v-692c0-7-6-13-13-13z m-245 26h232v666h-232v-666z m419 53c-36 0-65 29-65 65s29 65 65 65 65-29 65-65-29-65-65-65z m0 104c-21 0-39-17-39-39 0-22 18-39 39-39 22 0 40 17 40 39 0 22-18 39-40 39z m-301-104c-36 0-65 29-65 65s29 65 65 65 65-29 65-65-29-65-65-65z m0 104c-21 0-39-17-39-39 0-22 18-39 39-39 22 0 40 17 40 39 0 22-18 39-40 39z m689-79c-13 0-24 4-35 10-15 10-25 24-29 41-3 17 0 34 9 49 9 15 24 25 41 28l0 0c17 4 34 1 49-8 14-9 24-24 28-41 4-17 1-34-8-49-10-14-24-24-41-28-5-1-10-2-14-2z m0 104c-3 0-6 0-9 0l0 0c-10-3-19-9-24-18-6-9-8-19-6-29 5-22 26-35 47-30 22 4 35 26 30 47-4 18-20 30-38 30z m-303 95h-169c-7 0-13 5-13 12v302c0 7 6 12 13 12h169c7 0 12-5 12-12v-302c0-7-5-12-12-12z m-157 25h144v276h-144v-276z m-147-25h-169c-7 0-13 5-13 12v302c0 7 6 12 13 12h169c7 0 13-5 13-12v-302c0-7-6-12-13-12z m-156 25h143v276h-143v-276z m643-23c-6 0-11 4-12 10l-66 294c-1 3 0 7 2 10 1 3 4 5 8 5l165 37c7 2 13-3 15-9l65-295c1-3 1-6-1-9-2-3-5-5-8-6l-165-37c-1 0-2 0-3 0z m-50 297l60-269 140 31-60 269-140-31z m-167-147h-101c-7 0-13 6-13 13s6 13 13 13h101c7 0 13-6 13-13s-6-13-13-13z m-304 0h-101c-7 0-13 6-13 13s6 13 13 13h101c7 0 13-6 13-13s-6-13-13-13z m521 7c-6 0-11 4-13 10-1 7 3 13 10 15l99 22c7 1 14-3 15-10 2-7-3-14-10-15l-98-22c-1 0-2 0-3 0z m-217 46h-101c-7 0-13 5-13 12s6 13 13 13h101c7 0 13-6 13-13s-6-12-13-12z m-304 0h-101c-7 0-13 5-13 12s6 13 13 13h101c7 0 13-6 13-13s-6-12-13-12z m510 5c-6 0-12 4-13 10-1 6 3 13 10 15l98 22c7 1 14-3 16-10 1-7-3-14-10-15l-99-22c-1 0-2 0-2 0z m-206 47h-101c-7 0-13 5-13 12s6 13 13 13h101c7 0 13-5 13-13s-6-12-13-12z m-304 0h-101c-7 0-13 5-13 12s6 13 13 13h101c7 0 13-5 13-13s-6-12-13-12z m498 3c-6 0-11 4-12 10-2 7 3 14 9 16l99 22c7 1 14-3 15-10 2-7-2-14-9-15l-99-22c-1-1-2-1-3-1z" horiz-adv-x="1000" />

<glyph glyph-name="open-access" unicode="&#xe84e;" d="M149-150c-1 0-1 0-2 0l-37 3c-4 1-7 2-10 5l-76 77c0 0 0 0 0 0s-1 0-1 0l-11 11c-3 3-5 8-4 13l7 71c0 4 2 7 4 10l413 413c-43 108-18 229 65 312 113 113 297 113 410 0 55-55 85-128 85-205s-30-151-85-206c-82-82-204-107-312-64l-54-54c-3-3-7-4-11-4h-31v-32c0-4-2-8-5-11l-43-43c-3-3-7-5-11-5h-22v-22c0-4-2-8-5-11l-47-47c-3-3-6-4-11-4h-70v-70c0-4-1-8-4-11l-13-13c-3-3-7-5-11-5h-25v-25c0-4-2-8-5-11l-67-68c-3-2-7-4-11-4z m-31 34l25-3 58 59v33c0 9 7 16 16 16h33l5 4v79c0 9 7 16 15 16h79l38 38v31c0 8 7 15 15 15h31l35 35v40c0 9 7 16 15 16h41l56 56c5 5 12 6 18 3 98-43 211-22 288 54 49 49 76 114 76 184s-27 134-76 183c-102 101-266 102-367 0-77-76-98-189-54-288 2-6 1-12-4-17l-416-416-5-49 437 437c6 6 16 6 22 0 6-6 6-15 0-22l-443-442 62-62z m679 703c-18 0-35 7-48 20-13 12-20 29-20 47 0 19 7 36 20 48s30 20 48 20c18 0 35-7 48-20 12-12 19-29 19-48 0-18-7-35-19-47-13-13-30-20-48-20z m0 104c-10 0-19-3-26-10s-11-17-11-27 4-19 11-26c7-7 16-10 26-10s19 3 26 10c7 7 11 17 11 26s-4 20-11 27-16 10-26 10z" horiz-adv-x="1000" />

<glyph glyph-name="open-box" unicode="&#xe84f;" d="M900 56h-796c-7 0-12 5-12 12v399l-90 160c-3 3-3 8 0 11 2 4 6 6 10 6h521c4 0 8-2 10-6l82-144 78 144c2 4 6 6 10 6h275c5 0 8-2 10-6 3-3 3-8 1-11l-88-159v-400c0-7-5-12-11-12z m-264 23h252v380h-252v-380z m-216 0h193v380h-193v-380z m-101 0h78v380h-78v-380z m-203 0h180v380h-180v-380z m528 403h249l76 139h-249l-76-139z m-229 0h190l-79 139h-191l80-139z m-101 0h74l-80 138h-74l80-138z m-203 0h176l-80 139h-175l79-139z" horiz-adv-x="1000" />

<glyph glyph-name="open-door" unicode="&#xe850;" d="M187-150c0 0 0 0 0 0h-95c-8 0-14 6-14 14v972c0 8 6 14 14 14h816c8 0 14-6 14-14v-972c0-8-6-14-14-14h-95c-8 0-14 6-14 14v863h-325l265-26c8-1 13-7 13-14v-757c0-7-5-13-12-14l-551-66c0 0-1 0-1 0 0 0-1 0-1 0z m640 28h67v944h-788v-944h67v863c0 0 0 0 0 0 0 2 1 4 1 5 1 2 2 4 3 5 2 1 4 3 6 3 1 1 3 1 4 1h626c8 0 14-7 14-14v-863z m-626 847v-845l523 63v731l-523 51z m451-459c-24 0-43 23-43 52s19 52 43 52 43-24 43-52-20-52-43-52z m0 76c-7 0-15-10-15-24s8-25 15-25 15 10 15 25-8 24-15 24z" horiz-adv-x="1000" />

<glyph glyph-name="outdoor-fence" unicode="&#xe851;" d="M986-111h-165c-8 0-15 6-15 14v114h-75v-114c0-8-6-14-14-14h-165c-8 0-14 6-14 14v114h-75v-114c0-8-7-14-15-14h-165c-8 0-14 6-14 14v114h-75v-114c0-8-7-14-15-14h-164c-8 0-15 6-15 14v773c0 3 1 6 3 8l82 121c3 4 7 6 12 6s9-2 12-6l82-121c2-2 3-5 3-8v-135h75v135c0 3 1 6 2 8l83 121c2 4 7 6 12 6s9-2 12-6l82-121c2-2 3-5 3-8v-135h75v135c0 3 0 6 2 8l82 121c3 4 8 6 12 6s10-2 12-6l83-121c1-2 2-5 2-8v-135h75v135c0 3 1 6 3 8l82 121c3 4 7 6 12 6s9-2 12-6l83-121c1-2 2-5 2-8v-773c0-8-6-14-14-14z m-151 28h136v754l-68 100-68-100v-754z m-268 0h135v754l-68 100-67-100v-754z m-269 0h136v754l-68 100-68-100v-754z m-269 0h136v754l-68 100-68-100v-754z m702 129h75v29h-75v-29z m-268 0h75v29h-75v-29z m-269 0h75v29h-75v-29z m537 58h75v350h-75v-350z m-268 0h75v350h-75v-350z m-269 0h75v350h-75v-350z m537 379h75v29h-75v-29z m-268 0h75v29h-75v-29z m-269 0h75v29h-75v-29z" horiz-adv-x="1000" />

<glyph glyph-name="painter-brush" unicode="&#xe852;" d="M90-150c-25 0-50 11-67 29-32 36-30 91 5 126l7 7c9 10 19 19 30 27 90 70 263 220 304 261 52 53-25 149-51 177-1 3-3 5-5 7l-2 2c-5 5-5 13 0 18l145 145c7 8 107 118 154 153 48 37 94 47 96 48 4 1 9-1 12-4l15-15c3-3 4-7 3-12 5 1 9 0 12-3l16-16c3-3 5-8 3-12l-2-8 3 2c5 3 12 2 16-2l29-29c3-3 5-7 4-12l-5-20 14 7c5 3 11 2 15-2l10-11c4-3 5-9 3-14 4 2 10 1 14-2l22-23c4-4 5-10 2-15l-7-13 12 7c5 3 12 3 16-2l20-20c4-4 5-9 3-14l0-1c5 3 10 2 14-2l20-19c4-4 5-10 2-15l-5-11 10 5c5 3 11 2 15-2l4-4c3-3 5-7 4-12-1-2-11-48-48-96-35-47-146-147-153-153l-146-146c-2-2-5-4-9-4 0 0 0 0 0 0-3 0-6 2-9 4l-1 1c0 0 0 1 0 1-1 0-2 1-4 3l1 1c0 0 0 0 0 1l-1-2c-38 35-94 72-137 72-18 0-32-6-44-18-45-45-202-228-270-315-8-10-16-19-25-28 0-1 0-1 0-1l0 0c0 0 0 0 0 0l0 0 0 0c-1 0-1 0-1 0l0-1c0 0-1 0-1 0-17-16-39-25-62-25z m248 644c0 0 0 0 0 0 28-32 117-144 49-212-42-41-216-192-307-263-9-8-18-16-27-25l-7-7c-25-25-27-65-4-91 13-13 30-21 48-21 17 0 33 7 45 19 9 8 17 18 24 27 69 88 226 271 272 317 17 17 37 25 62 25 61 0 128-54 151-75l32 32-306 306-32-32z m50 50l306-306 78 78-306 306-78-78z m95 97l308-308c27 26 112 105 141 142 18 24 29 48 35 64l-21-12c-5-3-11-2-15 1-5 4-6 10-3 15l18 40-6 5-29-24c-5-4-11-4-16 0-5 4-6 10-4 15l18 40-7 7-44-28c-5-3-11-3-16 1s-5 10-2 15l26 49-9 8-33-21c-5-4-12-3-16 1-4 4-5 10-2 16l16 29-22-12c-4-2-10-1-14 2-3 3-5 8-4 12l8 40-16 17-23-16c-4-3-10-3-15 0-4 3-6 9-5 14l10 34-3 4-18-12c-5-3-10-2-15 1-4 3-6 9-4 14l8 25-4 4c-13-4-46-16-80-41-38-28-116-113-142-141z m-393-743c-12 0-22 4-30 12-8 8-13 18-13 30 0 11 5 21 13 29 8 8 18 13 30 13 11 0 21-5 29-13 17-16 17-43 0-59-8-8-18-12-29-12z m0 58c-5 0-9-2-12-5-3-3-5-7-5-11s2-9 5-12c6-6 17-6 23 0 7 6 7 17 0 23-3 3-7 5-11 5z" horiz-adv-x="1000" />

<glyph glyph-name="paint-roller-tool" unicode="&#xe853;" d="M512-150h-68c-20 0-36 16-36 36v407c0 20 16 36 36 36h20v78c0 17 11 31 26 35l354 96c4 0 6 4 6 7v179c0 4-3 8-8 8h-28v-55c0-20-16-36-36-36h-620c-20 0-36 16-36 36v137c0 20 16 36 36 36h620c20 0 36-16 36-36v-54h28c20 0 36-16 36-36v-179c0-16-11-30-26-35l-354-95c-4-1-6-4-6-8v-78h20c20 0 36-16 36-36v-407c0-20-16-36-36-36z m-68 450c-4 0-8-3-8-7v-407c0-4 4-8 8-8h68c4 0 7 4 7 8v407c0 4-3 7-7 7h-68z m-286 522c-5 0-8-4-8-8v-137c0-4 3-8 8-8h620c4 0 7 4 7 8v137c0 4-3 8-7 8h-620z" horiz-adv-x="1000" />

<glyph glyph-name="paper-and-pencil" unicode="&#xe854;" d="M770-150h-718c-9 0-16 7-16 16v968c0 9 7 16 16 16h718c9 0 16-7 16-16v-968c0-9-7-16-16-16z m-702 32h687v936h-687v-936z m880 48h-71c-9 0-16 7-16 16v681c0 2 0 4 1 6l35 149c2 7 8 12 16 12s13-5 15-12l36-149c0-2 0-4 0-6v-681c0-9-7-16-16-16z m-55 32h39v652h-39v-652z m4 683h31l-15 65-16-65z m-236-592h-500c-9 0-16 7-16 16s7 15 16 15h500c9 0 16-7 16-15s-7-16-16-16z m0 115h-500c-9 0-16 7-16 15s7 16 16 16h500c9 0 16-7 16-16s-7-15-16-15z m0 296h-500c-9 0-16 7-16 16s7 16 16 16h500c9 0 16-7 16-16s-7-16-16-16z m0 115h-500c-9 0-16 7-16 16s7 15 16 15h500c9 0 16-7 16-15s-7-16-16-16z m0 115h-500c-9 0-16 7-16 15s7 16 16 16h500c9 0 16-7 16-16s-7-15-16-15z" horiz-adv-x="1000" />

<glyph glyph-name="parking-sign" unicode="&#xe855;" d="M887-150h-774c-62 0-113 51-113 113v774c0 62 51 113 113 113h774c62 0 113-51 113-113v-774c0-62-51-113-113-113z m-774 968c-45 0-81-36-81-81v-774c0-45 36-81 81-81h774c45 0 81 36 81 81v774c0 45-36 81-81 81h-774z m755-908h-736c-39 0-72 32-72 72v736c0 40 33 72 72 72h736c40 0 72-32 72-72v-736c0-40-32-72-72-72z m-736 848c-22 0-40-18-40-40v-736c0-22 18-40 40-40h736c22 0 40 18 40 40v736c0 22-18 40-40 40h-736z m273-715h-68c-9 0-16 7-16 15v584c0 8 7 16 16 16h68c99 0 303 0 303-214 0-89-30-151-90-184-50-27-112-31-171-31-7 0-15 0-22 0-1 0-3 1-4 1v-172c0-8-7-15-16-15z m-52 31h36v171c0 9 8 16 16 16 7 0 13 0 20 0 7 0 15 0 22 0 55 0 112 3 155 27 50 27 74 78 74 156 0 168-140 182-271 182h-52v-552z m104 215c-10 0-19 0-28 0-8 0-16 0-24 0-8 0-16 7-16 16v265c0 8 8 15 16 15l12 0c80 0 229 0 229-148 0-60-22-102-65-126-37-20-83-22-124-22z m-36 32c3 0 6 0 8 0 9-1 19-1 28-1 37 0 78 3 109 19 32 18 48 50 48 98 0 106-95 116-193 117v-233z" horiz-adv-x="1000" />

<glyph glyph-name="parquet" unicode="&#xe856;" d="M982-150h-964c-10 0-18 8-18 18v964c0 10 8 18 18 18h964c10 0 18-8 18-18v-964c0-10-8-18-18-18z m-234 36h216v216l-201-201c0 0 0 0 0 0 0 0 0 0 0 0l-15-15z m-277 0h226l29 28-114 113-141-141z m-258 0h208l309 309-104 104-329-329 0 0-84-84z m-177 0h126l98 97-110 109-114-115v-91z m602 166l113-113 213 214v226l-197-197 0 0-129-130z m-462 66l109-110 545 546-109 109-214-214c0 0 0 0 0 0l-331-331z m-140 149v-239l102 102c0 0 0 0 0 0 0 0 0 0 0 0l331 332-117 117-316-312z m615 57l104-104 209 209c0 0 0 0 0 0v209l-313-314z m-615 233v-240l140 138-120 121-20-19z m46 43l120-120 338 333h-232l-226-213z m296 4l117-117 327 327h-230l-214-210z m368 84l109-109 109 109v126h-91l-127-126z m-710 126v-208l6 6c1 1 1 1 1 1 1 1 2 2 3 2l211 199h-221z" horiz-adv-x="1000" />

<glyph glyph-name="pen-and-set-square" unicode="&#xe857;" d="M986-137h-972c-6 0-11 4-13 10-2 5 0 12 5 16l971 754c4 3 10 4 15 2 5-3 8-8 8-13v-755c0-8-6-14-14-14z m-47 29h32v710l-914-710h144v23c0 8 6 14 14 14s15-6 15-14v-23h148v23c0 8 7 14 15 14s14-6 14-14v-23h148v23c0 8 7 14 15 14s14-6 14-14v-23h149v23c0 8 6 14 14 14s14-6 14-14v-23h149v23c0 8 6 14 14 14s15-6 15-14v-23z m-90 98h-457c-6 0-12 4-14 9-2 6 0 13 5 17l457 363c5 3 10 4 15 1 5-2 9-7 9-13v-363c0-8-7-14-15-14z m-416 29h402v318l-402-318z m-263 55c-1 0-2 0-3 1-7 1-11 7-11 13l-4 102c-1 2-1 4 0 7l154 629c2 8 9 13 17 11l57-14c4-1 7-3 9-7s2-7 2-11l-5-20 23-6c8-2 13-10 11-17l-54-220c-2-8-10-13-17-11-8 2-13 10-11 17l50 206-9 3-143-581c0-3-1-5-3-7l-50-88c-3-4-8-7-13-7z m10 119l2-54 27 47 144 588c0 1 0 3 1 4 0 1 0 2 1 3l4 17-29 7-150-612z" horiz-adv-x="1000" />

<glyph glyph-name="phone-with-arrow" unicode="&#xe858;" d="M740-150h-480c-33 0-60 27-60 60v880c0 33 27 60 60 60h480c33 0 60-27 60-60v-880c0-33-27-60-60-60z m-480 968c-15 0-28-12-28-28v-880c0-16 13-28 28-28h480c15 0 28 12 28 28v880c0 16-13 28-28 28h-480z m240-926c-33 0-60 27-60 60s27 61 60 61 60-27 60-61-27-60-60-60z m0 89c-16 0-28-13-28-29s12-28 28-28 29 13 29 28-13 29-29 29z m230 54h-460c-9 0-16 7-16 16v681c0 9 7 16 16 16h460c9 0 16-7 16-16v-681c0-9-7-16-16-16z m-444 32h428v649h-428v-649z m331 183h-234c-8 0-16 7-16 16v137h-13c-6 0-12 4-15 10-2 6-1 13 4 18l146 139c6 6 16 6 22 0l146-139c5-5 6-12 4-18-3-6-9-10-15-10h-13v-137c0-9-7-16-16-16z m-218 32h202v137c0 6 3 11 8 14l-109 104-109-104c5-3 8-8 8-14v-137z m130 485h-58c-9 0-16 7-16 15s7 16 16 16h58c9 0 16-7 16-16s-7-15-16-15z" horiz-adv-x="1000" />

<glyph glyph-name="pig-money-safe" unicode="&#xe859;" d="M797-125h-182c-8 0-14 6-14 13v40c-30-6-62-10-94-10-43 0-85 6-126 18v-48c0-7-6-13-13-13h-167c-7 0-13 6-13 13v171c-23 26-40 55-53 86h-74c-1 0-2 0-2 0-1 0-1 0-2 0-30-2-55 33-57 78-1 20 3 40 11 55 7 14 17 23 29 26 1 1 3 2 5 2h1c1 0 2 0 3 0l0 0 0 0c2 0 5 0 7 0h63c12 70 36 116 84 160l-20 84c-1 5 1 11 5 14 4 3 9 3 14 1l74-39c64 41 142 62 231 62 205 0 374-134 392-304 10 4 26 12 41 26 29 26 34 55 34 55 1 7 8 12 15 11 7-1 12-8 11-15 0-2-7-39-42-70-23-21-45-30-58-35 0-1 0-2 0-3 0-77-32-153-89-212v-153c0-7-6-13-14-13z m-99 27h86v144c0 3 2 7 4 9 56 56 86 126 86 198 0 171-164 309-367 309-86 0-161-21-223-62l-58-49c-50-44-72-87-83-160-1-7-6-11-13-11h-39c9-14 14-32 15-52 1-22-3-42-12-57h105c0 0 0 0 1 0 0 0 24-1 41 18 2 3 5 4 9 4 4 1 7-1 10-3l13-14c5-5 5-13 0-18-5-5-13-5-18 0l-5 4c-22-17-47-17-51-17h-35c21-47 55-89 100-122 3-3 5-7 5-11v-110h86v52c0 4 2 8 5 11 4 2 8 3 12 1 43-14 89-21 135-21 60 0 120 12 173 36 4 2 9 1 12-1 4-2 6-7 6-11v-67z m-70 0h44v47c-14-5-29-10-44-14v-33z m-414 0h29v104c-10 8-20 16-29 25v-129z m-186 307c5-23 17-38 28-38 0 0 1 0 1 0 1 0 1 0 1 0 0 1 1 1 1 1 9 3 17 17 20 36-10 0-17 8-17 18 0 9 7 16 16 17-2 9-6 18-10 24-4 7-9 11-14 13 0 0-1 0-1 0-1 0-1 0-1 0 0 0-1 0-1 0-1 0-1 0-1 0 0 0 0 0 0 0-1 0-1 0-2 0 0 0 0 0 0 0-5-2-10-7-14-14-3-7-6-15-7-24 7-2 12-9 12-16 0-8-5-14-11-17z m51 25c-4 0-8-4-8-8 0-5 4-9 9-9 0 0 0 0 0 0 0 3 0 7 0 10 0 2 0 5-1 7z m-53-2c0-3 0-5 0-8 0-1 0-3 1-4 1 1 2 3 2 6 0 2-1 4-3 6z m189 296l10-43 28 23-38 20z m49-222c-23 0-41 19-41 41s18 41 41 41 41-18 41-41-19-41-41-41z m0 56c-8 0-15-7-15-15s7-15 15-15 14 7 14 15-6 15-14 15z m156-2l0 0c-7 0-13 5-13 13 0 0 0 49-10 91-5 20-9 32-11 39-11-3-30-10-44-24-15-14-23-33-23-33-3-6-11-9-17-6-7 3-10 10-7 17 0 1 11 23 29 41 27 27 65 32 67 32 5 1 9-1 12-5 2-2 10-15 19-56 11-45 11-94 11-96 0-8-6-13-13-13z m173 144c-2 0-4 1-6 1l0 0c0 1-30 13-72 13-42 0-78-13-78-13-7-2-14 1-17 8-2 7 1 14 8 17 2 0 40 14 87 14 48 0 82-14 83-15 7-2 10-10 7-17-2-5-7-8-12-8z m-81 135c-51 0-93 41-93 93 0 51 42 93 93 93s93-42 93-93c1-52-41-93-93-93z m0 159c-36 0-66-30-66-66s30-67 66-67 67 30 67 67-30 66-67 66z" horiz-adv-x="1000" />

<glyph glyph-name="pipe-wrench" unicode="&#xe85a;" d="M71-111c-20 0-40 9-54 24-25 28-22 72 5 100l688 688c5 4 13 4 18 0l106-106c10 10 25 26 32 37 3 3 4 6 5 10 1 7-1 14-5 19l-79 100c-4 5-4 13 1 17l22 22c0 1 1 1 1 2 2 1 14 9 35 9 27 0 54-13 83-40 46-42 70-84 71-121 0-21-7-41-23-56-32-33-90-90-103-103-3-14-10-27-20-38-24-25-51-48-81-68l8-8c3-2 4-5 4-9s-1-6-4-9l-72-72c-5-5-13-5-18 0l-14 14-206-205c-7-8-17-12-27-12-10 0-20 4-27 12l-12 11c-7 7-11 17-11 27 0 10 4 20 11 27l175 175c-13 0-23 0-31 1l-427-427c-14-14-32-21-51-21z m648 784l-679-679c-18-18-19-46-3-64 8-10 21-16 34-16 12 0 24 5 33 14l431 432c3 2 7 4 11 3 9-1 23-2 41-2 6 0 12 0 18 1l4 4-14 14c-5 5-5 13 0 18l2 2c0 0 0 0 0 0l72 72c5 5 13 5 18 0l67-68c31 19 58 41 81 67 7 8 12 17 15 28 0 0 0 1 0 1 5 22-2 44-17 60l9 9-10-9-113 113z m-90-324l-206-206c-2-2-3-6-3-9 0-3 1-7 3-9l12-11c5-5 13-5 18 0l206 206-30 29z m-5 42l76-76 54 53-76 76-54-53z m228 186c13-14 21-30 24-48 24 23 60 60 83 83 11 10 16 23 15 38 0 29-23 66-63 103-29 27-51 33-65 33-10 0-17-4-19-5l-13-13 72-91c9-11 12-25 10-39-1-8-4-15-9-21-8-12-24-30-35-40z" horiz-adv-x="1000" />

<glyph glyph-name="plumber-tap" unicode="&#xe85b;" d="M842-150c-42 0-75 34-75 75 0 8 1 16 4 23 0 1 0 1 0 2l59 186c1 6 6 9 12 9 5 0 10-3 12-9l58-184c1-2 1-3 1-4 3-8 4-15 4-23 0-41-34-75-75-75z m-46 94c0-1 0-1 0-2-2-6-3-11-3-17 0-27 22-49 49-49s49 22 49 49c0 6-1 11-3 17 0 1-1 1-1 2l-45 145-46-145z m144 241h-191c-7 0-13 6-13 13v66c0 7 6 12 13 12h18v99c0 28-22 50-50 50h-24c-28-63-91-104-161-104s-133 41-162 104h-310c-7 0-13 6-13 13v128c0 7 6 13 13 13h313c24 46 66 80 116 92v54h-129c-7 0-12 6-12 13v56c0 7 5 13 12 13h129v30c0 7 6 13 13 13h59c7 0 13-6 13-13v-30h129c7 0 13-6 13-13v-56c0-7-6-13-13-13h-129v-54c50-12 93-46 116-92h90c77 0 139-63 139-140v-163h21c7 0 13-5 13-12v-66c0-7-6-13-13-13z m-178 26h165v40h-165v-40z m31 65h100v163c0 63-51 114-113 114h-98c-5 0-10 3-12 8-22 50-71 85-126 89h-24c-56-4-104-39-127-89-2-5-7-8-12-8h-308v-102h306c5 0 10-3 11-8 24-58 79-96 142-96s118 38 141 96c2 5 7 8 12 8h32c42 0 76-34 76-76v-99z m-248 400h3v49h-33v-49h4c8 0 17 0 26 0z m16 75h129v30h-317v-30h188z m-46 56h33v17h-33v-17z" horiz-adv-x="1000" />

</font>
</defs>
</svg>
