<svg xmlns="http://www.w3.org/2000/svg" viewBox="0 0 200 120"><title>contact_us</title><g id="Layer_2" data-name="Layer 2"><g id="buttonText"><rect x="2" y="2" width="196" height="56" style="fill:#fff"/><path d="M69,33.71a4.15,4.15,0,0,1-.61.74,5.58,5.58,0,0,1-1,.78,6.24,6.24,0,0,1-1.37.62,5.51,5.51,0,0,1-1.71.25,6.15,6.15,0,0,1-2.43-.47,5.58,5.58,0,0,1-1.89-1.31,6,6,0,0,1-1.23-2,7.2,7.2,0,0,1,0-5,6.27,6.27,0,0,1,1.23-2A5.71,5.71,0,0,1,61.84,24a6,6,0,0,1,2.46-.5,5.76,5.76,0,0,1,1.71.23,5.66,5.66,0,0,1,1.32.58,5.11,5.11,0,0,1,1,.76,5.62,5.62,0,0,1,.66.79l-1.22,1a7.24,7.24,0,0,0-.51-.64,3.55,3.55,0,0,0-.71-.6,4.17,4.17,0,0,0-1-.45,4,4,0,0,0-1.24-.18,3.95,3.95,0,0,0-3.11,1.4A4.52,4.52,0,0,0,60.37,28a5.79,5.79,0,0,0-.29,1.84,5.54,5.54,0,0,0,.3,1.83,4.55,4.55,0,0,0,.84,1.49,3.83,3.83,0,0,0,1.31,1,4,4,0,0,0,1.73.36,4.2,4.2,0,0,0,1.39-.21,4,4,0,0,0,1-.5,3.83,3.83,0,0,0,.67-.58l.44-.5Z" style="fill:#4d4d4f"/><path d="M74.38,36.07a4.44,4.44,0,0,1-1.78-.35,4.25,4.25,0,0,1-1.4-1,4.58,4.58,0,0,1-.92-1.41,4.6,4.6,0,0,1,0-3.44,4.58,4.58,0,0,1,.92-1.41,4.25,4.25,0,0,1,1.4-1,4.43,4.43,0,0,1,1.78-.35,4.35,4.35,0,0,1,3.17,1.31,4.5,4.5,0,0,1,.93,1.41,4.6,4.6,0,0,1,0,3.44,4.5,4.5,0,0,1-.93,1.41,4.35,4.35,0,0,1-3.17,1.31Zm0-1.4a2.59,2.59,0,0,0,1.17-.26,2.77,2.77,0,0,0,.88-.68,3,3,0,0,0,.55-1,3.43,3.43,0,0,0,.19-1.12A3.38,3.38,0,0,0,77,30.51a3,3,0,0,0-.56-1,2.83,2.83,0,0,0-.88-.69,2.52,2.52,0,0,0-1.16-.26,2.59,2.59,0,0,0-1.17.26,2.77,2.77,0,0,0-.88.68,3,3,0,0,0-.55,1,3.43,3.43,0,0,0-.19,1.13,3.35,3.35,0,0,0,.19,1.12,3,3,0,0,0,.56,1,2.82,2.82,0,0,0,.88.69A2.52,2.52,0,0,0,74.38,34.66Z" style="fill:#4d4d4f"/><path d="M80.64,29.26v-1c0-.27,0-.56,0-.86h1.55l.05,1.26q.16-.22.4-.48a2.75,2.75,0,0,1,.58-.48,3.4,3.4,0,0,1,.8-.36,3.47,3.47,0,0,1,1-.14,3,3,0,0,1,2.43,1,3.94,3.94,0,0,1,.79,2.59v5H86.64v-4.9a2.49,2.49,0,0,0-.5-1.72,1.84,1.84,0,0,0-1.42-.55,2.2,2.2,0,0,0-1.17.29,2.24,2.24,0,0,0-.75.75,3.36,3.36,0,0,0-.4,1,5.67,5.67,0,0,0-.13,1.2v3.89H80.64Z" style="fill:#4d4d4f"/><path d="M91.15,28.79H89.64V27.44h1.51V24.71h1.62v2.74h2.45v1.35H92.77v4.12a2.23,2.23,0,0,0,.32,1.39,1.09,1.09,0,0,0,.89.38,1.81,1.81,0,0,0,.77-.14,2.37,2.37,0,0,0,.61-.43l.74,1a3.1,3.1,0,0,1-2.38,1,2.44,2.44,0,0,1-2-.72,3.39,3.39,0,0,1-.62-2.25Z" style="fill:#4d4d4f"/><path d="M102.58,34.81a2.79,2.79,0,0,1-1.23.94,4.21,4.21,0,0,1-1.58.31,4,4,0,0,1-1-.14,2.7,2.7,0,0,1-.94-.45,2.37,2.37,0,0,1-.68-.81,2.58,2.58,0,0,1-.26-1.21,2.7,2.7,0,0,1,.95-2.16,4.08,4.08,0,0,1,2.73-.81l.61,0,.61,0,.5,0,.31,0v-.31a1.53,1.53,0,0,0-.57-1.34,2.6,2.6,0,0,0-1.54-.41,3.63,3.63,0,0,0-1.51.26,6,6,0,0,0-.94.53l-.76-1.1a3.88,3.88,0,0,1,.52-.36,4.64,4.64,0,0,1,.72-.33,5.94,5.94,0,0,1,.94-.25,6.58,6.58,0,0,1,1.21-.1,3.82,3.82,0,0,1,2.55.78,2.75,2.75,0,0,1,.93,2.22v4.87q0,.44,0,.75h-1.51Zm0-3-.28,0-.48,0-.58,0-.59,0a3.17,3.17,0,0,0-1.11.16,1.88,1.88,0,0,0-.67.41,1.29,1.29,0,0,0-.33.54,2,2,0,0,0-.09.57,1.21,1.21,0,0,0,.47,1,2.12,2.12,0,0,0,1.3.35,2.46,2.46,0,0,0,.89-.16,2.65,2.65,0,0,0,.75-.43,2.19,2.19,0,0,0,.52-.63,1.52,1.52,0,0,0,.2-.74Z" style="fill:#4d4d4f"/><path d="M113.6,34.66a4.21,4.21,0,0,1-1.38,1,4.4,4.4,0,0,1-1.9.39,4.81,4.81,0,0,1-1.83-.33,3.89,3.89,0,0,1-2.26-2.32,5.07,5.07,0,0,1-.31-1.79,4.61,4.61,0,0,1,.32-1.73,4.27,4.27,0,0,1,2.29-2.37,4.74,4.74,0,0,1,3.65,0,4.23,4.23,0,0,1,1.39,1l-1.06,1a2.76,2.76,0,0,0-.92-.74,2.83,2.83,0,0,0-1.28-.27,2.68,2.68,0,0,0-1.16.24,2.49,2.49,0,0,0-.86.67,3.05,3.05,0,0,0-.54,1,3.49,3.49,0,0,0-.19,1.14,3.43,3.43,0,0,0,.19,1.13,3.07,3.07,0,0,0,.54,1,2.56,2.56,0,0,0,2,.93,3,3,0,0,0,1.32-.28,2.71,2.71,0,0,0,1-.75Z" style="fill:#4d4d4f"/><path d="M115.92,28.79h-1.51V27.44h1.51V24.71h1.62v2.74H120v1.35h-2.45v4.12a2.23,2.23,0,0,0,.32,1.39,1.09,1.09,0,0,0,.89.38,1.81,1.81,0,0,0,.77-.14,2.37,2.37,0,0,0,.61-.43l.74,1a3.1,3.1,0,0,1-2.38,1,2.44,2.44,0,0,1-2-.72,3.39,3.39,0,0,1-.62-2.25Z" style="fill:#4d4d4f"/><path d="M125.32,27.44h1.62v4.91a2.5,2.5,0,0,0,.49,1.72,1.81,1.81,0,0,0,1.4.53,2.15,2.15,0,0,0,1.16-.29,2.33,2.33,0,0,0,.75-.75,3.09,3.09,0,0,0,.4-1,6.08,6.08,0,0,0,.12-1.2V27.44h1.62V35q0,.41,0,.86h-1.55l-.05-1.24a5.84,5.84,0,0,1-.4.47,2.6,2.6,0,0,1-.58.46,3.67,3.67,0,0,1-.79.35,3.38,3.38,0,0,1-1,.14,2.94,2.94,0,0,1-2.41-.94,4,4,0,0,1-.77-2.58Z" style="fill:#4d4d4f"/><path d="M135.67,33.71a3.39,3.39,0,0,0,1.08.72,3.68,3.68,0,0,0,1.46.27,3.1,3.1,0,0,0,1.35-.26.86.86,0,0,0,.54-.82,1,1,0,0,0-.12-.5,1,1,0,0,0-.4-.37,3.46,3.46,0,0,0-.74-.3c-.31-.09-.69-.19-1.14-.3a7,7,0,0,1-1-.29,3.18,3.18,0,0,1-.85-.48,2.36,2.36,0,0,1-.61-.72,2.07,2.07,0,0,1-.23-1,2,2,0,0,1,.28-1.07,2.49,2.49,0,0,1,.75-.77,3.57,3.57,0,0,1,1.05-.48,4.51,4.51,0,0,1,1.21-.16,5.36,5.36,0,0,1,1.83.28,4.22,4.22,0,0,1,1.34.78l-.88,1.12a3.26,3.26,0,0,0-.95-.58,3.46,3.46,0,0,0-1.32-.23,2.63,2.63,0,0,0-1.24.25.87.87,0,0,0-.47.83.86.86,0,0,0,.62.8,10.33,10.33,0,0,0,1.63.49,10.22,10.22,0,0,1,1.11.33,3.41,3.41,0,0,1,.9.49,2.19,2.19,0,0,1,.61.73,2.24,2.24,0,0,1,.22,1,2.09,2.09,0,0,1-.29,1.11,2.51,2.51,0,0,1-.77.8,3.59,3.59,0,0,1-1.12.49,5.24,5.24,0,0,1-1.31.16,4.63,4.63,0,0,1-3.56-1.28Z" style="fill:#4d4d4f"/><path d="M198,2V58H2V2H198m2-2H0V60H200V0Z" style="fill:#00cfb5"/><rect x="2" y="62" width="196" height="56" style="fill:#00cfb5"/><path d="M69,93.71a4.15,4.15,0,0,1-.61.74,5.58,5.58,0,0,1-1,.78,6.24,6.24,0,0,1-1.37.62,5.51,5.51,0,0,1-1.71.25,6.15,6.15,0,0,1-2.43-.47,5.58,5.58,0,0,1-1.89-1.31,6,6,0,0,1-1.23-2,7.2,7.2,0,0,1,0-5,6.27,6.27,0,0,1,1.23-2A5.71,5.71,0,0,1,61.84,84a6,6,0,0,1,2.46-.5,5.76,5.76,0,0,1,1.71.23,5.66,5.66,0,0,1,1.32.58,5.11,5.11,0,0,1,1,.76,5.62,5.62,0,0,1,.66.79l-1.22,1a7.24,7.24,0,0,0-.51-.64,3.55,3.55,0,0,0-.71-.6,4.17,4.17,0,0,0-1-.45,4,4,0,0,0-1.24-.18,3.95,3.95,0,0,0-3.11,1.4A4.52,4.52,0,0,0,60.37,88a5.79,5.79,0,0,0-.29,1.84,5.54,5.54,0,0,0,.3,1.83,4.55,4.55,0,0,0,.84,1.49,3.83,3.83,0,0,0,1.31,1,4,4,0,0,0,1.73.36,4.2,4.2,0,0,0,1.39-.21,4,4,0,0,0,1-.5,3.83,3.83,0,0,0,.67-.58l.44-.5Z" style="fill:#fff"/><path d="M74.38,96.07a4.44,4.44,0,0,1-1.78-.35,4.25,4.25,0,0,1-1.4-1,4.58,4.58,0,0,1-.92-1.41,4.6,4.6,0,0,1,0-3.44,4.58,4.58,0,0,1,.92-1.41,4.25,4.25,0,0,1,1.4-1,4.43,4.43,0,0,1,1.78-.35,4.35,4.35,0,0,1,3.17,1.31,4.5,4.5,0,0,1,.93,1.41,4.6,4.6,0,0,1,0,3.44,4.5,4.5,0,0,1-.93,1.41,4.35,4.35,0,0,1-3.17,1.31Zm0-1.4a2.59,2.59,0,0,0,1.17-.26,2.77,2.77,0,0,0,.88-.68,3,3,0,0,0,.55-1,3.43,3.43,0,0,0,.19-1.12A3.38,3.38,0,0,0,77,90.51a3,3,0,0,0-.56-1,2.83,2.83,0,0,0-.88-.69,2.52,2.52,0,0,0-1.16-.26,2.59,2.59,0,0,0-1.17.26,2.77,2.77,0,0,0-.88.68,3,3,0,0,0-.55,1,3.43,3.43,0,0,0-.19,1.13,3.35,3.35,0,0,0,.19,1.12,3,3,0,0,0,.56,1,2.82,2.82,0,0,0,.88.69A2.52,2.52,0,0,0,74.38,94.66Z" style="fill:#fff"/><path d="M80.64,89.26v-1c0-.27,0-.56,0-.86h1.55l.05,1.26q.16-.22.4-.48a2.75,2.75,0,0,1,.58-.48,3.4,3.4,0,0,1,.8-.36,3.47,3.47,0,0,1,1-.14,3,3,0,0,1,2.43,1,3.94,3.94,0,0,1,.79,2.59v5H86.64v-4.9a2.49,2.49,0,0,0-.5-1.72,1.84,1.84,0,0,0-1.42-.55,2.2,2.2,0,0,0-1.17.29,2.24,2.24,0,0,0-.75.75,3.36,3.36,0,0,0-.4,1,5.67,5.67,0,0,0-.13,1.2v3.89H80.64Z" style="fill:#fff"/><path d="M91.15,88.79H89.64V87.44h1.51V84.71h1.62v2.74h2.45v1.35H92.77v4.12a2.23,2.23,0,0,0,.32,1.39,1.09,1.09,0,0,0,.89.38,1.81,1.81,0,0,0,.77-.14,2.37,2.37,0,0,0,.61-.43l.74,1a3.1,3.1,0,0,1-2.38,1,2.44,2.44,0,0,1-2-.72,3.39,3.39,0,0,1-.62-2.25Z" style="fill:#fff"/><path d="M102.58,94.81a2.79,2.79,0,0,1-1.23.94,4.21,4.21,0,0,1-1.58.31,4,4,0,0,1-1-.14,2.7,2.7,0,0,1-.94-.45,2.37,2.37,0,0,1-.68-.81,2.58,2.58,0,0,1-.26-1.21,2.7,2.7,0,0,1,.95-2.16,4.08,4.08,0,0,1,2.73-.81l.61,0,.61,0,.5,0,.31,0v-.31a1.53,1.53,0,0,0-.57-1.34,2.6,2.6,0,0,0-1.54-.41,3.63,3.63,0,0,0-1.51.26,6,6,0,0,0-.94.53l-.76-1.1a3.88,3.88,0,0,1,.52-.36,4.64,4.64,0,0,1,.72-.33,5.94,5.94,0,0,1,.94-.25,6.58,6.58,0,0,1,1.21-.1,3.82,3.82,0,0,1,2.55.78,2.75,2.75,0,0,1,.93,2.22v4.87q0,.44,0,.75h-1.51Zm0-3-.28,0-.48,0-.58,0-.59,0a3.17,3.17,0,0,0-1.11.16,1.88,1.88,0,0,0-.67.41,1.29,1.29,0,0,0-.33.54,2,2,0,0,0-.09.57,1.21,1.21,0,0,0,.47,1,2.12,2.12,0,0,0,1.3.35,2.46,2.46,0,0,0,.89-.16,2.65,2.65,0,0,0,.75-.43,2.19,2.19,0,0,0,.52-.63,1.52,1.52,0,0,0,.2-.74Z" style="fill:#fff"/><path d="M113.6,94.66a4.21,4.21,0,0,1-1.38,1,4.4,4.4,0,0,1-1.9.39,4.81,4.81,0,0,1-1.83-.33,3.89,3.89,0,0,1-2.26-2.32,5.07,5.07,0,0,1-.31-1.79,4.61,4.61,0,0,1,.32-1.73,4.27,4.27,0,0,1,2.29-2.37,4.74,4.74,0,0,1,3.65,0,4.23,4.23,0,0,1,1.39,1l-1.06,1a2.76,2.76,0,0,0-.92-.74,2.83,2.83,0,0,0-1.28-.27,2.68,2.68,0,0,0-1.16.24,2.49,2.49,0,0,0-.86.67,3.05,3.05,0,0,0-.54,1,3.49,3.49,0,0,0-.19,1.14,3.43,3.43,0,0,0,.19,1.13,3.07,3.07,0,0,0,.54,1,2.56,2.56,0,0,0,2,.93,3,3,0,0,0,1.32-.28,2.71,2.71,0,0,0,1-.75Z" style="fill:#fff"/><path d="M115.92,88.79h-1.51V87.44h1.51V84.71h1.62v2.74H120v1.35h-2.45v4.12a2.23,2.23,0,0,0,.32,1.39,1.09,1.09,0,0,0,.89.38,1.81,1.81,0,0,0,.77-.14,2.37,2.37,0,0,0,.61-.43l.74,1a3.1,3.1,0,0,1-2.38,1,2.44,2.44,0,0,1-2-.72,3.39,3.39,0,0,1-.62-2.25Z" style="fill:#fff"/><path d="M125.32,87.44h1.62v4.91a2.5,2.5,0,0,0,.49,1.72,1.81,1.81,0,0,0,1.4.53,2.15,2.15,0,0,0,1.16-.29,2.33,2.33,0,0,0,.75-.75,3.09,3.09,0,0,0,.4-1,6.08,6.08,0,0,0,.12-1.2V87.44h1.62V95q0,.41,0,.86h-1.55l-.05-1.24a5.84,5.84,0,0,1-.4.47,2.6,2.6,0,0,1-.58.46,3.67,3.67,0,0,1-.79.35,3.38,3.38,0,0,1-1,.14,2.94,2.94,0,0,1-2.41-.94,4,4,0,0,1-.77-2.58Z" style="fill:#fff"/><path d="M135.67,93.71a3.39,3.39,0,0,0,1.08.72,3.68,3.68,0,0,0,1.46.27,3.1,3.1,0,0,0,1.35-.26.86.86,0,0,0,.54-.82,1,1,0,0,0-.12-.5,1,1,0,0,0-.4-.37,3.46,3.46,0,0,0-.74-.3c-.31-.09-.69-.19-1.14-.3a7,7,0,0,1-1-.29,3.18,3.18,0,0,1-.85-.48,2.36,2.36,0,0,1-.61-.72,2.07,2.07,0,0,1-.23-1,2,2,0,0,1,.28-1.07,2.49,2.49,0,0,1,.75-.77,3.57,3.57,0,0,1,1.05-.48,4.51,4.51,0,0,1,1.21-.16,5.36,5.36,0,0,1,1.83.28,4.22,4.22,0,0,1,1.34.78l-.88,1.12a3.26,3.26,0,0,0-.95-.58,3.46,3.46,0,0,0-1.32-.23,2.63,2.63,0,0,0-1.24.25.87.87,0,0,0-.47.83.86.86,0,0,0,.62.8,10.33,10.33,0,0,0,1.63.49,10.22,10.22,0,0,1,1.11.33,3.41,3.41,0,0,1,.9.49,2.19,2.19,0,0,1,.61.73,2.24,2.24,0,0,1,.22,1,2.09,2.09,0,0,1-.29,1.11,2.51,2.51,0,0,1-.77.8,3.59,3.59,0,0,1-1.12.49,5.24,5.24,0,0,1-1.31.16,4.63,4.63,0,0,1-3.56-1.28Z" style="fill:#fff"/><path d="M198,62v56H2V62H198m2-2H0v60H200V60Z" style="fill:#fff"/></g></g><div xmlns="" id="divScriptsUsed" style="display: none"/><script xmlns="" id="globalVarsDetection" src="chrome-extension://cmkdbmfndkfgebldhnkbfhlneefdaaip/js/wrs_env.js"/></svg>