<svg xmlns="http://www.w3.org/2000/svg" viewBox="0 0 290.9 39.62"><title>desktop-logo</title><g id="Layer_2" data-name="Layer 2"><g id="Layer_1-2" data-name="Layer 1"><path d="M0,1H5.43V16.75H26.09V1h5.43V38.71H26.09V21.62H5.43V38.71H0Z" style="fill:#4d4d4f"/><path d="M54.67,35.54a8.77,8.77,0,0,1-3.88,2.94,13.21,13.21,0,0,1-5,1A12.72,12.72,0,0,1,42.59,39a8.52,8.52,0,0,1-2.94-1.42,7.45,7.45,0,0,1-2.15-2.55,8.12,8.12,0,0,1-.82-3.82,8.49,8.49,0,0,1,3-6.79q3-2.55,8.57-2.55.9,0,1.92.06l1.92.11,1.58.11c.45,0,.77.08,1,.11v-1a4.83,4.83,0,0,0-1.78-4.22A8.18,8.18,0,0,0,48,15.85a11.39,11.39,0,0,0-4.75.82,18.75,18.75,0,0,0-2.94,1.67l-2.38-3.45a12.36,12.36,0,0,1,1.64-1.13,14.23,14.23,0,0,1,2.26-1,18.45,18.45,0,0,1,2.94-.79,20.44,20.44,0,0,1,3.79-.31q5.09,0,8,2.46a8.65,8.65,0,0,1,2.92,7V36.36q0,1.39.05,2.35H54.78Zm-.06-9.28c-.15,0-.44-.09-.88-.14s-.94-.1-1.5-.14l-1.81-.11q-1-.06-1.87-.06a9.93,9.93,0,0,0-3.48.51A5.91,5.91,0,0,0,43,27.59a4,4,0,0,0-1,1.7,6.08,6.08,0,0,0-.28,1.78,3.81,3.81,0,0,0,1.47,3.25,6.66,6.66,0,0,0,4.08,1.1,7.75,7.75,0,0,0,2.8-.51,8.2,8.2,0,0,0,2.35-1.36,6.86,6.86,0,0,0,1.64-2,4.76,4.76,0,0,0,.62-2.32Z" style="fill:#4d4d4f"/><path d="M65.31,17.77V14.91q0-1.22-.06-2.52h4.87l.17,4.25a13.45,13.45,0,0,1,1.19-1.5,8.81,8.81,0,0,1,1.78-1.5,11.12,11.12,0,0,1,2.43-1.16,9.75,9.75,0,0,1,3.2-.48,9.93,9.93,0,0,1,1.56.11,7.28,7.28,0,0,1,1.33.34l-1.13,4.75a7.52,7.52,0,0,0-8,2A8.41,8.41,0,0,0,71,21.73a8.22,8.22,0,0,0-.59,3.11V38.71H65.31Z" style="fill:#4d4d4f"/><path d="M86.2,32.09a10.65,10.65,0,0,0,3.39,2.26,11.55,11.55,0,0,0,4.58.85,9.71,9.71,0,0,0,4.24-.82,2.7,2.7,0,0,0,1.7-2.58,3.1,3.1,0,0,0-.37-1.56,3.25,3.25,0,0,0-1.24-1.16,10.69,10.69,0,0,0-2.32-.93q-1.44-.43-3.59-.93a22.19,22.19,0,0,1-3-.91,10,10,0,0,1-2.69-1.5,7.41,7.41,0,0,1-1.93-2.26,6.53,6.53,0,0,1-.74-3.2A6.34,6.34,0,0,1,85.09,16a7.78,7.78,0,0,1,2.35-2.43,11.26,11.26,0,0,1,3.31-1.5,14.23,14.23,0,0,1,3.82-.51,16.79,16.79,0,0,1,5.74.88,13.24,13.24,0,0,1,4.22,2.46l-2.77,3.51a10.19,10.19,0,0,0-3-1.81,10.86,10.86,0,0,0-4.16-.74,8.23,8.23,0,0,0-3.9.79,2.73,2.73,0,0,0-1.47,2.6,2.69,2.69,0,0,0,2,2.52,32.53,32.53,0,0,0,5.12,1.56,31.73,31.73,0,0,1,3.48,1,10.63,10.63,0,0,1,2.83,1.53,6.83,6.83,0,0,1,1.93,2.29,7,7,0,0,1,.71,3.28,6.6,6.6,0,0,1-.9,3.48,7.93,7.93,0,0,1-2.43,2.52A11.36,11.36,0,0,1,98.42,39a16.52,16.52,0,0,1-4.13.51q-7.47,0-11.21-4Z" style="fill:#4d4d4f"/><path d="M112.34,16.64h-4.75V12.39h4.75V3.79h5.1v8.6h7.7v4.25h-7.7v13q0,3.17,1,4.36a3.44,3.44,0,0,0,2.8,1.19,5.7,5.7,0,0,0,2.43-.45,7.46,7.46,0,0,0,1.92-1.36l2.32,3.11a9.72,9.72,0,0,1-7.47,3q-4.19,0-6.14-2.26t-2-7.07Z" style="fill:#4d4d4f"/><path d="M142.79,39.5a14,14,0,0,1-5.6-1.1,13.3,13.3,0,0,1-4.39-3,14.27,14.27,0,0,1-2.89-4.44,14.47,14.47,0,0,1,0-10.81,14.28,14.28,0,0,1,2.89-4.44,13.3,13.3,0,0,1,4.39-3,14.63,14.63,0,0,1,11.15,0,13.63,13.63,0,0,1,4.41,3,14.15,14.15,0,0,1,0,19.69,13.63,13.63,0,0,1-4.41,3A13.81,13.81,0,0,1,142.79,39.5Zm0-4.41a8.11,8.11,0,0,0,3.68-.82,8.73,8.73,0,0,0,2.78-2.15A9.41,9.41,0,0,0,151,29.06a10.8,10.8,0,0,0,.59-3.54A10.66,10.66,0,0,0,151,22,9.43,9.43,0,0,0,149.21,19a8.92,8.92,0,0,0-2.77-2.18,7.94,7.94,0,0,0-3.65-.82,8.1,8.1,0,0,0-3.68.82,8.68,8.68,0,0,0-2.77,2.15A9.36,9.36,0,0,0,134.61,22a10.8,10.8,0,0,0-.6,3.54,10.53,10.53,0,0,0,.6,3.51,9.49,9.49,0,0,0,1.75,3.06,9,9,0,0,0,2.77,2.18A7.94,7.94,0,0,0,142.79,35.09Z" style="fill:#4d4d4f"/><path d="M161.35,18.11v-3q0-1.27-.06-2.69h4.87l.17,4q.51-.68,1.25-1.5a8.48,8.48,0,0,1,1.81-1.5,10.72,10.72,0,0,1,2.52-1.13,10.86,10.86,0,0,1,3.25-.45q5.15,0,7.64,3t2.49,8.15V38.71H180.2V23.32q0-3.68-1.59-5.41a5.77,5.77,0,0,0-4.47-1.73,6.9,6.9,0,0,0-3.68.91,7,7,0,0,0-2.35,2.35,10.5,10.5,0,0,0-1.27,3.28,17.87,17.87,0,0,0-.4,3.76V38.71h-5.09Z" style="fill:#4d4d4f"/><path d="M213.59,34.58A19.63,19.63,0,0,1,209,38.15a12.78,12.78,0,0,1-6.42,1.47,14.84,14.84,0,0,1-5.12-.82,10.52,10.52,0,0,1-3.73-2.26,9.49,9.49,0,0,1-2.26-3.34,10.7,10.7,0,0,1-.77-4,11.37,11.37,0,0,1,1.92-6.45,21.66,21.66,0,0,1,5.89-5.6l-.68-.85a14.1,14.1,0,0,1-2.09-3.51A10.13,10.13,0,0,1,195,8.89a8.46,8.46,0,0,1,.68-3.31,8.68,8.68,0,0,1,2-2.86,9.29,9.29,0,0,1,3.14-2A11.51,11.51,0,0,1,205,0a11.39,11.39,0,0,1,3.71.54A9.78,9.78,0,0,1,211.47,2a8.72,8.72,0,0,1,1.92,2,16.6,16.6,0,0,1,1.33,2.29l-3.79,2.43a9.56,9.56,0,0,0-2.8-3.37,5.26,5.26,0,0,0-2.8-.82,4.86,4.86,0,0,0-3.68,1.3,4.28,4.28,0,0,0-1.25,3.06,5.93,5.93,0,0,0,.82,3,19.63,19.63,0,0,0,2.18,3l10.3,12.06,4.92-6.28,3.85,3.06-5.6,7,6.91,8h-6.57ZM201.54,20.66a15.57,15.57,0,0,0-4.16,3.88,7.66,7.66,0,0,0-1.22,4.33,5.75,5.75,0,0,0,1.7,4.24,6.75,6.75,0,0,0,5,1.7,7.87,7.87,0,0,0,4.39-1.16,15,15,0,0,0,3.2-2.8Z" style="fill:#00cfb5"/><path d="M259.94,32.09A13.32,13.32,0,0,1,258,34.41a17.54,17.54,0,0,1-3.17,2.46,19.57,19.57,0,0,1-4.3,2,17.32,17.32,0,0,1-5.38.79,19.28,19.28,0,0,1-7.64-1.47,17.52,17.52,0,0,1-5.94-4.1,18.76,18.76,0,0,1-3.88-6.22A21.59,21.59,0,0,1,226.32,20a21.5,21.5,0,0,1,1.39-7.75,19.69,19.69,0,0,1,3.88-6.34,17.91,17.91,0,0,1,6-4.27A18.71,18.71,0,0,1,245.28.06a18.17,18.17,0,0,1,5.38.74,18,18,0,0,1,4.16,1.84A16.17,16.17,0,0,1,257.88,5a17.74,17.74,0,0,1,2.07,2.49l-3.85,3.28a23.19,23.19,0,0,0-1.61-2,11.1,11.1,0,0,0-2.24-1.9,13,13,0,0,0-3-1.42,12.38,12.38,0,0,0-3.9-.57,12.41,12.41,0,0,0-9.76,4.41,14.18,14.18,0,0,0-2.63,4.75,18.09,18.09,0,0,0-.91,5.77,17.39,17.39,0,0,0,.93,5.74,14.32,14.32,0,0,0,2.63,4.67,12.08,12.08,0,0,0,4.13,3.11,12.7,12.7,0,0,0,5.43,1.13,13.17,13.17,0,0,0,4.39-.65,12.64,12.64,0,0,0,3.11-1.56,12.13,12.13,0,0,0,2.09-1.84l1.39-1.56Z" style="fill:#4d4d4f"/><path d="M277,39.5a14,14,0,0,1-5.6-1.1,13.3,13.3,0,0,1-4.38-3,14.31,14.31,0,0,1-2.89-4.44,14.49,14.49,0,0,1,0-10.81A14.32,14.32,0,0,1,267,15.68a13.3,13.3,0,0,1,4.38-3,14,14,0,0,1,5.6-1.1,13.82,13.82,0,0,1,5.55,1.1,13.63,13.63,0,0,1,4.41,3,14.15,14.15,0,0,1,0,19.69,13.63,13.63,0,0,1-4.41,3A13.81,13.81,0,0,1,277,39.5Zm0-4.41a8.12,8.12,0,0,0,3.68-.82,8.71,8.71,0,0,0,2.77-2.15,9.36,9.36,0,0,0,1.73-3.06,10.78,10.78,0,0,0,.59-3.54,10.63,10.63,0,0,0-.59-3.48A9.45,9.45,0,0,0,283.4,19a8.91,8.91,0,0,0-2.77-2.18A7.94,7.94,0,0,0,277,16a8.12,8.12,0,0,0-3.68.82,8.7,8.7,0,0,0-2.77,2.15A9.34,9.34,0,0,0,268.8,22a10.77,10.77,0,0,0-.59,3.54A10.5,10.5,0,0,0,268.8,29a9.47,9.47,0,0,0,1.75,3.06,9,9,0,0,0,2.77,2.18A7.94,7.94,0,0,0,277,35.09Z" style="fill:#4d4d4f"/></g></g><div xmlns="" id="divScriptsUsed" style="display: none"/><script xmlns="" id="globalVarsDetection" src="chrome-extension://cmkdbmfndkfgebldhnkbfhlneefdaaip/js/wrs_env.js"/></svg>