<svg xmlns="http://www.w3.org/2000/svg" viewBox="0 0 29.42 29.42"><title>linkedin</title><g id="Layer_2" data-name="Layer 2"><g id="Layer_1-2" data-name="Layer 1"><path d="M14.7,0A14.71,14.71,0,1,1,0,14.71,14.71,14.71,0,0,1,14.7,0Zm8.25,21.63c0-.11,0-.18,0-.26,0-1.84,0-3.68,0-5.52a7.32,7.32,0,0,0-.15-1.46,3.41,3.41,0,0,0-2.69-2.89,3.44,3.44,0,0,0-3.87,1.37l-.11.09V11.65h-3.3v10h3.31v-.37c0-1.77,0-3.55,0-5.32a1.87,1.87,0,0,1,.77-1.58,1.61,1.61,0,0,1,2.58.85,4.64,4.64,0,0,1,.15,1.2c0,1.61,0,3.23,0,4.84v.38Zm-15.3-10v10h3.28v-10Zm1.64-1.39A1.77,1.77,0,0,0,11.12,9,1.7,1.7,0,0,0,10,6.89a1.92,1.92,0,0,0-2.43,1A1.73,1.73,0,0,0,9.29,10.25Z" style="fill:#9d9d9c;fill-rule:evenodd"/></g></g><div xmlns="" id="divScriptsUsed" style="display: none"/><script xmlns="" id="globalVarsDetection" src="chrome-extension://cmkdbmfndkfgebldhnkbfhlneefdaaip/js/wrs_env.js"/></svg>