<svg xmlns="http://www.w3.org/2000/svg" viewBox="0 0 34.11 27.72"><title>twitter</title><g id="Layer_2" data-name="Layer 2"><g id="Layer_1-2" data-name="Layer 1"><path d="M34.11,3.28a14,14,0,0,1-4,1.1A7,7,0,0,0,33.16.51a14,14,0,0,1-4.44,1.7A7,7,0,0,0,16.8,8.59,19.86,19.86,0,0,1,2.37,1.28a7,7,0,0,0,2.17,9.34,7,7,0,0,1-3.17-.87v.09A7,7,0,0,0,7,16.7a7.06,7.06,0,0,1-3.16.12,7,7,0,0,0,6.54,4.86,14,14,0,0,1-8.69,3A14.3,14.3,0,0,1,0,24.57a19.82,19.82,0,0,0,10.73,3.14c12.87,0,19.91-10.66,19.91-19.91,0-.3,0-.6,0-.9a14.12,14.12,0,0,0,3.49-3.62" style="fill:#9d9d9c"/></g></g><div xmlns="" id="divScriptsUsed" style="display: none"/><script xmlns="" id="globalVarsDetection" src="chrome-extension://cmkdbmfndkfgebldhnkbfhlneefdaaip/js/wrs_env.js"/></svg>